<svg width="260" height="378" viewBox="0 0 260 378" fill="none" xmlns="http://www.w3.org/2000/svg">
<g clip-path="url(#clip0_247_1369)">
<path d="M139.503 93.5029C138.443 90.0832 135.263 87.7495 131.664 87.7495C128.064 87.7495 124.884 90.0832 123.824 93.5029L38.9379 367.446C37.9078 370.77 39.1116 374.377 41.9368 376.43C44.762 378.483 48.5846 378.526 51.4573 376.542L131.664 321.132L211.871 376.542C213.28 377.515 214.917 378 216.552 378C218.252 378 219.953 377.475 221.392 376.43C224.218 374.377 225.421 370.77 224.391 367.446L139.503 93.5029ZM159.369 213.004L143.133 195.427L151.213 186.685L159.369 213.004ZM131.665 123.6L145.62 168.636L131.997 183.374L117.878 168.089L131.665 123.6ZM112.284 186.142L120.857 195.424L103.634 214.057L112.284 186.142ZM131.993 207.478L170.265 248.691H93.8973L131.993 207.478ZM61.6113 349.669L81.2464 286.302L117.292 311.203L61.6113 349.669ZM86.3159 269.945L87.8488 264.998H175.48L177.013 269.945L131.664 301.273L86.3159 269.945ZM146.037 311.203L182.082 286.302L201.717 349.669L146.037 311.203Z" fill="#323540"/>
<path d="M170.164 248.535H94.351L132.139 207.427L170.164 248.535Z" fill="#F2B91C" stroke="#323540"/>
<path d="M52.4147 157.56C54.5142 157.56 56.6123 156.764 58.2143 155.172C61.4175 151.988 61.4175 146.825 58.2143 143.641C22.2364 107.876 22.2364 49.6837 58.2143 13.9193C61.4175 10.7351 61.4175 5.57234 58.2143 2.38815C55.0104 -0.796049 49.8183 -0.796049 46.6143 2.38815C4.24119 44.5106 4.24119 113.049 46.6143 155.171C48.2163 156.764 50.3151 157.56 52.4147 157.56Z" fill="#323540"/>
<path d="M205.114 143.64C201.91 146.825 201.91 151.987 205.114 155.172C206.716 156.764 208.814 157.56 210.913 157.56C213.012 157.56 215.111 156.764 216.713 155.172C259.086 113.049 259.086 44.5111 216.713 2.38863C213.509 -0.79556 208.317 -0.79556 205.113 2.38863C201.91 5.57283 201.91 10.7356 205.113 13.9198C241.092 49.6842 241.092 107.876 205.114 143.64Z" fill="#323540"/>
<path d="M69.8136 132.11C71.4155 133.703 73.5144 134.499 75.6132 134.499C77.712 134.499 79.8108 133.702 81.4128 132.11C84.616 128.926 84.616 123.763 81.4128 120.58C58.2269 97.5315 58.2269 60.0299 81.4128 36.9816C84.616 33.7974 84.616 28.6346 81.4128 25.4511C78.2089 22.2669 73.0167 22.2669 69.8128 25.4511C40.2332 54.8568 40.2332 102.705 69.8136 132.11Z" fill="#323540"/>
<path d="M181.914 120.58C178.711 123.764 178.711 128.927 181.914 132.111C183.516 133.704 185.615 134.5 187.714 134.5C189.813 134.5 191.912 133.704 193.514 132.111C207.823 117.887 215.704 98.947 215.704 78.7809C215.704 58.6148 207.824 39.6758 193.514 25.4506C190.31 22.2665 185.118 22.2665 181.914 25.4506C178.71 28.6348 178.71 33.7976 181.914 36.9818C205.1 60.0301 205.1 97.5317 181.914 120.58Z" fill="#323540"/>
<path d="M93.0143 109.049C94.6162 110.642 96.7151 111.438 98.8139 111.438C100.913 111.438 103.012 110.641 104.614 109.049C107.817 105.865 107.817 100.702 104.614 97.5188C99.5781 92.514 96.8049 85.8592 96.8049 78.7813C96.8049 71.7034 99.5781 65.0493 104.614 60.0446C107.817 56.8604 107.817 51.6976 104.614 48.5141C101.411 45.3299 96.2197 45.3299 93.0135 48.5141C84.8804 56.599 80.4012 67.3483 80.4012 78.7821C80.4012 90.2143 84.8804 100.964 93.0143 109.049Z" fill="#323540"/>
<path d="M166.523 78.7794C166.523 85.8572 163.75 92.5121 158.714 97.5169C155.512 100.703 155.512 105.865 158.715 109.049C160.317 110.641 162.416 111.437 164.515 111.437C166.614 111.437 168.712 110.641 170.314 109.049C178.448 100.964 182.927 90.2146 182.927 78.7801C182.927 67.3464 178.448 56.5971 170.314 48.5122C167.11 45.328 161.918 45.328 158.714 48.5122C155.511 51.6964 155.511 56.8591 158.714 60.0426C163.75 65.0474 166.523 71.7022 166.523 78.7794Z" fill="#323540"/>
</g>
<defs>
<clipPath id="clip0_247_1369">
<rect width="260" height="378" fill="white"/>
</clipPath>
</defs>
</svg>
