<svg width="135" height="135" viewBox="0 0 135 135" fill="none" xmlns="http://www.w3.org/2000/svg">
<path d="M57.78 20.8406C58.3673 21.7803 58.7637 22.8263 58.9467 23.9191C59.1297 25.012 59.0956 26.1301 58.8464 27.2098C58.5973 28.2894 58.1379 29.3094 57.4946 30.2116C56.8512 31.1137 56.0365 31.8803 55.0969 32.4675C44.8276 38.864 36.6695 48.1431 31.6406 59.1469C36.719 58.7222 41.8074 59.8403 46.24 62.3549C50.6725 64.8695 54.2428 68.6635 56.4838 73.2405C58.7248 77.8174 59.532 82.9643 58.8 88.0076C58.0679 93.0509 55.8306 97.7557 52.3807 101.507C48.9309 105.258 44.4292 107.88 39.4646 109.03C34.5001 110.181 29.3038 109.806 24.5557 107.955C19.8077 106.104 15.7289 102.863 12.853 98.6556C9.9772 94.4484 8.43824 89.4712 8.4375 84.375V84.1472C8.44668 83.494 8.47481 82.8413 8.52187 82.1897C8.59781 80.9241 8.74969 79.1522 9.045 76.9753C9.63563 72.6469 10.7916 66.6816 13.1287 59.9822C17.7862 46.5666 27.2194 29.9869 46.1531 18.1575C47.0927 17.5703 48.1388 17.1738 49.2316 16.9908C50.3244 16.8079 51.4426 16.8419 52.5223 17.0911C53.6019 17.3402 54.6219 17.7996 55.524 18.4429C56.4262 19.0863 57.1927 19.901 57.78 20.8406ZM116.842 20.8406C117.43 21.7803 117.826 22.8263 118.009 23.9191C118.192 25.012 118.158 26.1301 117.909 27.2098C117.66 28.2894 117.2 29.3094 116.557 30.2116C115.914 31.1137 115.099 31.8803 114.159 32.4675C103.89 38.864 95.732 48.1431 90.7031 59.1469C95.7815 58.7222 100.87 59.8403 105.302 62.3549C109.735 64.8695 113.305 68.6635 115.546 73.2405C117.787 77.8174 118.595 82.9643 117.862 88.0076C117.13 93.0509 114.893 97.7557 111.443 101.507C107.993 105.258 103.492 107.88 98.5271 109.03C93.5626 110.181 88.3663 109.806 83.6182 107.955C78.8702 106.104 74.7914 102.863 71.9155 98.6556C69.0397 94.4484 67.5007 89.4712 67.5 84.375V84.1472C67.5092 83.494 67.5373 82.8413 67.5844 82.1897C67.6603 80.9241 67.8122 79.1522 68.1075 76.9753C68.6981 72.6469 69.8541 66.6816 72.1912 59.9822C76.8487 46.5666 86.2819 29.9869 105.216 18.1575C106.155 17.5703 107.201 17.1738 108.294 16.9908C109.387 16.8079 110.505 16.8419 111.585 17.0911C112.664 17.3402 113.684 17.7996 114.587 18.4429C115.489 19.0863 116.255 19.901 116.842 20.8406Z" fill="#D9D9D9" fill-opacity="0.4"/>
</svg>
