<svg width="464" height="236" viewBox="0 0 464 236" fill="none" xmlns="http://www.w3.org/2000/svg">
<g clip-path="url(#clip0_183_59)">
<path d="M56.4 154L11.6 11.6H51.4L83 121.2H64.6L95.8 11.6H128.8L160 121.2H141.8L173.4 11.6H212.8L168 154H134.8L103.6 44.6H120.8L89.6 154H56.4ZM226.292 154V11.6H266.292V154H226.292ZM289.964 154V11.6H329.964V154H289.964ZM322.364 103.4V70.2H392.364V103.4H322.364ZM322.364 44.8V11.6H395.364V44.8H322.364ZM412.816 154V11.6H452.816V154H412.816Z" fill="#F2B91C"/>
<path d="M39.674 224.814C35.8753 224.814 32.2987 224.123 28.944 222.742C25.6387 221.361 22.7527 219.461 20.286 217.044C17.8193 214.577 15.8707 211.716 14.44 208.46C13.0587 205.155 12.368 201.603 12.368 197.804C12.368 194.005 13.0833 190.478 14.514 187.222C15.9447 183.966 17.918 181.129 20.434 178.712C22.9993 176.245 25.984 174.346 29.388 173.014C32.792 171.633 36.4427 170.942 40.34 170.942C44.8293 170.942 48.8993 171.756 52.55 173.384C56.25 175.012 59.3087 177.257 61.726 180.118L53.808 188.036C52.1307 185.865 50.1573 184.237 47.888 183.152C45.6187 182.067 43.0533 181.524 40.192 181.524C37.1333 181.524 34.3953 182.215 31.978 183.596C29.5607 184.928 27.6613 186.827 26.28 189.294C24.948 191.711 24.282 194.548 24.282 197.804C24.282 201.06 24.948 203.921 26.28 206.388C27.612 208.855 29.4373 210.779 31.756 212.16C34.0747 213.541 36.7387 214.232 39.748 214.232C42.8067 214.232 45.3967 213.665 47.518 212.53C49.6887 211.346 51.3413 209.669 52.476 207.498C53.66 205.278 54.252 202.589 54.252 199.432L61.948 204.612L38.638 204.242V194.4H66.092V196.102C66.092 202.367 64.9573 207.646 62.688 211.938C60.468 216.181 57.36 219.387 53.364 221.558C49.4173 223.729 44.854 224.814 39.674 224.814ZM73.1336 224V171.756H84.7516V224H73.1336ZM82.0876 224V213.788H107.914V224H82.0876ZM136.661 224.888C132.715 224.888 129.064 224.197 125.709 222.816C122.404 221.435 119.493 219.511 116.977 217.044C114.461 214.577 112.513 211.716 111.131 208.46C109.75 205.155 109.059 201.603 109.059 197.804C109.059 193.956 109.75 190.404 111.131 187.148C112.513 183.892 114.437 181.055 116.903 178.638C119.37 176.171 122.256 174.272 125.561 172.94C128.916 171.559 132.567 170.868 136.513 170.868C140.411 170.868 144.012 171.559 147.317 172.94C150.672 174.272 153.583 176.171 156.049 178.638C158.565 181.055 160.514 183.917 161.895 187.222C163.277 190.478 163.967 194.03 163.967 197.878C163.967 201.677 163.277 205.229 161.895 208.534C160.514 211.79 158.59 214.651 156.123 217.118C153.657 219.535 150.746 221.435 147.391 222.816C144.086 224.197 140.509 224.888 136.661 224.888ZM136.513 214.306C139.621 214.306 142.335 213.615 144.653 212.234C147.021 210.853 148.847 208.929 150.129 206.462C151.412 203.946 152.053 201.06 152.053 197.804C152.053 195.337 151.683 193.117 150.943 191.144C150.203 189.121 149.143 187.395 147.761 185.964C146.38 184.484 144.727 183.374 142.803 182.634C140.929 181.845 138.832 181.45 136.513 181.45C133.405 181.45 130.667 182.141 128.299 183.522C125.981 184.854 124.18 186.753 122.897 189.22C121.615 191.637 120.973 194.499 120.973 197.804C120.973 200.271 121.343 202.515 122.083 204.538C122.823 206.561 123.859 208.312 125.191 209.792C126.573 211.223 128.225 212.333 130.149 213.122C132.073 213.911 134.195 214.306 136.513 214.306ZM180.223 224V214.972H192.507C194.776 214.972 196.552 214.306 197.835 212.974C199.117 211.642 199.759 210.014 199.759 208.09C199.759 206.758 199.463 205.574 198.871 204.538C198.279 203.502 197.44 202.688 196.355 202.096C195.319 201.504 194.036 201.208 192.507 201.208H180.223V192.402H191.545C193.469 192.402 195.023 191.933 196.207 190.996C197.391 190.009 197.983 188.529 197.983 186.556C197.983 184.632 197.391 183.201 196.207 182.264C195.023 181.277 193.469 180.784 191.545 180.784H180.223V171.756H193.765C197.119 171.756 199.956 172.373 202.275 173.606C204.643 174.839 206.443 176.492 207.677 178.564C208.91 180.636 209.527 182.93 209.527 185.446C209.527 188.653 208.491 191.366 206.419 193.586C204.347 195.806 201.288 197.335 197.243 198.174L197.539 194.252C201.929 195.091 205.309 196.793 207.677 199.358C210.094 201.923 211.303 205.081 211.303 208.83C211.303 211.691 210.587 214.281 209.157 216.6C207.775 218.869 205.753 220.67 203.089 222.002C200.474 223.334 197.317 224 193.617 224H180.223ZM171.343 224V171.756H182.813V224H171.343ZM214.827 224L235.547 171.756H246.055L266.553 224H254.269L238.581 180.636H242.799L226.889 224H214.827ZM226.593 214.528V205.056H255.083V214.528H226.593ZM272.081 224V171.756H283.699V224H272.081ZM281.035 224V213.788H306.861V224H281.035ZM313.561 224V171.756H321.701L325.179 182.19V224H313.561ZM349.599 224L318.815 184.558L321.701 171.756L352.485 211.198L349.599 224ZM349.599 224L346.491 213.566V171.756H358.109V224H349.599ZM368.194 224V171.756H379.812V224H368.194ZM377.074 224V213.936H405.712V224H377.074ZM377.074 202.17V192.476H403.122V202.17H377.074ZM377.074 181.746V171.756H405.342V181.746H377.074ZM424.934 224V172.496H436.552V224H424.934ZM408.58 181.894V171.756H452.906V181.894H408.58Z" fill="black"/>
</g>
<defs>
<clipPath id="clip0_183_59">
<rect width="464" height="236" fill="white"/>
</clipPath>
</defs>
</svg>
