<svg width="130" height="70" viewBox="0 0 130 70" fill="none" xmlns="http://www.w3.org/2000/svg">
<mask id="mask0_239_901" style="mask-type:luminance" maskUnits="userSpaceOnUse" x="0" y="2" width="130" height="67">
<path d="M130 2H0V68.5119H130V2Z" fill="white"/>
</mask>
<g mask="url(#mask0_239_901)">
<path d="M15.8009 45.4033L3.24921 5.27081H14.4001L23.2535 36.1593H18.0983L26.8397 5.27081H36.0854L44.8267 36.1593H39.7276L48.581 5.27081H59.6198L47.0681 45.4033H37.7664L29.025 14.5712H33.844L25.1026 45.4033H15.8009ZM63.3999 45.4033V5.27081H74.6068V45.4033H63.3999ZM81.239 45.4033V5.27081H92.4459V45.4033H81.239ZM90.3166 31.1428V21.786H109.929V31.1428H90.3166ZM90.3166 14.6276V5.27081H110.769V14.6276H90.3166ZM115.659 45.4033V5.27081H126.866V45.4033H115.659Z" fill="#F2921C"/>
<path d="M11.1139 65.3585C10.0496 65.3585 9.0475 65.1638 8.1076 64.7746C7.18154 64.3854 6.37296 63.8499 5.68186 63.1687C4.99075 62.4734 4.4448 61.6671 4.04396 60.7495C3.65696 59.818 3.46344 58.817 3.46344 57.7463C3.46344 56.6756 3.66385 55.6816 4.06469 54.764C4.46554 53.8463 5.0184 53.0468 5.72332 52.3656C6.44205 51.6703 7.27829 51.1351 8.232 50.7597C9.18571 50.3705 10.2085 50.1758 11.3005 50.1758C12.5582 50.1758 13.6986 50.4052 14.7214 50.864C15.758 51.3228 16.615 51.9555 17.2923 52.7618L15.0738 54.9934C14.6039 54.3815 14.051 53.9227 13.4152 53.6169C12.7794 53.3111 12.0607 53.1581 11.259 53.1581C10.402 53.1581 9.63491 53.3528 8.95765 53.742C8.28038 54.1174 7.74822 54.6526 7.36122 55.3479C6.98803 56.0291 6.80143 56.8286 6.80143 57.7463C6.80143 58.6639 6.98803 59.4702 7.36122 60.1655C7.73441 60.8608 8.24581 61.403 8.89545 61.7922C9.54509 62.1814 10.2915 62.3762 11.1346 62.3762C11.9916 62.3762 12.7172 62.2164 13.3116 61.8965C13.9197 61.5628 14.3827 61.0902 14.7007 60.4783C15.0324 59.8527 15.1982 59.0948 15.1982 58.2051L17.3545 59.665L10.8236 59.5607V56.7869H18.5155V57.2666C18.5155 59.0323 18.1976 60.5201 17.5618 61.7297C16.9398 62.9255 16.069 63.829 14.9494 64.4409C13.8437 65.0527 12.5652 65.3585 11.1139 65.3585ZM20.4884 65.1291V50.4052H23.7434V65.1291H20.4884ZM22.997 65.1291V62.2511H30.2329V65.1291H22.997ZM38.2871 65.3794C37.1815 65.3794 36.1586 65.1846 35.2186 64.7954C34.2926 64.4062 33.4771 63.864 32.7721 63.1687C32.0672 62.4734 31.5214 61.6671 31.1342 60.7495C30.7473 59.818 30.5537 58.817 30.5537 57.7463C30.5537 56.6618 30.7473 55.6607 31.1342 54.7431C31.5214 53.8255 32.0605 53.0259 32.7514 52.3447C33.4426 51.6495 34.2512 51.1143 35.1772 50.7389C36.1171 50.3497 37.1401 50.1549 38.2456 50.1549C39.3377 50.1549 40.3466 50.3497 41.2726 50.7389C42.2126 51.1143 43.0282 51.6495 43.7191 52.3447C44.424 53.0259 44.9701 53.8325 45.357 54.764C45.7442 55.6816 45.9375 56.6827 45.9375 57.7671C45.9375 58.8378 45.7442 59.8389 45.357 60.7703C44.9701 61.688 44.431 62.4943 43.7398 63.1896C43.0489 63.8707 42.2333 64.4062 41.2934 64.7954C40.3674 65.1846 39.3652 65.3794 38.2871 65.3794ZM38.2456 62.397C39.1164 62.397 39.8768 62.2023 40.5262 61.8131C41.1897 61.4239 41.7013 60.8816 42.0605 60.1864C42.4199 59.4773 42.5995 58.6639 42.5995 57.7463C42.5995 57.051 42.4959 56.4253 42.2885 55.8693C42.0812 55.2992 41.7842 54.8127 41.397 54.4094C41.0101 53.9923 40.547 53.6795 40.0079 53.4709C39.4829 53.2486 38.8953 53.1372 38.2456 53.1372C37.3748 53.1372 36.6077 53.332 35.9443 53.7212C35.2948 54.0966 34.7902 54.6318 34.4308 55.3271C34.0716 56.0082 33.8917 56.8148 33.8917 57.7463C33.8917 58.4416 33.9954 59.074 34.2027 59.6441C34.41 60.2143 34.7003 60.7078 35.0735 61.1249C35.4607 61.5282 35.9235 61.841 36.4626 62.0634C37.0016 62.2857 37.5962 62.397 38.2456 62.397ZM50.492 65.1291V62.5847H53.9337C54.5694 62.5847 55.067 62.397 55.4264 62.0216C55.7856 61.6462 55.9655 61.1874 55.9655 60.6452C55.9655 60.2698 55.8826 59.9361 55.7167 59.6441C55.5508 59.3522 55.3158 59.1227 55.0118 58.9559C54.7215 58.7891 54.3621 58.7056 53.9337 58.7056H50.492V56.2238H53.6641C54.2032 56.2238 54.6386 56.0917 54.9703 55.8276C55.302 55.5494 55.4679 55.1323 55.4679 54.5763C55.4679 54.034 55.302 53.6307 54.9703 53.3666C54.6386 53.0885 54.2032 52.9495 53.6641 52.9495H50.492V50.4052H54.2861C55.2258 50.4052 56.0207 50.5791 56.6704 50.9266C57.3339 51.2741 57.8382 51.7399 58.1839 52.3239C58.5294 52.9078 58.7022 53.5543 58.7022 54.2634C58.7022 55.1673 58.412 55.9319 57.8315 56.5575C57.2509 57.1832 56.3939 57.6141 55.2606 57.8506L55.3435 56.7452C56.5735 56.9817 57.5205 57.4614 58.1839 58.1842C58.8611 58.9071 59.1998 59.7972 59.1998 60.8537C59.1998 61.6601 58.9992 62.39 58.5986 63.0436C58.2114 63.683 57.6449 64.1906 56.8985 64.566C56.1658 64.9414 55.2813 65.1291 54.2447 65.1291H50.492ZM48.0041 65.1291V50.4052H51.2177V65.1291H48.0041ZM60.1871 65.1291L65.9924 50.4052H68.9364L74.6794 65.1291H71.2378L66.8424 52.9078H68.0242L63.5666 65.1291H60.1871ZM63.4837 62.4596V59.7901H71.4658V62.4596H63.4837ZM76.2282 65.1291V50.4052H79.4833V65.1291H76.2282ZM78.7369 65.1291V62.2511H85.9727V65.1291H78.7369ZM87.8498 65.1291V50.4052H90.1304L91.1049 53.3458V65.1291H87.8498ZM97.9467 65.1291L89.3219 54.0132L90.1304 50.4052L98.7553 61.5211L97.9467 65.1291ZM97.9467 65.1291L97.076 62.1885V50.4052H100.331V65.1291H97.9467ZM103.157 65.1291V50.4052H106.412V65.1291H103.157ZM105.645 65.1291V62.2928H113.668V65.1291H105.645ZM105.645 58.9768V56.2447H112.942V58.9768H105.645ZM105.645 53.2207V50.4052H113.564V53.2207H105.645ZM119.054 65.1291V50.6137H122.309V65.1291H119.054ZM114.472 53.2624V50.4052H126.891V53.2624H114.472Z" fill="white"/>
</g>
</svg>
