<svg width="40" height="39" viewBox="0 0 40 39" fill="none" xmlns="http://www.w3.org/2000/svg">
<g clip-path="url(#clip0_195_66)">
<path d="M14.0364 33.4545C27.4909 42.9818 36.2182 36.7272 38.2546 30.9818C38.6909 29.7454 37.9636 28.509 36.7273 28.2181C34.3273 27.6363 31.7818 26.2545 29.6 25.309C28.5818 24.8727 27.3455 25.309 26.8364 26.3272L25.1636 29.0909C24.8 29.8181 23.9273 30.2545 23.1273 29.9636C21.1636 29.3818 18.3273 27.9272 14.4 23.9999C10.4727 20.0727 9.09092 17.1636 8.43638 15.2727C8.21819 14.4727 8.58183 13.5999 9.3091 13.2363L12.0727 11.6363C13.0909 11.1272 13.5273 9.89085 13.0909 8.87267C12.0727 6.61812 10.6909 4.1454 10.1818 1.7454C9.89092 0.509032 8.58183 -0.218241 7.41819 0.218123C1.67274 2.18176 -4.58181 10.909 4.94547 24.3636C7.41819 27.9272 10.5455 30.9818 14.0364 33.4545Z" fill="#F2B91C"/>
<path d="M20.3636 19.0545C20.2182 19.0545 20 19.0545 19.8545 18.9817C19.3454 18.7635 19.0545 18.3272 19.0545 17.8181L18.9818 5.74536C18.9818 4.65445 19.4182 3.709 20.1454 2.909C20.8727 2.18172 21.8909 1.74536 22.9091 1.74536H35.6364C37.8182 1.74536 39.5636 3.49082 39.5636 5.67263V11.3454C39.5636 13.5272 37.8182 15.2726 35.6364 15.2726H24.8727L21.2364 18.6908C21.0182 18.9817 20.6545 19.0545 20.3636 19.0545ZM22.9091 3.19991C22.2545 3.19991 21.6 3.49082 21.1636 3.92718C20.7273 4.43627 20.4364 5.01809 20.4364 5.67263L20.5091 17.4545L24.0727 14.0363C24.2182 13.8908 24.3636 13.8181 24.5818 13.8181H35.6364C37.0182 13.8181 38.1091 12.7272 38.1091 11.3454V5.67263C38.1091 4.29082 37.0182 3.19991 35.6364 3.19991H22.9091Z" fill="#434343"/>
<path d="M30.6908 8.87266C30.9818 8.14539 30.6181 7.27266 29.8908 6.90903C29.1636 6.54539 28.2908 6.98175 27.9272 7.70903C27.6363 8.4363 27.9999 9.30903 28.7272 9.67266C29.4545 9.96357 30.3272 9.59993 30.6908 8.87266Z" fill="#434343"/>
<path d="M25.0182 8.87266C25.3091 8.14538 24.9455 7.27266 24.2182 6.90902C23.491 6.61811 22.6182 6.98175 22.2546 7.70902C21.9637 8.43629 22.3273 9.30902 23.0546 9.67266C23.7819 10.0363 24.7273 9.59993 25.0182 8.87266Z" fill="#434343"/>
<path d="M35.2727 9.74531C36.0727 9.52713 36.5818 8.72713 36.3636 7.99986C36.1454 7.19986 35.3454 6.69077 34.6181 6.90895C33.8181 7.12713 33.3091 7.92713 33.5272 8.6544C33.6727 9.4544 34.4727 9.89077 35.2727 9.74531Z" fill="#434343"/>
</g>
<defs>
<clipPath id="clip0_195_66">
<rect width="40" height="38.5455" fill="white"/>
</clipPath>
</defs>
</svg>
