<svg xmlns="http://www.w3.org/2000/svg">
    <symbol id="location" viewBox="0 0 24 24">
        <path d="M12 0C10.0109 0 8.10322 0.790176 6.6967 2.1967C5.29018 3.60322 4.5 5.51088 4.5 7.5C4.5 15 12 24 12 24C12 24 19.5 15 19.5 7.5C19.5 5.51088 18.7098 3.60322 17.3033 2.1967C15.8968 0.790176 13.9891 0 12 0ZM12 12C10.8065 12 9.66193 11.5259 8.81802 10.682C7.97411 9.83807 7.5 8.69347 7.5 7.5C7.5 6.30653 7.97411 5.16193 8.81802 4.31802C9.66193 3.47411 10.8065 3 12 3C13.1935 3 14.3381 3.47411 15.182 4.31802C16.0259 5.16193 16.5 6.30653 16.5 7.5C16.5 8.69347 16.0259 9.83807 15.182 10.682C14.3381 11.5259 13.1935 12 12 12Z"/>
	</symbol>
    <symbol id="phone" viewBox="0 0 25 24">
        <path fill-rule="evenodd" clip-rule="evenodd" d="M16.792 22.133C15.352 22.08 11.271 21.516 6.99699 17.243C2.72399 12.969 2.16099 8.889 2.10699 7.448C2.02699 5.252 3.70899 3.119 5.65199 2.286C5.88597 2.18497 6.14219 2.1465 6.39552 2.17438C6.64885 2.20225 6.89058 2.29551 7.09699 2.445C8.69699 3.611 9.80099 5.375 10.749 6.762C10.9576 7.06673 11.0468 7.43755 10.9995 7.8038C10.9523 8.17005 10.772 8.50613 10.493 8.748L8.54199 10.197C8.44773 10.2651 8.38138 10.365 8.35527 10.4783C8.32915 10.5916 8.34504 10.7105 8.39999 10.813C8.84199 11.616 9.62799 12.812 10.528 13.712C11.428 14.612 12.681 15.45 13.54 15.942C13.6477 16.0025 13.7745 16.0194 13.8942 15.9892C14.014 15.9591 14.1177 15.8842 14.184 15.78L15.454 13.847C15.6875 13.5368 16.0319 13.3291 16.4152 13.2672C16.7984 13.2053 17.1907 13.2941 17.51 13.515C18.917 14.489 20.559 15.574 21.761 17.113C21.9226 17.3209 22.0254 17.5684 22.0587 17.8296C22.0919 18.0909 22.0544 18.3562 21.95 18.598C21.113 20.551 18.995 22.214 16.792 22.133Z"/>
	</symbol>
    <symbol id="find" viewBox="0 0 24 24" fill="none">
        <path d="M21 21L16.657 16.657M16.657 16.657C17.3998 15.9141 17.9891 15.0322 18.3912 14.0615C18.7932 13.0909 19.0002 12.0506 19.0002 11C19.0002 9.94939 18.7932 8.90908 18.3912 7.93845C17.9891 6.96782 17.3998 6.08588 16.657 5.34299C15.9141 4.6001 15.0321 4.01081 14.0615 3.60877C13.0909 3.20672 12.0506 2.99979 11 2.99979C9.94936 2.99979 8.90905 3.20672 7.93842 3.60877C6.96779 4.01081 6.08585 4.6001 5.34296 5.34299C3.84263 6.84332 2.99976 8.87821 2.99976 11C2.99976 13.1218 3.84263 15.1567 5.34296 16.657C6.84329 18.1573 8.87818 19.0002 11 19.0002C13.1217 19.0002 15.1566 18.1573 16.657 16.657Z" stroke-width="1.5" stroke-linecap="round" stroke-linejoin="round"/>
	</symbol>
    <symbol id="house-wifi" viewBox="0 0 64 64">
        <path d="M51.76 33.68L28.57 17.41C28.4026 17.2939 28.2037 17.2317 28 17.2317C27.7963 17.2317 27.5974 17.2939 27.43 17.41L16.11 25.35V23C16.1341 22.5748 16.0711 22.1491 15.9249 21.749C15.7787 21.349 15.5525 20.983 15.2599 20.6734C14.9674 20.3638 14.6147 20.1172 14.2235 19.9487C13.8324 19.7801 13.4109 19.6932 12.985 19.6932C12.5591 19.6932 12.1376 19.7801 11.7464 19.9487C11.3553 20.1172 11.0026 20.3638 10.7101 20.6734C10.4175 20.983 10.1913 21.349 10.0451 21.749C9.89888 22.1491 9.8359 22.5748 9.85997 23V29.79L4.23997 33.68C3.92742 33.8987 3.661 34.1768 3.45592 34.4984C3.25084 34.82 3.11111 35.1789 3.04472 35.5545C2.91063 36.313 3.08338 37.0938 3.52497 37.725C3.96655 38.3563 4.6408 38.7862 5.39938 38.9203C6.15797 39.0544 6.93875 38.8816 7.56997 38.44L9.85997 36.83V60C9.85997 60.2653 9.96532 60.5196 10.1529 60.7072C10.3404 60.8947 10.5948 61 10.86 61H45.14C45.4052 61 45.6596 60.8947 45.8471 60.7072C46.0346 60.5196 46.14 60.2653 46.14 60V36.83L48.43 38.44C49.0612 38.8816 49.842 39.0544 50.6006 38.9203C51.3592 38.7862 52.0334 38.3563 52.475 37.725C52.9166 37.0938 53.0893 36.313 52.9552 35.5545C52.8212 34.7959 52.3912 34.1216 51.76 33.68ZM11.86 23C11.8452 22.8434 11.8633 22.6854 11.9131 22.5361C11.9629 22.3869 12.0434 22.2497 12.1493 22.1333C12.2552 22.0169 12.3842 21.924 12.5281 21.8603C12.672 21.7967 12.8276 21.7639 12.985 21.7639C13.1423 21.7639 13.298 21.7967 13.4419 21.8603C13.5858 21.924 13.7148 22.0169 13.8207 22.1333C13.9266 22.2497 14.0071 22.3869 14.0569 22.5361C14.1067 22.6854 14.1248 22.8434 14.11 23V26.8L11.86 28.38V23ZM22.63 59V43.62H33.37V59H22.63ZM44.14 59H35.37V42.62C35.37 42.3548 35.2646 42.1005 35.0771 41.9129C34.8896 41.7254 34.6352 41.62 34.37 41.62H21.63C21.3648 41.62 21.1104 41.7254 20.9229 41.9129C20.7354 42.1005 20.63 42.3548 20.63 42.62V59H11.86V35.43L28 24.1L44.14 35.43V59ZM50.84 36.58C50.6993 36.7758 50.4875 36.9085 50.25 36.9496C50.0125 36.9908 49.7683 36.937 49.57 36.8L28.57 22.06C28.4026 21.9439 28.2037 21.8817 28 21.8817C27.7963 21.8817 27.5974 21.9439 27.43 22.06L6.42997 36.8C6.23436 36.8994 6.00919 36.924 5.79677 36.869C5.58436 36.814 5.39934 36.6834 5.2765 36.5016C5.15367 36.3198 5.10147 36.0994 5.12973 35.8818C5.15799 35.6642 5.26476 35.4644 5.42997 35.32L28 19.45L50.62 35.32C50.8129 35.4605 50.9437 35.6705 50.9848 35.9056C51.0258 36.1407 50.9739 36.3825 50.84 36.58Z"/>
        <path d="M42.78 3C42.5148 3 42.2604 3.10536 42.0729 3.29289C41.8854 3.48043 41.78 3.73478 41.78 4C41.78 4.26522 41.8854 4.51957 42.0729 4.70711C42.2604 4.89464 42.5148 5 42.78 5C47.09 5.01852 51.2169 6.74433 54.2571 9.79945C57.2972 12.8546 59.0027 16.99 59 21.3C59 21.5652 59.1054 21.8196 59.2929 22.0071C59.4804 22.1946 59.7348 22.3 60 22.3C60.2652 22.3 60.5196 22.1946 60.7071 22.0071C60.8946 21.8196 61 21.5652 61 21.3C61.0053 16.4588 59.09 11.8131 55.6742 8.38234C52.2584 4.95157 47.6212 3.01589 42.78 3Z"/>
        <path d="M42.78 7.83997C42.5148 7.83997 42.2604 7.94532 42.0729 8.13286C41.8854 8.3204 41.78 8.57475 41.78 8.83997C41.78 9.10518 41.8854 9.35954 42.0729 9.54707C42.2604 9.73461 42.5148 9.83997 42.78 9.83997C45.8071 9.85584 48.7046 11.0709 50.8376 13.2189C52.9706 15.3669 54.1653 18.2728 54.16 21.3C54.16 21.5652 54.2654 21.8195 54.4529 22.0071C54.6404 22.1946 54.8948 22.3 55.16 22.3C55.4252 22.3 55.6796 22.1946 55.8671 22.0071C56.0546 21.8195 56.16 21.5652 56.16 21.3C56.1653 17.7424 54.7599 14.3278 52.2518 11.8047C49.7437 9.28159 46.3376 7.85584 42.78 7.83997Z"/>
        <path d="M49.33 21.3C49.33 21.5652 49.4354 21.8195 49.6229 22.0071C49.8104 22.1946 50.0648 22.3 50.33 22.3C50.5952 22.3 50.8496 22.1946 51.0371 22.0071C51.2246 21.8195 51.33 21.5652 51.33 21.3C51.3248 19.032 50.425 16.8577 48.826 15.2493C47.2269 13.6409 45.0579 12.7284 42.79 12.71C42.5248 12.71 42.2704 12.8153 42.0829 13.0029C41.8953 13.1904 41.79 13.4447 41.79 13.71C41.79 13.9752 41.8953 14.2295 42.0829 14.4171C42.2704 14.6046 42.5248 14.71 42.79 14.71C44.5275 14.7284 46.1878 15.4301 47.4118 16.6634C48.6357 17.8968 49.3248 19.5624 49.33 21.3Z"/>
        <path d="M42.75 25C43.4921 25 44.2175 24.7798 44.8344 24.3673C45.4513 23.9548 45.932 23.3685 46.2155 22.6827C46.499 21.9969 46.5727 21.2424 46.4272 20.5147C46.2817 19.787 45.9235 19.1189 45.3981 18.5948C44.8726 18.0708 44.2035 17.7144 43.4754 17.5708C42.7474 17.4273 41.993 17.503 41.308 17.7883C40.6229 18.0737 40.038 18.5559 39.6271 19.1739C39.2163 19.7919 38.998 20.5179 39 21.26C39.0026 22.2528 39.3989 23.2041 40.1019 23.9052C40.8049 24.6063 41.7572 25 42.75 25ZM42.75 19.51C43.0961 19.51 43.4345 19.6126 43.7222 19.8049C44.01 19.9972 44.2343 20.2705 44.3668 20.5903C44.4992 20.9101 44.5339 21.2619 44.4664 21.6014C44.3988 21.9409 44.2322 22.2527 43.9874 22.4974C43.7427 22.7422 43.4309 22.9089 43.0914 22.9764C42.7519 23.0439 42.4001 23.0092 42.0803 22.8768C41.7605 22.7443 41.4872 22.52 41.2949 22.2322C41.1026 21.9445 41 21.6061 41 21.26C41 21.0307 41.0453 20.8036 41.1334 20.5918C41.2215 20.3801 41.3505 20.1878 41.5132 20.0261C41.6758 19.8644 41.8688 19.7364 42.0811 19.6496C42.2933 19.5627 42.5207 19.5187 42.75 19.52V19.51Z"/>
	</symbol>
    <symbol id="clock-24" viewBox="0 0 60 60">
        <path d="M19.9081 51.1594C20.1325 51.2666 20.3902 51.2803 20.6247 51.1975C20.8591 51.1147 21.0511 50.9421 21.1583 50.7178C21.2655 50.4935 21.2792 50.2357 21.1965 50.0013C21.1136 49.7668 20.9411 49.5749 20.7167 49.4677C20.3227 49.2793 19.929 49.0761 19.5464 48.8637C19.4387 48.803 19.3201 48.7642 19.1974 48.7497C19.0747 48.735 18.9502 48.7447 18.8313 48.7784C18.7124 48.812 18.6013 48.8687 18.5043 48.9455C18.4074 49.0222 18.3267 49.1174 18.2667 49.2254C18.2067 49.3335 18.1686 49.4523 18.1548 49.5751C18.1408 49.6979 18.1514 49.8223 18.1857 49.941C18.22 50.0597 18.2776 50.1706 18.3549 50.2669C18.4322 50.3633 18.5278 50.4436 18.6362 50.5029C19.0517 50.7339 19.4798 50.9547 19.9081 51.1594Z"/>
        <path d="M24.5533 52.801C24.7953 52.8586 25.0501 52.8177 25.2619 52.6874C25.4738 52.5569 25.6251 52.3479 25.6826 52.1059C25.7403 51.8639 25.6994 51.609 25.5689 51.3972C25.4386 51.1855 25.2294 51.0341 24.9874 50.9765C24.5539 50.8735 24.119 50.7553 23.6935 50.625C23.5751 50.5865 23.4502 50.572 23.3261 50.5823C23.202 50.5926 23.0812 50.6276 22.9707 50.685C22.8603 50.7425 22.7623 50.8215 22.6827 50.9172C22.6032 51.013 22.5434 51.1236 22.5071 51.2428C22.4706 51.3619 22.4584 51.487 22.471 51.6109C22.4835 51.7349 22.5205 51.855 22.5801 51.9644C22.6395 52.0738 22.7202 52.1702 22.8174 52.2481C22.9145 52.326 23.0262 52.3837 23.146 52.4179C23.6087 52.5604 24.0821 52.6889 24.5533 52.801Z"/>
        <path d="M30 53.4374C30.2487 53.4374 30.487 53.3387 30.6629 53.1629C30.8387 52.9871 30.9375 52.7486 30.9375 52.4999C30.9375 52.2513 30.8387 52.0128 30.6629 51.837C30.487 51.6612 30.2487 51.5624 30 51.5624C29.4704 51.5624 28.9352 51.543 28.4093 51.5047C28.1613 51.4866 27.9163 51.5678 27.7282 51.7304C27.54 51.893 27.4242 52.1237 27.4062 52.3716C27.3881 52.6196 27.4693 52.8646 27.6319 53.0527C27.7944 53.2408 28.0251 53.3567 28.2731 53.3748C28.8442 53.4164 29.4258 53.4374 30 53.4374Z"/>
        <path d="M38.9489 44.868L35.2607 47.1732C34.3349 47.7477 33.5716 48.5496 33.0435 49.5026C32.5153 50.4554 32.2398 51.5277 32.2433 52.6172C32.2433 52.8659 32.3421 53.1043 32.5179 53.2801C32.6937 53.4559 32.9321 53.5547 33.1808 53.5547H41.2835C41.5322 53.5547 41.7705 53.4559 41.9464 53.2801C42.1222 53.1043 42.221 52.8659 42.221 52.6172C42.221 52.3685 42.1222 52.13 41.9464 51.9543C41.7705 51.7785 41.5322 51.6797 41.2835 51.6797H34.2144C34.3391 51.0807 34.5843 50.5133 34.9349 50.012C35.2855 49.5107 35.7345 49.0859 36.2543 48.7632L39.9427 46.458C40.8352 45.9001 41.5219 45.0669 41.899 44.0843C42.2762 43.1016 42.3232 42.0229 42.033 41.0112C41.7429 39.9994 41.1313 39.1096 40.2907 38.4761C39.45 37.8427 38.4261 37.5 37.3736 37.5H37.0908C35.8056 37.5014 34.5735 38.0127 33.6647 38.9214C32.7559 39.8302 32.2447 41.0623 32.2433 42.3475V43.5016C32.2433 43.7503 32.3421 43.9888 32.5179 44.1646C32.6937 44.3404 32.9321 44.4391 33.1808 44.4391C33.4295 44.4391 33.6678 44.3404 33.8437 44.1646C34.0195 43.9888 34.1183 43.7503 34.1183 43.5016V42.3475C34.1191 41.5594 34.4326 40.8039 34.9898 40.2465C35.5472 39.6893 36.3027 39.3758 37.0908 39.375H37.3736C38.0189 39.375 38.6468 39.5851 39.1623 39.9736C39.6777 40.362 40.0527 40.9076 40.2307 41.528C40.4086 42.1485 40.3798 42.8099 40.1486 43.4125C39.9172 44.015 39.4962 44.526 38.9489 44.868Z"/>
        <path d="M51.4117 37.5H48.3733C48.1899 37.5 48.0105 37.5539 47.8573 37.6548C47.704 37.7558 47.5839 37.8996 47.5116 38.0682L44.473 45.1581C44.423 45.2748 44.3972 45.4004 44.3972 45.5273V47.553C44.3972 47.8017 44.496 48.0402 44.6719 48.216C44.8477 48.3918 45.0862 48.4905 45.3347 48.4905H50.4742V52.6172C50.4742 52.8659 50.573 53.1043 50.7489 53.2801C50.9247 53.4559 51.1632 53.5547 51.4117 53.5547C51.6604 53.5547 51.8989 53.4559 52.0746 53.2801C52.2505 53.1043 52.3492 52.8659 52.3492 52.6172V48.4905H53.4374C53.6861 48.4905 53.9246 48.3918 54.1003 48.216C54.2762 48.0402 54.3749 47.8017 54.3749 47.553C54.3749 47.3044 54.2762 47.0659 54.1003 46.8901C53.9246 46.7143 53.6861 46.6155 53.4374 46.6155H52.3492V38.4375C52.3492 38.1888 52.2505 37.9504 52.0746 37.7746C51.8989 37.5988 51.6604 37.5 51.4117 37.5ZM50.4742 46.6155H46.2722V45.7198L48.9914 39.375H50.4742V46.6155Z"/>
        <path d="M21.8371 36.8371C21.75 36.9241 21.681 37.0275 21.6339 37.1412C21.5868 37.255 21.5625 37.3768 21.5625 37.5C21.5625 37.6232 21.5868 37.745 21.6339 37.8588C21.681 37.9725 21.75 38.0759 21.8371 38.1629C21.9241 38.25 22.0275 38.319 22.1413 38.3661C22.255 38.4132 22.377 38.4375 22.5 38.4375C22.6232 38.4375 22.745 38.4132 22.8588 38.3661C22.9725 38.319 23.0759 38.25 23.1629 38.1629L28.7879 32.5379C29.1326 32.703 29.5072 32.7962 29.889 32.8117C30.2709 32.8272 30.6519 32.7647 31.0087 32.628C31.3656 32.4914 31.6909 32.2835 31.9648 32.017C32.2386 31.7504 32.4553 31.4309 32.6016 31.0779C32.7478 30.7248 32.8206 30.3457 32.8154 29.9636C32.8103 29.5814 32.7273 29.2044 32.5716 28.8554C32.4158 28.5064 32.1906 28.1929 31.9097 27.9339C31.6288 27.6748 31.298 27.4757 30.9375 27.3488V13.125C30.9375 12.8763 30.8387 12.6379 30.6629 12.4621C30.4872 12.2863 30.2487 12.1875 30 12.1875C29.7513 12.1875 29.513 12.2863 29.3371 12.4621C29.1613 12.6379 29.0625 12.8763 29.0625 13.125V27.3488C28.6907 27.4801 28.3506 27.6881 28.0644 27.9595C27.7782 28.2308 27.5524 28.5593 27.4015 28.9236C27.2505 29.288 27.178 29.6801 27.1886 30.0743C27.199 30.4684 27.2924 30.8561 27.4624 31.2118L21.8371 36.8371ZM30 29.0625C30.1854 29.0625 30.3667 29.1175 30.5209 29.2205C30.675 29.3235 30.7952 29.47 30.8661 29.6413C30.9371 29.8125 30.9557 30.0011 30.9195 30.1829C30.8834 30.3648 30.7941 30.5318 30.6629 30.6629C30.5318 30.7941 30.3648 30.8834 30.1829 30.9195C30.0011 30.9557 29.8126 30.9371 29.6413 30.8661C29.47 30.7952 29.3236 30.675 29.2205 30.5209C29.1175 30.3667 29.0625 30.1854 29.0625 30C29.0629 29.7514 29.1616 29.5132 29.3374 29.3374C29.5132 29.1616 29.7514 29.0627 30 29.0625Z"/>
        <path d="M55.2723 31.4464C55.1852 31.3594 55.0819 31.2904 54.9681 31.2432C54.8544 31.1961 54.7324 31.1719 54.6094 31.1719C54.4862 31.1719 54.3643 31.1961 54.2505 31.2432C54.1369 31.2904 54.0335 31.3594 53.9464 31.4464L53.3473 32.0456C53.4058 31.3659 53.4375 30.6834 53.4375 30C53.4375 17.0766 42.9234 6.5625 30 6.5625C17.0766 6.5625 6.56247 17.0766 6.56247 30C6.55265 33.5643 7.36035 37.0832 8.92348 40.2864C10.4866 43.4896 12.7635 46.2916 15.5791 48.4771C15.676 48.5537 15.7871 48.6103 15.9061 48.6438C16.0249 48.6773 16.1492 48.6871 16.2719 48.6723C16.3946 48.6577 16.5131 48.6189 16.6207 48.5582C16.7284 48.4975 16.823 48.4161 16.899 48.3189C16.9751 48.2215 17.0311 48.11 17.064 47.991C17.0969 47.8719 17.106 47.7476 17.0906 47.625C17.0753 47.5024 17.0358 47.3841 16.9746 47.2767C16.9133 47.1695 16.8315 47.0754 16.7338 46.9998C14.1432 44.9891 12.0483 42.4111 10.6101 39.4641C9.17181 36.5169 8.42857 33.2793 8.43747 30C8.43747 18.1104 18.1104 8.4375 30 8.4375C41.8896 8.4375 51.5625 18.1104 51.5625 30C51.5625 30.7575 51.523 31.5145 51.4444 32.2679L50.6826 31.2101C50.5362 31.0113 50.3173 30.8783 50.0734 30.84C49.8295 30.8017 49.5804 30.8611 49.3801 31.0054C49.1797 31.1495 49.0444 31.367 49.0033 31.6104C48.9623 31.8539 49.0191 32.1036 49.1611 32.3055L51.165 35.0882C51.2412 35.2504 51.3624 35.3872 51.5143 35.4824C51.6663 35.5775 51.8423 35.6269 52.0216 35.6246C52.025 35.6246 52.0284 35.6246 52.0317 35.6246C52.1548 35.6246 52.2767 35.6004 52.3904 35.5533C52.5042 35.5062 52.6076 35.4371 52.6946 35.3501L55.2728 32.772C55.4484 32.5961 55.547 32.3577 55.547 32.1091C55.5469 31.8606 55.4481 31.6222 55.2723 31.4464Z"/>
        <path d="M49.5902 28.0323C49.1692 23.8527 47.4232 19.917 44.6069 16.8001C41.7908 13.683 38.0519 11.5479 33.9363 10.7062C33.6927 10.6568 33.4393 10.7062 33.232 10.8435C33.0248 10.9809 32.8806 11.1949 32.8311 11.4386C32.7817 11.6823 32.831 11.9356 32.9683 12.1429C33.1057 12.3501 33.3198 12.4944 33.5634 12.5438C37.2864 13.3057 40.6684 15.2374 43.2159 18.057C45.7635 20.8767 47.343 24.4369 47.7244 28.2177C47.7473 28.4489 47.8554 28.6635 48.0276 28.8195C48.1998 28.9756 48.4237 29.0622 48.6561 29.0625C48.6874 29.0625 48.7187 29.061 48.7499 29.0579C48.8724 29.0457 48.9914 29.0096 49.0999 28.9515C49.2084 28.8934 49.3045 28.8144 49.3826 28.7191C49.4606 28.624 49.5191 28.5143 49.5547 28.3964C49.5903 28.2785 49.6024 28.1549 49.5902 28.0323Z"/>
	</symbol>
    <symbol id="router" viewBox="0 0 70 70">
        <path d="M15.2396 31.3542C15.1864 31.3611 15.1325 31.3611 15.0792 31.3542C14.9509 31.3247 14.833 31.2609 14.738 31.1698C14.643 31.0786 14.5745 30.9635 14.5396 30.8365L10.4198 15.6844C10.2265 14.9892 10.3172 14.2456 10.672 13.6173C11.0269 12.9889 11.6168 12.5273 12.312 12.3339C13.0073 12.1405 13.7508 12.2312 14.3792 12.5861C15.0075 12.9409 15.4692 13.5309 15.6626 14.2261L19.7824 29.3709C19.8183 29.4995 19.8183 29.6355 19.7823 29.764C19.7463 29.8926 19.6757 30.0089 19.5782 30.1C19.4824 30.19 19.364 30.2524 19.2357 30.2807C19.1073 30.3089 18.9737 30.3019 18.849 30.2605C18.317 30.0786 17.7421 30.0633 17.2011 30.2167C16.658 30.3631 16.1707 30.6677 15.8011 31.0917C15.7325 31.174 15.6467 31.2402 15.5496 31.2856C15.4526 31.331 15.3468 31.3544 15.2396 31.3542ZM13.0521 13.7011C12.9414 13.7022 12.8312 13.7169 12.724 13.7448C12.5611 13.787 12.4082 13.8614 12.2744 13.9635C12.1407 14.0657 12.0287 14.1936 11.9451 14.3397C11.8616 14.4857 11.8081 14.6471 11.7878 14.8142C11.7675 14.9813 11.7809 15.1507 11.8271 15.3126L15.648 29.3563C16.3738 28.8996 17.2189 28.6687 18.0761 28.6928L14.2553 14.6417C14.2108 14.4878 14.1364 14.3441 14.0363 14.219C13.9362 14.0939 13.8124 13.9897 13.6719 13.9126C13.4814 13.7924 13.2626 13.7245 13.0376 13.7157L13.0521 13.7011Z"/>
        <path d="M16.4573 41.9344C16.2927 41.9401 16.131 41.8898 15.9986 41.7918C15.8662 41.6938 15.7709 41.5539 15.7282 41.3948L13.7594 34.1032C13.5728 33.4181 13.5583 32.6975 13.7174 32.0054C13.8764 31.3134 14.2039 30.6714 14.6709 30.1365C15.2298 29.4942 15.9667 29.0321 16.7883 28.8089C17.61 28.5856 18.4794 28.6112 19.2865 28.8823C19.5557 28.9716 19.8147 29.0889 20.0594 29.2323C20.5542 29.5077 20.9881 29.8802 21.3352 30.3276C21.6823 30.7749 21.9354 31.2878 22.0792 31.8355L24.5657 40.9792C24.591 41.0716 24.598 41.1681 24.5861 41.2632C24.5741 41.3583 24.5436 41.4501 24.4962 41.5334C24.4488 41.6166 24.3855 41.6898 24.3098 41.7486C24.2342 41.8074 24.1477 41.8507 24.0553 41.8761C23.9629 41.9015 23.8664 41.9084 23.7713 41.8965C23.6762 41.8846 23.5844 41.854 23.5011 41.8066C23.4178 41.7592 23.3447 41.6959 23.2859 41.6202C23.2271 41.5446 23.1838 41.4581 23.1584 41.3657L20.6938 32.2511C20.5996 31.8878 20.4328 31.5474 20.2035 31.2504C19.9742 30.9534 19.687 30.706 19.3594 30.523C19.1896 30.4288 19.0114 30.3507 18.8271 30.2896C18.2995 30.1112 17.7303 30.0959 17.1938 30.2459C16.8322 30.3439 16.4935 30.5122 16.197 30.7412C15.9006 30.9701 15.6521 31.2553 15.4659 31.5803C15.2797 31.9054 15.1593 32.2639 15.1117 32.6355C15.0642 33.0071 15.0903 33.3844 15.1886 33.7459L17.1573 41.0375C17.1828 41.1299 17.1898 41.2265 17.1779 41.3216C17.166 41.4167 17.1355 41.5085 17.0881 41.5918C17.0407 41.6751 16.9773 41.7482 16.9016 41.807C16.8259 41.8658 16.7394 41.9091 16.6469 41.9344C16.5842 41.945 16.5201 41.945 16.4573 41.9344Z"/>
        <path d="M54.7604 31.3542C54.6556 31.3551 54.5519 31.3335 54.4563 31.2907C54.3607 31.2479 54.2754 31.185 54.2062 31.1063C53.8367 30.6823 53.3493 30.3777 52.8062 30.2313C52.2653 30.0779 51.6904 30.0932 51.1583 30.2751C51.0336 30.3165 50.9 30.3235 50.7717 30.2952C50.6433 30.267 50.525 30.2046 50.4292 30.1146C50.3316 30.0234 50.261 29.9072 50.225 29.7786C50.189 29.6501 50.189 29.5141 50.225 29.3855L54.3448 14.2407C54.5359 13.5471 54.9934 12.9571 55.6175 12.5993C56.2417 12.2414 56.982 12.1447 57.6771 12.3303C58.0221 12.4223 58.3454 12.5818 58.6285 12.7995C58.9116 13.0172 59.1487 13.2887 59.3263 13.5985C59.5039 13.9083 59.6185 14.2502 59.6633 14.6044C59.7081 14.9587 59.6823 15.3183 59.5875 15.6626L55.4604 30.8365C55.4256 30.9635 55.357 31.0786 55.262 31.1698C55.167 31.2609 55.0491 31.3247 54.9208 31.3542C54.8676 31.3611 54.8137 31.3611 54.7604 31.3542ZM52.0625 28.6709C52.4444 28.6711 52.8245 28.7226 53.1927 28.824C53.6031 28.9335 53.9942 29.1056 54.3521 29.3344L58.1729 15.3126C58.2503 15.07 58.2521 14.8096 58.1779 14.566C58.1038 14.3224 57.9573 14.1071 57.7578 13.9488C57.5583 13.7905 57.3154 13.6967 57.0613 13.6798C56.8073 13.6629 56.5541 13.7237 56.3354 13.8542C56.0501 14.0099 55.8378 14.272 55.7448 14.5834L51.9239 28.6855L52.0625 28.6709Z"/>
        <path d="M53.5427 41.9344C53.48 41.945 53.4159 41.945 53.3531 41.9344C53.2607 41.9091 53.1741 41.8658 53.0984 41.807C53.0227 41.7482 52.9594 41.6751 52.912 41.5918C52.8646 41.5085 52.834 41.4167 52.8222 41.3215C52.8103 41.2264 52.8173 41.1299 52.8427 41.0375L54.8115 33.7459C54.9098 33.3844 54.9359 33.0071 54.8883 32.6355C54.8407 32.2639 54.7204 31.9054 54.5342 31.5803C54.3479 31.2553 54.0995 30.9701 53.803 30.7411C53.5065 30.5122 53.1678 30.3439 52.8062 30.2459C52.2653 30.0924 51.6904 30.1077 51.1583 30.2896C50.9797 30.3532 50.8066 30.4313 50.6406 30.5229C50.313 30.7059 50.0259 30.9534 49.7966 31.2504C49.5672 31.5474 49.4004 31.8878 49.3063 32.2511L46.8635 41.3875C46.8052 41.5638 46.6818 41.7111 46.5186 41.7996C46.3553 41.888 46.1645 41.9108 45.985 41.8634C45.8055 41.816 45.6509 41.7018 45.5526 41.5443C45.4544 41.3868 45.4199 41.1977 45.4563 41.0156L47.899 31.8719C48.0426 31.3223 48.2954 30.8072 48.6424 30.3575C48.9895 29.9077 49.4235 29.5325 49.9188 29.2542C50.151 29.1203 50.3951 29.008 50.6479 28.9188C51.4562 28.6426 52.3285 28.6137 53.1532 28.8358C53.978 29.058 54.7178 29.5209 55.2781 30.1656C55.7451 30.7006 56.0726 31.3426 56.2316 32.0346C56.3907 32.7266 56.3762 33.4472 56.1896 34.1323L54.2208 41.424C54.1752 41.5692 54.0853 41.6965 53.9637 41.788C53.8421 41.8796 53.6949 41.9307 53.5427 41.9344Z"/>
        <path d="M2.18754 51.9239C1.99415 51.9239 1.80869 51.8471 1.67194 51.7103C1.5352 51.5736 1.45837 51.3881 1.45837 51.1947V51.0416C1.45837 50.8482 1.5352 50.6628 1.67194 50.526C1.80869 50.3893 1.99415 50.3124 2.18754 50.3124C2.29395 50.3111 2.39938 50.333 2.49641 50.3767C2.59344 50.4204 2.67973 50.4848 2.74922 50.5654C2.81871 50.646 2.86971 50.7409 2.89864 50.8433C2.92758 50.9457 2.93374 51.0532 2.91671 51.1583C2.92165 51.2571 2.90645 51.3558 2.87203 51.4485C2.8376 51.5412 2.78468 51.626 2.71647 51.6976C2.64826 51.7692 2.5662 51.8262 2.47527 51.8651C2.38434 51.904 2.28644 51.924 2.18754 51.9239Z"/>
        <path d="M67.8125 51.924C67.6191 51.924 67.4336 51.8472 67.2969 51.7105C67.1601 51.5737 67.0833 51.3882 67.0833 51.1949C67.0602 51.0872 67.0617 50.9756 67.0878 50.8686C67.1139 50.7616 67.164 50.6619 67.2341 50.577C67.3043 50.4921 67.3928 50.4242 67.4929 50.3784C67.5931 50.3326 67.7024 50.3101 67.8125 50.3126C68.0059 50.3126 68.1913 50.3894 68.3281 50.5261C68.4648 50.6629 68.5416 50.8483 68.5416 51.0417V51.1876C68.5426 51.2839 68.5245 51.3795 68.4882 51.4688C68.452 51.5581 68.3985 51.6394 68.3307 51.7079C68.2629 51.7764 68.1822 51.8307 68.0932 51.8678C68.0043 51.9049 67.9089 51.924 67.8125 51.924Z"/>
        <path d="M64.6844 57.7428H5.31566C4.29391 57.7428 3.31389 57.3374 2.59072 56.6156C1.86755 55.8938 1.46031 54.9145 1.45837 53.8928V51.1949C1.45837 51.0015 1.5352 50.816 1.67194 50.6793C1.80869 50.5425 1.99415 50.4657 2.18754 50.4657C2.38093 50.4657 2.56639 50.5425 2.70314 50.6793C2.83988 50.816 2.91671 51.0015 2.91671 51.1949C2.91671 51.3883 2.99353 51.5737 3.13027 51.7105C3.26702 51.8472 3.45249 51.924 3.64587 51.924H66.3541C66.5475 51.924 66.733 51.8472 66.8697 51.7105C67.0065 51.5737 67.0833 51.3883 67.0833 51.1949C67.0833 51.0015 67.1601 50.816 67.2969 50.6793C67.4336 50.5425 67.6191 50.4657 67.8125 50.4657C68.0059 50.4657 68.1913 50.5425 68.3281 50.6793C68.4648 50.816 68.5416 51.0015 68.5416 51.1949V53.8928C68.5397 54.9145 68.1325 55.8938 67.4093 56.6156C66.6861 57.3374 65.7061 57.7428 64.6844 57.7428ZM2.91671 53.273V53.8928C2.9167 54.2075 2.97881 54.5191 3.09946 54.8097C3.2201 55.1004 3.39692 55.3644 3.61978 55.5865C3.84264 55.8087 4.10716 55.9847 4.39817 56.1045C4.68918 56.2243 5.00097 56.2854 5.31566 56.2845H64.6844C64.999 56.2854 65.3108 56.2243 65.6018 56.1045C65.8929 55.9847 66.1574 55.8087 66.3802 55.5865C66.6031 55.3644 66.7799 55.1004 66.9006 54.8097C67.0212 54.5191 67.0833 54.2075 67.0833 53.8928V53.273C66.848 53.3502 66.6018 53.3896 66.3541 53.3897H3.64587C3.39817 53.3896 3.15206 53.3502 2.91671 53.273Z"/>
        <path d="M66.3541 53.3895H3.64582C3.06566 53.3895 2.50926 53.1591 2.09903 52.7488C1.68879 52.3386 1.45832 51.7822 1.45832 51.202C1.45107 51.1195 1.45107 51.0366 1.45832 50.9541C1.5217 50.3981 1.80212 49.8897 2.23853 49.5395L11.5281 41.9416C12.6964 40.9975 14.1531 40.4828 15.6552 40.4833H54.3447C55.8468 40.4828 57.3036 40.9975 58.4718 41.9416L67.7395 49.5249C67.9616 49.703 68.1457 49.9239 68.281 50.1743C68.4163 50.4248 68.4999 50.6999 68.527 50.9833C68.5343 51.0658 68.5343 51.1487 68.527 51.2312C68.5194 51.8038 68.2876 52.3505 67.8813 52.7541C67.475 53.1576 66.9267 53.3858 66.3541 53.3895ZM15.6552 41.9343C14.4889 41.9327 13.3579 42.3346 12.4541 43.0718L3.17915 50.6551C3.10715 50.7105 3.04686 50.7796 3.00179 50.8585C2.95673 50.9373 2.92779 51.0244 2.91665 51.1145C2.91665 51.1145 2.91665 51.1656 2.91665 51.1874C2.91665 51.3808 2.99348 51.5663 3.13022 51.703C3.26697 51.8398 3.45243 51.9166 3.64582 51.9166H66.3541C66.5475 51.9166 66.733 51.8398 66.8697 51.703C67.0064 51.5663 67.0833 51.3808 67.0833 51.1874C67.0754 51.0885 67.0474 50.9922 67.001 50.9044C66.9547 50.8166 66.8908 50.7393 66.8135 50.677L57.5458 43.0718C56.642 42.3346 55.511 41.9327 54.3447 41.9343H15.6552Z"/>
        <path d="M46.9074 21.0656C46.7161 21.0648 46.5327 20.9889 46.3969 20.8542C43.3737 17.8326 39.2744 16.1352 35.0001 16.1352C30.7257 16.1352 26.6264 17.8326 23.6032 20.8542C23.4666 20.99 23.2818 21.0662 23.0891 21.0662C22.8965 21.0662 22.7117 20.99 22.5751 20.8542C22.5067 20.7864 22.4525 20.7057 22.4155 20.6169C22.3784 20.528 22.3594 20.4327 22.3594 20.3364C22.3594 20.2402 22.3784 20.1449 22.4155 20.056C22.4525 19.9672 22.5067 19.8865 22.5751 19.8187C25.8724 16.5273 30.3411 14.6787 35.0001 14.6787C39.659 14.6787 44.1277 16.5273 47.4251 19.8187C47.5279 19.9207 47.598 20.051 47.6265 20.193C47.655 20.335 47.6406 20.4823 47.585 20.6161C47.5295 20.7498 47.4354 20.864 47.3147 20.9441C47.194 21.0241 47.0522 21.0665 46.9074 21.0656Z"/>
        <path d="M43.6625 24.3104C43.5666 24.3109 43.4714 24.2925 43.3826 24.2562C43.2937 24.2199 43.2129 24.1665 43.1448 24.0989C40.9834 21.9411 38.0541 20.7292 35 20.7292C31.9459 20.7292 29.0166 21.9411 26.8552 24.0989C26.7875 24.1672 26.7068 24.2215 26.618 24.2585C26.5291 24.2955 26.4338 24.3146 26.3375 24.3146C26.2413 24.3146 26.146 24.2955 26.0571 24.2585C25.9683 24.2215 25.8876 24.1672 25.8198 24.0989C25.684 23.9623 25.6078 23.7775 25.6078 23.5848C25.6078 23.3922 25.684 23.2074 25.8198 23.0708C28.2569 20.6405 31.5583 19.2758 35 19.2758C38.4418 19.2758 41.7431 20.6405 44.1802 23.0708C44.316 23.2074 44.3923 23.3922 44.3923 23.5848C44.3923 23.7775 44.316 23.9623 44.1802 24.0989C44.1121 24.1665 44.0313 24.2199 43.9425 24.2562C43.8536 24.2925 43.7585 24.3109 43.6625 24.3104Z"/>
        <path d="M40.4104 27.5624C40.2191 27.5616 40.0358 27.4857 39.9 27.351C38.5998 26.0526 36.8375 25.3233 35 25.3233C33.1625 25.3233 31.4002 26.0526 30.1 27.351C29.9634 27.4868 29.7786 27.563 29.5859 27.563C29.3933 27.563 29.2085 27.4868 29.0719 27.351C29.0035 27.2832 28.9493 27.2026 28.9123 27.1137C28.8753 27.0248 28.8562 26.9295 28.8562 26.8333C28.8562 26.737 28.8753 26.6417 28.9123 26.5529C28.9493 26.464 29.0035 26.3834 29.0719 26.3156C30.6462 24.7473 32.7779 23.8668 35 23.8668C37.2222 23.8668 39.3538 24.7473 40.9281 26.3156C41.031 26.4176 41.1011 26.5479 41.1296 26.6899C41.1581 26.8319 41.1436 26.9791 41.0881 27.1129C41.0326 27.2467 40.9384 27.3609 40.8177 27.4409C40.6971 27.521 40.5553 27.5633 40.4104 27.5624Z"/>
        <path d="M17.8645 45.1646H16.4937C16.3003 45.1646 16.1148 45.0878 15.9781 44.9511C15.8413 44.8143 15.7645 44.6289 15.7645 44.4355C15.7645 44.2421 15.8413 44.0566 15.9781 43.9199C16.1148 43.7831 16.3003 43.7063 16.4937 43.7063H17.8645C18.0579 43.7063 18.2434 43.7831 18.3801 43.9199C18.5169 44.0566 18.5937 44.2421 18.5937 44.4355C18.5937 44.6289 18.5169 44.8143 18.3801 44.9511C18.2434 45.0878 18.0579 45.1646 17.8645 45.1646Z"/>
        <path d="M22.7864 45.1646H21.4156C21.2222 45.1646 21.0367 45.0878 20.9 44.9511C20.7632 44.8143 20.6864 44.6289 20.6864 44.4355C20.6864 44.2421 20.7632 44.0566 20.9 43.9199C21.0367 43.7831 21.2222 43.7063 21.4156 43.7063H22.7864C22.9798 43.7063 23.1653 43.7831 23.302 43.9199C23.4387 44.0566 23.5156 44.2421 23.5156 44.4355C23.5156 44.6289 23.4387 44.8143 23.302 44.9511C23.1653 45.0878 22.9798 45.1646 22.7864 45.1646Z"/>
        <path d="M27.7083 45.1646H26.3374C26.1441 45.1646 25.9586 45.0878 25.8218 44.9511C25.6851 44.8143 25.6083 44.6289 25.6083 44.4355C25.6083 44.2421 25.6851 44.0566 25.8218 43.9199C25.9586 43.7831 26.1441 43.7063 26.3374 43.7063H27.7083C27.9017 43.7063 28.0871 43.7831 28.2239 43.9199C28.3606 44.0566 28.4374 44.2421 28.4374 44.4355C28.4374 44.6289 28.3606 44.8143 28.2239 44.9511C28.0871 45.0878 27.9017 45.1646 27.7083 45.1646Z"/>
	</symbol>
    <symbol id="hand-wifi" viewBox="0 0 64 64">
        <path d="M60.46 44.81C59.9147 43.7567 59.0073 42.9358 57.9048 42.4985C56.8024 42.0612 55.579 42.0368 54.46 42.43L44.91 45.8C44.9734 45.4906 45.0069 45.1758 45.01 44.86C45.01 43.6576 44.5331 42.5044 43.6838 41.6532C42.8346 40.8021 41.6823 40.3226 40.48 40.32H36.93C33.755 40.3168 30.6284 39.5411 27.82 38.06C24.7366 36.4358 21.305 35.5847 17.82 35.58H12.15C11.8491 34.4964 11.1665 33.5582 10.2281 32.9384C9.28965 32.3186 8.15877 32.0591 7.04404 32.2078C5.92931 32.3564 4.90593 32.9031 4.16269 33.7471C3.41945 34.5911 3.0065 35.6754 3 36.8V54.4C3.00549 55.5315 3.42254 56.6225 4.17331 57.4691C4.92409 58.3158 5.95729 58.8603 7.08008 59.0011C8.20288 59.1419 9.33855 58.8694 10.2751 58.2343C11.2117 57.5993 11.8853 56.6451 12.17 55.55C14.1957 55.6248 16.1983 56.0058 18.11 56.68L23.64 58.62C29.9114 60.8307 36.7838 60.6094 42.9 58L58 51.54C58.6173 51.2764 59.1737 50.8885 59.6346 50.4005C60.0955 49.9125 60.451 49.3349 60.6789 48.7035C60.9069 48.0722 61.0024 47.4007 60.9596 46.7309C60.9168 46.061 60.7365 45.4071 60.43 44.81H60.46ZM10.33 54.4C10.2884 55.0785 9.98953 55.7157 9.49432 56.1815C8.9991 56.6473 8.34485 56.9066 7.665 56.9066C6.98514 56.9066 6.3309 56.6473 5.83568 56.1815C5.34046 55.7157 5.04159 55.0785 5 54.4V36.8C5.04159 36.1214 5.34046 35.4842 5.83568 35.0184C6.3309 34.5526 6.98514 34.2933 7.665 34.2933C8.34485 34.2933 8.9991 34.5526 9.49432 35.0184C9.98953 35.4842 10.2884 36.1214 10.33 36.8V54.4ZM58.83 48C58.6966 48.3753 58.4862 48.7186 58.2124 49.0079C57.9386 49.2972 57.6074 49.5261 57.24 49.68L42.11 56.16C36.4567 58.5668 30.108 58.7736 24.31 56.74L18.77 54.74C16.6979 54.0068 14.5265 53.592 12.33 53.51V37.51H17.79C20.9611 37.5097 24.0845 38.2819 26.89 39.76C29.9728 41.3869 33.4043 42.2413 36.89 42.25H40.44C40.9539 42.2531 41.4548 42.4121 41.8765 42.706C42.2982 42.9998 42.6208 43.4147 42.8017 43.8957C42.9827 44.3768 43.0134 44.9014 42.8899 45.4003C42.7664 45.8992 42.4945 46.3489 42.11 46.69C40.8199 47.1199 39.4698 47.3427 38.11 47.35H28.53C28.2648 47.35 28.0104 47.4553 27.8229 47.6429C27.6354 47.8304 27.53 48.0847 27.53 48.35C27.53 48.6152 27.6354 48.8695 27.8229 49.0571C28.0104 49.2446 28.2648 49.35 28.53 49.35H38.1C39.7685 49.3524 41.4254 49.0718 43 48.52L55.15 44.25C55.6705 44.0623 56.2339 44.028 56.7733 44.1511C57.3127 44.2742 57.8055 44.5495 58.193 44.9444C58.5805 45.3393 58.8465 45.8372 58.9595 46.3788C59.0724 46.9204 59.0274 47.4831 58.83 48Z"/>
        <path d="M25.7099 12.77C30.1793 8.33871 36.2226 5.85906 42.5164 5.87406C48.8102 5.88905 54.8416 8.39746 59.2899 12.85C59.4728 13.0263 59.7159 13.1264 59.9699 13.13C60.1719 13.1334 60.3702 13.0755 60.5386 12.964C60.7071 12.8524 60.8378 12.6925 60.9136 12.5052C60.9894 12.318 61.0066 12.1121 60.9631 11.9148C60.9196 11.7175 60.8174 11.5381 60.6699 11.4C55.8371 6.59169 49.2972 3.89246 42.4799 3.89246C35.6626 3.89246 29.1227 6.59169 24.2899 11.4C24.1036 11.5874 23.9991 11.8408 23.9991 12.105C23.9991 12.3692 24.1036 12.6226 24.2899 12.81C24.3855 12.9012 24.4982 12.9725 24.6215 13.0199C24.7448 13.0672 24.8762 13.0897 25.0082 13.086C25.1403 13.0823 25.2702 13.0524 25.3907 12.9982C25.5111 12.944 25.6196 12.8664 25.7099 12.77Z"/>
        <path d="M50.16 22.94C50.362 22.9434 50.5603 22.8855 50.7287 22.774C50.8972 22.6624 51.0279 22.5025 51.1037 22.3152C51.1795 22.128 51.1967 21.9221 51.1532 21.7248C51.1097 21.5275 51.0075 21.3481 50.86 21.21C48.6382 18.9958 45.632 17.7483 42.4953 17.7389C39.3585 17.7296 36.345 18.9591 34.11 21.16C34.0047 21.2489 33.919 21.3586 33.8581 21.4823C33.7973 21.6059 33.7626 21.7408 33.7563 21.8784C33.7501 22.0161 33.7723 22.1535 33.8217 22.2822C33.871 22.4108 33.9465 22.5279 34.0432 22.626C34.1399 22.7241 34.2559 22.8012 34.3839 22.8524C34.5118 22.9036 34.6489 22.9278 34.7866 22.9234C34.9244 22.9191 35.0597 22.8864 35.1842 22.8273C35.3087 22.7682 35.4196 22.684 35.51 22.58C37.3784 20.7366 39.9019 19.7098 42.5265 19.7248C45.1512 19.7398 47.6627 20.7954 49.51 22.66C49.6853 22.8295 49.9164 22.929 50.16 22.94Z"/>
        <path d="M39.0001 26.1101C38.3112 26.8018 37.8426 27.6819 37.6536 28.6397C37.4646 29.5974 37.5635 30.5897 37.938 31.4912C38.3125 32.3927 38.9457 33.1632 39.7576 33.7052C40.5696 34.2471 41.5239 34.5363 42.5001 34.5363C43.4763 34.5363 44.4306 34.2471 45.2426 33.7052C46.0545 33.1632 46.6877 32.3927 47.0622 31.4912C47.4367 30.5897 47.5356 29.5974 47.3466 28.6397C47.1576 27.6819 46.689 26.8018 46.0001 26.1101C45.5411 25.6494 44.9957 25.2837 44.3951 25.0343C43.7944 24.7848 43.1505 24.6562 42.5001 24.6562C41.8497 24.6562 41.2058 24.7848 40.6051 25.0343C40.0045 25.2837 39.4591 25.6494 39.0001 26.1101ZM44.5701 27.5301C45.1049 28.0886 45.4034 28.8318 45.4034 29.605C45.4034 30.3783 45.1049 31.1216 44.5701 31.68C44.0112 32.2178 43.2657 32.5182 42.4901 32.5182C41.7145 32.5182 40.969 32.2178 40.4101 31.68C39.8926 31.122 39.6118 30.3848 39.6266 29.6239C39.6415 28.8629 39.9509 28.1374 40.4897 27.5998C41.0285 27.0623 41.7548 26.7547 42.5158 26.7416C43.2768 26.7286 44.0132 27.0113 44.5701 27.5301Z"/>
        <path d="M55.1 18.05C54.9677 18.0494 54.8368 18.0226 54.7149 17.9711C54.5931 17.9196 54.4826 17.8445 54.39 17.75C52.836 16.1797 50.9856 14.9335 48.9463 14.0838C46.907 13.2341 44.7193 12.7977 42.51 12.8C40.3105 12.7914 38.1311 13.2182 36.0973 14.0557C34.0635 14.8933 32.2156 16.125 30.66 17.68C30.4717 17.867 30.2168 17.9715 29.9515 17.9705C29.6861 17.9696 29.432 17.8633 29.245 17.675C29.058 17.4867 28.9535 17.2318 28.9544 16.9664C28.9554 16.7011 29.0617 16.447 29.25 16.26C32.7553 12.7606 37.5069 10.7967 42.46 10.8C44.9403 10.7894 47.3978 11.274 49.6884 12.2253C51.9791 13.1766 54.0569 14.5754 55.8 16.34C55.8937 16.4329 55.9681 16.5435 56.0189 16.6654C56.0697 16.7873 56.0958 16.918 56.0958 17.05C56.0958 17.182 56.0697 17.3127 56.0189 17.4345C55.9681 17.5564 55.8937 17.667 55.8 17.76C55.6137 17.9447 55.3623 18.0489 55.1 18.05Z"/>
	</symbol>
    <symbol id="arrow" viewBox="0 0 60 60">
        <path d="M50.9099 31.7674C51.3786 31.2986 51.6418 30.6628 51.6418 29.9999C51.6418 29.337 51.3786 28.7012 50.9099 28.2324L36.7674 14.0899C36.5368 13.8511 36.2609 13.6606 35.9559 13.5296C35.6509 13.3986 35.3228 13.3296 34.9909 13.3268C34.6589 13.3239 34.3297 13.3871 34.0225 13.5128C33.7153 13.6385 33.4361 13.8242 33.2014 14.0589C32.9667 14.2936 32.781 14.5728 32.6553 14.88C32.5296 15.1872 32.4664 15.5164 32.4693 15.8484C32.4721 16.1803 32.5411 16.5084 32.6721 16.8134C32.8031 17.1184 32.9936 17.3943 33.2324 17.6249L43.1074 27.4999H9.99988C9.33684 27.4999 8.70095 27.7633 8.23211 28.2321C7.76327 28.701 7.49988 29.3368 7.49988 29.9999C7.49988 30.6629 7.76327 31.2988 8.23211 31.7676C8.70095 32.2365 9.33684 32.4999 9.99988 32.4999H43.1074L33.2324 42.3749C32.777 42.8464 32.525 43.4779 32.5307 44.1334C32.5364 44.7889 32.7993 45.4159 33.2628 45.8794C33.7264 46.3429 34.3534 46.6059 35.0089 46.6116C35.6644 46.6173 36.2959 46.3653 36.7674 45.9099L50.9099 31.7674Z"/>
	</symbol>
    <symbol id="star" viewBox="0 0 26 26">
        <path d="M13 18.7147L8.50416 21.423C8.30555 21.5494 8.09791 21.6036 7.88124 21.5855C7.66457 21.5675 7.47499 21.4953 7.31249 21.3689C7.14999 21.2425 7.0236 21.0847 6.93332 20.8955C6.84305 20.7062 6.82499 20.4939 6.87916 20.2585L8.07082 15.1397L4.08957 11.7001C3.90902 11.5376 3.79635 11.3524 3.75157 11.1444C3.7068 10.9364 3.72016 10.7334 3.79166 10.5355C3.86316 10.3377 3.97149 10.1752 4.11666 10.048C4.26182 9.92094 4.46043 9.83969 4.71249 9.8043L9.96666 9.34388L11.9979 4.52305C12.0882 4.30638 12.2283 4.14388 12.4182 4.03555C12.6082 3.92721 12.8021 3.87305 13 3.87305C13.1979 3.87305 13.3918 3.92721 13.5817 4.03555C13.7717 4.14388 13.9118 4.30638 14.0021 4.52305L16.0333 9.34388L21.2875 9.8043C21.5403 9.84041 21.7389 9.92166 21.8833 10.048C22.0278 10.1744 22.1361 10.3369 22.2083 10.5355C22.2805 10.7342 22.2943 10.9375 22.2495 11.1455C22.2047 11.3535 22.0917 11.5384 21.9104 11.7001L17.9292 15.1397L19.1208 20.2585C19.175 20.4932 19.1569 20.7055 19.0667 20.8955C18.9764 21.0854 18.85 21.2432 18.6875 21.3689C18.525 21.4945 18.3354 21.5668 18.1187 21.5855C17.9021 21.6043 17.6944 21.5502 17.4958 21.423L13 18.7147Z" fill="#F2B91C"/>
	</symbol>
    <symbol id="camera-wifi" viewBox="0 0 64 64">
        <path d="M52.9999 21.25C53 18.2589 52.3589 15.3025 51.1199 12.58H55.6199C55.8851 12.58 56.1395 12.4746 56.327 12.2871C56.5145 12.0996 56.6199 11.8452 56.6199 11.58V4C56.6199 3.73478 56.5145 3.48043 56.327 3.29289C56.1395 3.10536 55.8851 3 55.6199 3H8.37988C8.11467 3 7.86031 3.10536 7.67278 3.29289C7.48524 3.48043 7.37988 3.73478 7.37988 4V11.58C7.37988 11.8452 7.48524 12.0996 7.67278 12.2871C7.86031 12.4746 8.11467 12.58 8.37988 12.58H12.8799C11.5831 15.4349 10.9422 18.5439 11.004 21.6789C11.0658 24.8139 11.8289 27.8952 13.2372 30.6967C14.6455 33.4983 16.6633 35.9488 19.1425 37.8686C21.6217 39.7884 24.4993 41.1286 27.5642 41.791C30.629 42.4533 33.8033 42.4209 36.8539 41.6961C39.9046 40.9713 42.7543 39.5726 45.1937 37.6026C47.6332 35.6326 49.6005 33.1413 50.9513 30.3116C52.3021 27.4819 53.0021 24.3856 52.9999 21.25ZM9.37988 10.58V5H54.6199V10.58H9.37988ZM31.9999 40.25C29.8896 40.25 27.8266 39.6242 26.072 38.4518C24.3173 37.2793 22.9497 35.6129 22.1421 33.6632C21.3345 31.7135 21.1232 29.5682 21.5349 27.4984C21.9466 25.4286 22.9629 23.5274 24.4551 22.0352C25.9473 20.5429 27.8485 19.5267 29.9183 19.115C31.9881 18.7033 34.1334 18.9146 36.0831 19.7222C38.0328 20.5298 39.6992 21.8974 40.8717 23.6521C42.0441 25.4067 42.6699 27.4697 42.6699 29.58C42.6646 32.4082 41.5388 35.1191 39.5389 37.119C37.539 39.1189 34.8281 40.2447 31.9999 40.25ZM41.7599 37.52C43.6612 35.3141 44.6955 32.4921 44.6699 29.58C44.6699 26.2197 43.335 22.997 40.9589 20.621C38.5829 18.2449 35.3602 16.91 31.9999 16.91C28.6396 16.91 25.4169 18.2449 23.0409 20.621C20.6648 22.997 19.3299 26.2197 19.3299 29.58C19.321 32.6259 20.4973 35.5558 22.6099 37.75C19.6944 36.0926 17.2695 33.6929 15.5816 30.7949C13.8937 27.8969 13.003 24.6037 12.9999 21.25C12.9969 18.2325 13.7206 15.2587 15.1099 12.58H48.8899C50.2792 15.2587 51.0029 18.2325 50.9999 21.25C50.9944 24.5287 50.1406 27.7502 48.5215 30.6012C46.9023 33.4523 44.573 35.8358 41.7599 37.52Z"/>
        <path d="M32 20.5901C30.22 20.5901 28.4799 21.1179 26.9999 22.1069C25.5198 23.0958 24.3663 24.5014 23.6851 26.1459C23.0039 27.7905 22.8257 29.6001 23.1729 31.3459C23.5202 33.0917 24.3774 34.6954 25.636 35.954C26.8947 37.2127 28.4984 38.0699 30.2442 38.4172C31.99 38.7644 33.7996 38.5862 35.4442 37.905C37.0887 37.2238 38.4943 36.0703 39.4832 34.5902C40.4722 33.1102 41 31.3701 41 29.5901C41 27.2031 40.0518 24.914 38.364 23.2261C36.6761 21.5383 34.387 20.5901 32 20.5901ZM32 36.5901C30.6155 36.5901 29.2622 36.1795 28.111 35.4104C26.9599 34.6412 26.0627 33.548 25.5328 32.2689C25.003 30.9898 24.8644 29.5823 25.1345 28.2245C25.4046 26.8666 26.0713 25.6193 27.0503 24.6403C28.0292 23.6614 29.2765 22.9947 30.6344 22.7246C31.9922 22.4545 33.3997 22.5931 34.6788 23.1229C35.9579 23.6527 37.0511 24.55 37.8203 25.7011C38.5895 26.8522 39 28.2056 39 29.5901C38.9974 31.4449 38.2587 33.2228 36.9462 34.5334C35.6338 35.844 33.8548 36.5801 32 36.5801V36.5901Z"/>
        <path d="M32 24.1699C31.7348 24.1699 31.4804 24.2753 31.2929 24.4628C31.1054 24.6504 31 24.9047 31 25.1699C31 25.4351 31.1054 25.6895 31.2929 25.877C31.4804 26.0646 31.7348 26.1699 32 26.1699C32.9053 26.1699 33.7737 26.5289 34.4148 27.1681C35.0559 27.8073 35.4174 28.6746 35.42 29.5799C35.42 29.8451 35.5254 30.0995 35.7129 30.287C35.9004 30.4746 36.1548 30.5799 36.42 30.5799C36.6852 30.5799 36.9396 30.4746 37.1271 30.287C37.3146 30.0995 37.42 29.8451 37.42 29.5799C37.4173 28.1442 36.8451 26.7682 35.829 25.7539C34.8128 24.7396 33.4357 24.1699 32 24.1699Z"/>
        <path d="M59.9998 44.1499C59.7346 44.1499 59.4802 44.2553 59.2927 44.4428C59.1052 44.6303 58.9998 44.8847 58.9998 45.1499C58.9813 48.8278 57.5079 52.349 54.9016 54.9441C52.2953 57.5392 48.7678 58.9973 45.0898 58.9999C44.8246 58.9999 44.5702 59.1053 44.3827 59.2928C44.1952 59.4803 44.0898 59.7347 44.0898 59.9999C44.0898 60.2651 44.1952 60.5195 44.3827 60.707C44.5702 60.8945 44.8246 60.9999 45.0898 60.9999C49.299 60.9999 53.3367 59.3319 56.3187 56.3612C59.3007 53.3905 60.9839 49.3591 60.9998 45.1499C60.9998 44.8847 60.8944 44.6303 60.7069 44.4428C60.5194 44.2553 60.265 44.1499 59.9998 44.1499Z"/>
        <path d="M45.1198 56.8299C48.2196 56.8247 51.1915 55.5937 53.3872 53.4055C55.5828 51.2174 56.824 48.2497 56.8398 45.1499C56.8398 44.8847 56.7344 44.6303 56.5469 44.4428C56.3594 44.2553 56.105 44.1499 55.8398 44.1499C55.5746 44.1499 55.3202 44.2553 55.1327 44.4428C54.9452 44.6303 54.8398 44.8847 54.8398 45.1499C54.8239 47.7254 53.7897 50.1899 51.963 52.0054C50.1362 53.821 47.6653 54.8399 45.0898 54.8399C44.8246 54.8399 44.5702 54.9453 44.3827 55.1328C44.1952 55.3203 44.0898 55.5747 44.0898 55.8399C44.0911 55.9729 44.1189 56.1044 44.1716 56.2266C44.2243 56.3487 44.3009 56.4591 44.3968 56.5513C44.4927 56.6435 44.6061 56.7156 44.7302 56.7635C44.8544 56.8113 44.9868 56.8339 45.1198 56.8299Z"/>
        <path d="M45.1198 52.6499C47.1127 52.6473 49.0241 51.8579 50.438 50.4534C51.8519 49.0488 52.654 47.1428 52.6698 45.1499C52.6698 44.8847 52.5644 44.6303 52.3769 44.4428C52.1894 44.2553 51.935 44.1499 51.6698 44.1499C51.4046 44.1499 51.1502 44.2553 50.9627 44.4428C50.7752 44.6303 50.6698 44.8847 50.6698 45.1499C50.654 46.6185 50.0588 48.0214 49.0138 49.0533C47.9687 50.0852 46.5584 50.6626 45.0898 50.6599C44.8246 50.6599 44.5702 50.7653 44.3827 50.9528C44.1952 51.1403 44.0898 51.3947 44.0898 51.6599C44.0911 51.7929 44.1189 51.9244 44.1716 52.0466C44.2243 52.1687 44.3009 52.2791 44.3968 52.3713C44.4927 52.4635 44.6061 52.5356 44.7302 52.5835C44.8544 52.6313 44.9868 52.6539 45.1198 52.6499Z"/>
        <path d="M48.49 45.12C48.49 44.4535 48.2924 43.8019 47.9221 43.2477C47.5518 42.6935 47.0254 42.2616 46.4096 42.0065C45.7939 41.7515 45.1163 41.6847 44.4625 41.8148C43.8088 41.9448 43.2084 42.2657 42.737 42.737C42.2657 43.2084 41.9448 43.8088 41.8148 44.4625C41.6847 45.1163 41.7515 45.7939 42.0065 46.4096C42.2616 47.0254 42.6935 47.5518 43.2477 47.9221C43.8019 48.2924 44.4535 48.49 45.12 48.49C46.0138 48.49 46.871 48.1349 47.5029 47.5029C48.1349 46.871 48.49 46.0138 48.49 45.12ZM43.75 45.12C43.75 44.849 43.8304 44.5842 43.9809 44.3589C44.1314 44.1336 44.3454 43.958 44.5957 43.8543C44.8461 43.7506 45.1215 43.7235 45.3873 43.7763C45.653 43.8292 45.8971 43.9597 46.0887 44.1513C46.2803 44.3429 46.4108 44.587 46.4637 44.8527C46.5165 45.1185 46.4894 45.3939 46.3857 45.6443C46.282 45.8946 46.1064 46.1086 45.8811 46.2591C45.6558 46.4097 45.391 46.49 45.12 46.49C44.7567 46.49 44.4082 46.3457 44.1513 46.0887C43.8943 45.8318 43.75 45.4833 43.75 45.12Z"/>
	</symbol>
    <symbol id="mobile-app" viewBox="0 0 36 60">
        <path fill-rule="evenodd" clip-rule="evenodd" d="M19.8957 43.1139H16.1042C15.8577 43.1139 15.6213 43.0151 15.4469 42.8393C15.2726 42.6634 15.1747 42.425 15.1747 42.1763V39.6857C14.4914 39.4836 13.8317 39.2078 13.2071 38.863L11.4609 40.6238C11.2866 40.7996 11.0502 40.8983 10.8038 40.8983C10.5573 40.8983 10.321 40.7996 10.1467 40.6238L7.4655 37.9203C7.29127 37.7445 7.1934 37.5061 7.1934 37.2575C7.1934 37.0089 7.29127 36.7705 7.4655 36.5947L9.21188 34.8333C8.86991 34.2033 8.59624 33.5379 8.39563 32.8487H5.9271C5.68057 32.8487 5.44414 32.75 5.26982 32.5741C5.09549 32.3983 4.99756 32.1598 4.99756 31.9112V28.0875C4.99756 27.8388 5.09549 27.6004 5.26982 27.4245C5.44414 27.2487 5.68057 27.1499 5.9271 27.1499H8.39563C8.59615 26.4608 8.86982 25.7955 9.21188 25.1656L7.4655 23.4048C7.29127 23.229 7.1934 22.9906 7.1934 22.742C7.1934 22.4934 7.29127 22.255 7.4655 22.0792L10.1467 19.3751C10.3243 19.2056 10.5596 19.1112 10.8041 19.1112C11.0486 19.1112 11.2838 19.2056 11.4615 19.3751L13.2076 21.1363C13.8322 20.7913 14.4919 20.5155 15.1753 20.3137V17.8234C15.1753 17.5748 15.2732 17.3363 15.4475 17.1605C15.6218 16.9846 15.8583 16.8859 16.1048 16.8859H19.8964C20.143 16.8859 20.3794 16.9846 20.5537 17.1605C20.728 17.3363 20.826 17.5748 20.826 17.8234V20.3133C21.5093 20.5153 22.169 20.7911 22.7936 21.1359L24.5393 19.3747C24.7168 19.2051 24.9519 19.1106 25.1964 19.1106C25.4409 19.1106 25.676 19.2051 25.8535 19.3747L28.5347 22.0788C28.621 22.1659 28.6895 22.2693 28.7363 22.3831C28.783 22.4968 28.8071 22.6188 28.8071 22.7419C28.8071 22.8651 28.783 22.987 28.7363 23.1008C28.6895 23.2146 28.621 23.3179 28.5347 23.405L26.7889 25.1658C27.1307 25.7959 27.4044 26.4611 27.6051 27.1502H30.0724C30.3189 27.1502 30.5553 27.249 30.7297 27.4248C30.904 27.6006 31.0019 27.8391 31.0019 28.0877V31.9116C31.0019 32.1603 30.904 32.3988 30.7297 32.5746C30.5553 32.7504 30.3189 32.8492 30.0724 32.8492H27.6039C27.4034 33.5384 27.13 34.2037 26.7882 34.8338L28.534 36.5952C28.6204 36.6821 28.6889 36.7854 28.7357 36.8991C28.7825 37.0128 28.8066 37.1346 28.8066 37.2577C28.8066 37.3808 28.7825 37.5027 28.7357 37.6164C28.6889 37.7301 28.6204 37.8334 28.534 37.9203L25.8528 40.6238C25.6785 40.7996 25.4422 40.8983 25.1957 40.8983C24.9492 40.8983 24.7129 40.7996 24.5386 40.6238L22.7929 38.863C22.1682 39.2079 21.5085 39.4839 20.8253 39.6863V42.1763C20.8253 42.425 20.7273 42.6634 20.553 42.8393C20.3787 43.0151 20.1423 43.1139 19.8957 43.1139ZM17.0337 41.2388H18.9662V38.9573C18.9662 38.7425 19.0393 38.5343 19.1734 38.3673C19.3074 38.2004 19.4942 38.085 19.7025 38.0403C20.6743 37.8322 21.5997 37.4451 22.4325 36.8986C22.6111 36.7817 22.824 36.7302 23.0358 36.7527C23.2475 36.7751 23.4452 36.8703 23.5958 37.0221L25.1963 38.6364L26.5625 37.2584L24.9621 35.6435C24.8114 35.4917 24.7169 35.2923 24.6946 35.0787C24.6723 34.8651 24.7235 34.6502 24.8396 34.4701C25.3818 33.6304 25.7656 32.6969 25.9716 31.7166C26.0158 31.5065 26.1303 31.3181 26.2958 31.1829C26.4613 31.0478 26.6678 30.974 26.8808 30.974H29.1428V29.0254H26.881C26.6681 29.0254 26.4615 28.9516 26.296 28.8164C26.1305 28.6813 26.0161 28.4928 25.9718 28.2827C25.7656 27.3028 25.3817 26.3697 24.8395 25.5303C24.7235 25.3501 24.6723 25.1352 24.6946 24.9215C24.7169 24.7078 24.8113 24.5083 24.962 24.3564L26.5624 22.742L25.196 21.3638L23.5955 22.9781C23.4451 23.1302 23.2474 23.2254 23.0356 23.2479C22.8237 23.2703 22.6107 23.2185 22.4322 23.1012C21.5997 22.5545 20.6742 22.1677 19.7023 21.9601C19.4939 21.9155 19.3072 21.8 19.1731 21.6331C19.0391 21.4662 18.966 21.2579 18.9659 21.0431V18.761H17.0337V21.0429C17.0336 21.2577 16.9605 21.4659 16.8265 21.6329C16.6925 21.7998 16.5057 21.9152 16.2973 21.9599C15.3256 22.1678 14.4003 22.5548 13.568 23.1016C13.3893 23.2187 13.1763 23.2704 12.9644 23.2479C12.7525 23.2255 12.5547 23.1304 12.4041 22.9784L10.8036 21.3638L9.43742 22.7422L11.0379 24.3565C11.1886 24.5084 11.2831 24.7079 11.3053 24.9216C11.3275 25.1354 11.2761 25.3503 11.1599 25.5304C10.6179 26.37 10.2342 27.3033 10.028 28.2833C9.98375 28.4934 9.86929 28.6818 9.70379 28.817C9.53829 28.9522 9.33178 29.026 9.11881 29.026H6.857V30.9749H9.11939C9.33236 30.9749 9.53887 31.0487 9.70437 31.1839C9.86987 31.3191 9.98433 31.5075 10.0286 31.7176C10.2346 32.698 10.6183 33.6317 11.1604 34.4716C11.2764 34.6517 11.3276 34.8665 11.3054 35.0801C11.2832 35.2937 11.1889 35.4931 11.0384 35.645L9.43799 37.2598L10.8036 38.6371L12.4042 37.0228C12.5547 36.871 12.7524 36.7758 12.9642 36.7534C13.1759 36.7309 13.3889 36.7824 13.5675 36.8993C14.4003 37.4456 15.3257 37.8324 16.2975 38.0404C16.5058 38.0851 16.6926 38.2005 16.8266 38.3674C16.9606 38.5344 17.0338 38.7427 17.0338 38.9575V41.2388H17.0337Z"/>
        <path d="M17.9992 35.9221C16.8399 35.922 15.7063 35.5752 14.7416 34.9251C13.7768 34.2749 13.0241 33.3502 12.5795 32.2676C12.1349 31.1849 12.0185 29.9933 12.2452 28.8437C12.4719 27.6941 13.0315 26.6387 13.8524 25.8107C14.6732 24.9828 15.7185 24.4195 16.8558 24.1913C17.9932 23.9631 19.1721 24.0802 20.2437 24.5279C21.3153 24.9756 22.2319 25.734 22.8772 26.708C23.5223 27.6819 23.867 28.8273 23.8671 29.9994C23.8655 31.5711 23.2457 33.0771 22.1452 34.1871C21.0447 35.297 19.5536 35.9205 17.9992 35.9221Z"/>
        <path fill-rule="evenodd" clip-rule="evenodd" d="M32.954 60H3.04696C2.23927 59.9991 1.46492 59.6751 0.893797 59.099C0.322674 58.523 0.00141086 57.742 0.000488281 56.9273V3.07283C0.00141086 2.25818 0.322674 1.47717 0.893797 0.901125C1.46492 0.325083 2.23927 0.0010526 3.04696 0.00012207H32.954C33.7617 0.0010526 34.5361 0.325083 35.1072 0.901125C35.6783 1.47717 35.9996 2.25818 36.0005 3.07283V56.9273C35.9995 57.7419 35.6782 58.5229 35.1071 59.0989C34.536 59.6749 33.7617 59.999 32.954 60ZM3.04696 1.87499C2.73207 1.87533 2.43018 2.00161 2.20748 2.22614C1.98478 2.45067 1.85946 2.75512 1.859 3.07271V56.9272C1.85937 57.2448 1.98466 57.5493 2.20738 57.7739C2.4301 57.9984 2.73205 58.1247 3.04696 58.1249H32.954C33.2688 58.1245 33.5707 57.9982 33.7933 57.7737C34.0159 57.5491 34.1411 57.2447 34.1414 56.9272V3.07271C34.1411 2.75518 34.0159 2.45075 33.7933 2.22621C33.5707 2.00167 33.2688 1.87536 32.954 1.87499H3.04696Z"/>
        <path fill-rule="evenodd" clip-rule="evenodd" d="M35.0703 51.2244H0.929545C0.683014 51.2244 0.44658 51.1257 0.272257 50.9498C0.0979332 50.774 0 50.5355 0 50.2869V9.71294C0 9.46429 0.0979332 9.22582 0.272257 9.04999C0.44658 8.87417 0.683014 8.77539 0.929545 8.77539H35.0698C35.3163 8.77539 35.5527 8.87417 35.727 9.04999C35.9014 9.22582 35.9993 9.46429 35.9993 9.71294V50.2872C35.9993 50.5359 35.9014 50.7744 35.727 50.9502C35.5527 51.126 35.3163 51.2248 35.0698 51.2248L35.0703 51.2244ZM1.85909 49.3493H34.1409V10.6505H1.85909V49.3493Z"/>
        <path fill-rule="evenodd" clip-rule="evenodd" d="M25.013 6.26255H10.8539C10.6073 6.26255 10.3709 6.16378 10.1966 5.98795C10.0222 5.81213 9.92432 5.57366 9.92432 5.325C9.92432 5.07635 10.0222 4.83788 10.1966 4.66205C10.3709 4.48623 10.6073 4.38745 10.8539 4.38745H25.013C25.2596 4.38745 25.496 4.48623 25.6703 4.66205C25.8447 4.83788 25.9426 5.07635 25.9426 5.325C25.9426 5.57366 25.8447 5.81213 25.6703 5.98795C25.496 6.16378 25.2596 6.26255 25.013 6.26255Z"/>
        <path fill-rule="evenodd" clip-rule="evenodd" d="M15.9209 55.412H20.08V53.9379H15.9209V55.412Z"/>
        <path d="M20.1787 56.7871H15.8225C15.8224 56.7871 15.8222 56.7871 15.8221 56.7871C15.4896 56.7867 15.17 56.6534 14.9336 56.4149C14.6969 56.1764 14.563 55.852 14.5625 55.5127V53.8375C14.5629 53.4982 14.6968 53.1737 14.9334 52.935C15.1699 52.6965 15.4895 52.5632 15.8221 52.5627H20.1788C20.5114 52.5631 20.8313 52.6964 21.0679 52.935C21.3046 53.1736 21.4386 53.4981 21.4391 53.8375C21.4391 53.8376 21.4391 53.8377 21.4391 53.8378V55.5123C21.4391 55.5124 21.4391 55.5125 21.4391 55.5126C21.4385 55.8519 21.3045 56.1763 21.0678 56.4149C20.8313 56.6533 20.5116 56.7867 20.1791 56.7871C20.179 56.7871 20.1789 56.7871 20.1787 56.7871Z"/>
	</symbol>
    <symbol id="devices" viewBox="0 0 64 64">
        <path d="M50 47H49V36C49 35.2044 48.6839 34.4413 48.1213 33.8787C47.5587 33.3161 46.7956 33 46 33C45.2044 33 44.4413 33.3161 43.8787 33.8787C43.3161 34.4413 43 35.2044 43 36V44C43 44.2652 43.1054 44.5196 43.2929 44.7071C43.4804 44.8946 43.7348 45 44 45C44.2652 45 44.5196 44.8946 44.7071 44.7071C44.8946 44.5196 45 44.2652 45 44V36C45 35.7348 45.1054 35.4804 45.2929 35.2929C45.4804 35.1054 45.7348 35 46 35C46.2652 35 46.5196 35.1054 46.7071 35.2929C46.8946 35.4804 47 35.7348 47 36V47H14V36C14 35.2044 13.6839 34.4413 13.1213 33.8787C12.5587 33.3161 11.7956 33 11 33C10.2044 33 9.44129 33.3161 8.87868 33.8787C8.31607 34.4413 8 35.2044 8 36V47H7C5.6744 47.0016 4.40356 47.5289 3.46622 48.4662C2.52888 49.4036 2.00159 50.6744 2 52C2 52.2652 2.10536 52.5196 2.29289 52.7071C2.48043 52.8946 2.73478 53 3 53C3.26522 53 3.51957 52.8946 3.70711 52.7071C3.89464 52.5196 4 52.2652 4 52C4 51.2044 4.31607 50.4413 4.87868 49.8787C5.44129 49.3161 6.20435 49 7 49H50C50.7956 49 51.5587 49.3161 52.1213 49.8787C52.6839 50.4413 53 51.2044 53 52C53 52.2652 53.1054 52.5196 53.2929 52.7071C53.4804 52.8946 53.7348 53 54 53C54.2652 53 54.5196 52.8946 54.7071 52.7071C54.8946 52.5196 55 52.2652 55 52C54.9984 50.6744 54.4711 49.4036 53.5338 48.4662C52.5964 47.5289 51.3256 47.0016 50 47ZM10 47V36C10 35.7348 10.1054 35.4804 10.2929 35.2929C10.4804 35.1054 10.7348 35 11 35C11.2652 35 11.5196 35.1054 11.7071 35.2929C11.8946 35.4804 12 35.7348 12 36V47H10Z"/>
        <path d="M54 56C53.7348 56 53.4804 56.1054 53.2929 56.2929C53.1054 56.4804 53 56.7348 53 57C53 57.7956 52.6839 58.5587 52.1213 59.1213C51.5587 59.6839 50.7956 60 50 60H7C6.20435 60 5.44129 59.6839 4.87868 59.1213C4.31607 58.5587 4 57.7956 4 57C4 56.7348 3.89464 56.4804 3.70711 56.2929C3.51957 56.1054 3.26522 56 3 56C2.73478 56 2.48043 56.1054 2.29289 56.2929C2.10536 56.4804 2 56.7348 2 57C2.00159 58.3256 2.52888 59.5964 3.46622 60.5338C4.40356 61.4711 5.6744 61.9984 7 62H50C51.3256 61.9984 52.5964 61.4711 53.5338 60.5338C54.4711 59.5964 54.9984 58.3256 55 57C55 56.7348 54.8946 56.4804 54.7071 56.2929C54.5196 56.1054 54.2652 56 54 56Z"/>
        <path d="M48 55C48 54.4067 47.8241 53.8266 47.4944 53.3333C47.1648 52.8399 46.6962 52.4554 46.148 52.2284C45.5999 52.0013 44.9967 51.9419 44.4147 52.0576C43.8328 52.1734 43.2982 52.4591 42.8787 52.8787C42.4591 53.2982 42.1734 53.8328 42.0576 54.4147C41.9419 54.9967 42.0013 55.5999 42.2284 56.148C42.4554 56.6962 42.8399 57.1648 43.3333 57.4944C43.8266 57.8241 44.4067 58 45 58C45.7957 58 46.5587 57.6839 47.1213 57.1213C47.6839 56.5587 48 55.7957 48 55ZM44 55C44 54.8022 44.0586 54.6089 44.1685 54.4444C44.2784 54.28 44.4346 54.1518 44.6173 54.0761C44.8 54.0004 45.0011 53.9806 45.1951 54.0192C45.3891 54.0578 45.5673 54.153 45.7071 54.2929C45.847 54.4327 45.9422 54.6109 45.9808 54.8049C46.0194 54.9989 45.9996 55.2 45.9239 55.3827C45.8482 55.5654 45.72 55.7216 45.5556 55.8315C45.3911 55.9414 45.1978 56 45 56C44.7348 56 44.4804 55.8946 44.2929 55.7071C44.1054 55.5196 44 55.2652 44 55Z"/>
        <path d="M40 55C40 54.7348 39.8946 54.4804 39.7071 54.2929C39.5196 54.1054 39.2652 54 39 54C38.7348 54 38.4804 54.1054 38.2929 54.2929C38.1054 54.4804 38 54.7348 38 55C38 55.2652 37.8946 55.5196 37.7071 55.7071C37.5196 55.8946 37.2652 56 37 56C36.7348 56 36.4804 55.8946 36.2929 55.7071C36.1054 55.5196 36 55.2652 36 55C36 54.7348 35.8946 54.4804 35.7071 54.2929C35.5196 54.1054 35.2652 54 35 54C34.7348 54 34.4804 54.1054 34.2929 54.2929C34.1054 54.4804 34 54.7348 34 55C34 55.7956 34.3161 56.5587 34.8787 57.1213C35.4413 57.6839 36.2044 58 37 58C37.7956 58 38.5587 57.6839 39.1213 57.1213C39.6839 56.5587 40 55.7956 40 55Z"/>
        <path d="M31 55C31 54.4067 30.8241 53.8266 30.4944 53.3333C30.1648 52.8399 29.6962 52.4554 29.1481 52.2284C28.5999 52.0013 27.9967 51.9419 27.4147 52.0576C26.8328 52.1734 26.2982 52.4591 25.8787 52.8787C25.4591 53.2982 25.1734 53.8328 25.0576 54.4147C24.9419 54.9967 25.0013 55.5999 25.2284 56.148C25.4554 56.6962 25.8399 57.1648 26.3333 57.4944C26.8266 57.8241 27.4067 58 28 58C28.7957 58 29.5587 57.6839 30.1213 57.1213C30.6839 56.5587 31 55.7957 31 55ZM27 55C27 54.8022 27.0586 54.6089 27.1685 54.4444C27.2784 54.28 27.4346 54.1518 27.6173 54.0761C27.8 54.0004 28.0011 53.9806 28.1951 54.0192C28.3891 54.0578 28.5673 54.153 28.7071 54.2929C28.847 54.4327 28.9422 54.6109 28.9808 54.8049C29.0194 54.9989 28.9996 55.2 28.9239 55.3827C28.8482 55.5654 28.72 55.7216 28.5556 55.8315C28.3911 55.9414 28.1978 56 28 56C27.7348 56 27.4804 55.8946 27.2929 55.7071C27.1054 55.5196 27 55.2652 27 55Z"/>
        <path d="M12 56C12.2652 56 12.5196 55.8946 12.7071 55.7071C12.8946 55.5196 13 55.2652 13 55C13 54.7348 12.8946 54.4804 12.7071 54.2929C12.5196 54.1054 12.2652 54 12 54H9C8.73478 54 8.48043 54.1054 8.29289 54.2929C8.10536 54.4804 8 54.7348 8 55C8 55.2652 8.10536 55.5196 8.29289 55.7071C8.48043 55.8946 8.73478 56 9 56H12Z"/>
        <path d="M20 56C20.2652 56 20.5196 55.8946 20.7071 55.7071C20.8946 55.5196 21 55.2652 21 55C21 54.7348 20.8946 54.4804 20.7071 54.2929C20.5196 54.1054 20.2652 54 20 54H17C16.7348 54 16.4804 54.1054 16.2929 54.2929C16.1054 54.4804 16 54.7348 16 55C16 55.2652 16.1054 55.5196 16.2929 55.7071C16.4804 55.8946 16.7348 56 17 56H20Z"/>
        <path d="M5 21H29C29.2652 21 29.5196 20.8946 29.7071 20.7071C29.8946 20.5196 30 20.2652 30 20C30 19.7348 29.8946 19.4804 29.7071 19.2929C29.5196 19.1054 29.2652 19 29 19H5C4.73478 19 4.48043 18.8946 4.29289 18.7071C4.10536 18.5196 4 18.2652 4 18C4 17.7348 4.10536 17.4804 4.29289 17.2929C4.48043 17.1054 4.73478 17 5 17H29C29.2652 17 29.5196 16.8946 29.7071 16.7071C29.8946 16.5196 30 16.2652 30 16C30 15.7348 29.8946 15.4804 29.7071 15.2929C29.5196 15.1054 29.2652 15 29 15H27V5C27 4.20435 26.6839 3.44129 26.1213 2.87868C25.5587 2.31607 24.7956 2 24 2H8C7.20435 2 6.44129 2.31607 5.87868 2.87868C5.31607 3.44129 5 4.20435 5 5V15C4.20435 15 3.44129 15.3161 2.87868 15.8787C2.31607 16.4413 2 17.2044 2 18C2 18.7956 2.31607 19.5587 2.87868 20.1213C3.44129 20.6839 4.20435 21 5 21ZM21.414 15L25 11.414V15H21.414ZM8 4H16.586L15.293 5.293C15.1975 5.38525 15.1213 5.49559 15.0689 5.6176C15.0165 5.7396 14.9889 5.87082 14.9877 6.0036C14.9866 6.13638 15.0119 6.26806 15.0622 6.39095C15.1125 6.51385 15.1867 6.6255 15.2806 6.7194C15.3745 6.81329 15.4861 6.88754 15.609 6.93782C15.7319 6.9881 15.8636 7.0134 15.9964 7.01225C16.1292 7.0111 16.2604 6.98351 16.3824 6.9311C16.5044 6.87869 16.6148 6.80251 16.707 6.707L19.414 4H24C24.2652 4 24.5196 4.10536 24.7071 4.29289C24.8946 4.48043 25 4.73478 25 5V8.586L18.586 15H8.414L13.707 9.707C13.8892 9.5184 13.99 9.2658 13.9877 9.0036C13.9854 8.7414 13.8802 8.49059 13.6948 8.30518C13.5094 8.11977 13.2586 8.0146 12.9964 8.01233C12.7342 8.01005 12.4816 8.11084 12.293 8.293L7 13.586V10.414L9.707 7.707C9.80251 7.61475 9.87869 7.50441 9.9311 7.3824C9.98351 7.2604 10.0111 7.12918 10.0123 6.9964C10.0134 6.86362 9.9881 6.73194 9.93782 6.60905C9.88754 6.48615 9.81329 6.3745 9.71939 6.2806C9.6255 6.18671 9.51385 6.11246 9.39095 6.06218C9.26806 6.0119 9.13638 5.9866 9.0036 5.98775C8.87082 5.9889 8.7396 6.01649 8.6176 6.0689C8.49559 6.12131 8.38525 6.19749 8.293 6.293L7 7.586V5C7 4.73478 7.10536 4.48043 7.29289 4.29289C7.48043 4.10536 7.73478 4 8 4Z"/>
        <path d="M57 2H51C49.6744 2.00159 48.4036 2.52888 47.4662 3.46622C46.5289 4.40356 46.0016 5.6744 46 7V23C46.0016 24.3256 46.5289 25.5964 47.4662 26.5338C48.4036 27.4711 49.6744 27.9984 51 28H57C58.3256 27.9984 59.5964 27.4711 60.5338 26.5338C61.4711 25.5964 61.9984 24.3256 62 23V7C61.9984 5.6744 61.4711 4.40356 60.5338 3.46622C59.5964 2.52888 58.3256 2.00159 57 2ZM51 4H56.586L55.293 5.293C55.1975 5.38525 55.1213 5.49559 55.0689 5.6176C55.0165 5.7396 54.9889 5.87082 54.9878 6.0036C54.9866 6.13638 55.0119 6.26806 55.0622 6.39095C55.1125 6.51385 55.1867 6.6255 55.2806 6.7194C55.3745 6.81329 55.4862 6.88754 55.609 6.93782C55.7319 6.9881 55.8636 7.0134 55.9964 7.01225C56.1292 7.0111 56.2604 6.98351 56.3824 6.9311C56.5044 6.87869 56.6148 6.80251 56.707 6.707L58.8 4.615C59.1714 4.89211 59.4732 5.2519 59.6815 5.66586C59.8898 6.07982 59.9988 6.53659 60 7V10.586L58.293 12.293C58.1975 12.3852 58.1213 12.4956 58.0689 12.6176C58.0165 12.7396 57.9889 12.8708 57.9878 13.0036C57.9866 13.1364 58.0119 13.2681 58.0622 13.391C58.1125 13.5139 58.1867 13.6255 58.2806 13.7194C58.3745 13.8133 58.4862 13.8875 58.609 13.9378C58.7319 13.9881 58.8636 14.0134 58.9964 14.0123C59.1292 14.0111 59.2604 13.9835 59.3824 13.9311C59.5044 13.8787 59.6148 13.8025 59.707 13.707L60 13.414V15.575L54.366 21H52.2L56.242 16.958C56.3375 16.8658 56.4137 16.7554 56.4661 16.6334C56.5185 16.5114 56.5461 16.3802 56.5472 16.2474C56.5484 16.1146 56.5231 15.9829 56.4728 15.86C56.4225 15.7372 56.3483 15.6255 56.2544 15.5316C56.1605 15.4377 56.0488 15.3635 55.926 15.3132C55.8031 15.2629 55.6714 15.2376 55.5386 15.2387C55.4058 15.2399 55.2746 15.2675 55.1526 15.3199C55.0306 15.3723 54.9202 15.4485 54.828 15.544L49.37 21H48V15.414L51.207 12.207C51.3892 12.0184 51.49 11.7658 51.4877 11.5036C51.4854 11.2414 51.3802 10.9906 51.1948 10.8052C51.0094 10.6198 50.7586 10.5146 50.4964 10.5123C50.2342 10.51 49.9816 10.6108 49.793 10.793L48 12.586V7C48 6.20435 48.3161 5.44129 48.8787 4.87868C49.4413 4.31607 50.2044 4 51 4ZM60 18.351V21H57.25L60 18.351ZM57 26H51C50.2044 26 49.4413 25.6839 48.8787 25.1213C48.3161 24.5587 48 23.7956 48 23H60C60 23.7956 59.6839 24.5587 59.1213 25.1213C58.5587 25.6839 57.7956 26 57 26Z"/>
        <path d="M53 10C53.5523 10 54 9.55228 54 9C54 8.44772 53.5523 8 53 8C52.4477 8 52 8.44772 52 9C52 9.55228 52.4477 10 53 10Z"/>
        <path d="M25.9488 36.879C25.856 36.972 25.7823 37.0823 25.7321 37.2037C25.6819 37.3252 25.6562 37.4553 25.6562 37.5867C25.6563 37.7181 25.6823 37.8482 25.7327 37.9695C25.7831 38.0909 25.8569 38.2011 25.9499 38.294C26.0429 38.3868 26.1531 38.4604 26.2746 38.5106C26.396 38.5608 26.5261 38.5866 26.6575 38.5865C26.7889 38.5864 26.919 38.5605 27.0404 38.5101C27.1617 38.4597 27.272 38.386 27.3648 38.293C27.555 38.111 27.8082 38.0095 28.0714 38.0095C28.3346 38.0095 28.5876 38.111 28.7778 38.293C28.9664 38.4751 29.219 38.5759 29.4812 38.5737C29.7434 38.5714 29.9942 38.4662 30.1796 38.2808C30.365 38.0954 30.4702 37.8446 30.4725 37.5824C30.4748 37.3202 30.374 37.0676 30.1918 36.879C29.6202 36.3335 28.8604 36.0292 28.0703 36.0292C27.2802 36.0292 26.5204 36.3335 25.9488 36.879Z"/>
        <path d="M33.0208 35.465C33.2083 35.2775 33.3136 35.0232 33.3136 34.758C33.3136 34.4928 33.2083 34.2385 33.0208 34.051C32.3708 33.4009 31.5991 32.8852 30.7497 32.5334C29.9004 32.1816 28.9901 32.0005 28.0708 32.0005C27.1515 32.0005 26.2412 32.1816 25.3918 32.5334C24.5425 32.8852 23.7708 33.4009 23.1208 34.051C23.0253 34.1432 22.9491 34.2536 22.8967 34.3756C22.8443 34.4976 22.8167 34.6288 22.8155 34.7616C22.8144 34.8944 22.8397 35.026 22.89 35.1489C22.9403 35.2718 23.0145 35.3835 23.1084 35.4774C23.2023 35.5713 23.3139 35.6455 23.4368 35.6958C23.5597 35.7461 23.6914 35.7714 23.8242 35.7702C23.957 35.7691 24.0882 35.7415 24.2102 35.6891C24.3322 35.6367 24.4425 35.5605 24.5348 35.465C25.4725 34.5273 26.7442 34.0006 28.0703 34.0006C29.3964 34.0006 30.6681 34.5273 31.6058 35.465C31.6987 35.558 31.809 35.6317 31.9304 35.6821C32.0517 35.7324 32.1819 35.7583 32.3133 35.7583C32.4447 35.7583 32.5748 35.7324 32.6962 35.6821C32.8176 35.6317 32.9279 35.558 33.0208 35.465Z"/>
        <path d="M20.2929 31.222C20.1107 31.4106 20.0099 31.6632 20.0122 31.9254C20.0145 32.1876 20.1197 32.4384 20.3051 32.6238C20.4905 32.8092 20.7413 32.9144 21.0035 32.9167C21.2657 32.9189 21.5183 32.8183 21.7069 32.6361C23.3961 30.9504 25.685 30.0036 28.0714 30.0036C30.4578 30.0036 32.7467 30.9504 34.4359 32.6361C34.6245 32.8183 34.8771 32.9189 35.1393 32.9167C35.4015 32.9144 35.6523 32.8092 35.8377 32.6238C36.0231 32.4384 36.1283 32.1876 36.1306 31.9254C36.1328 31.6632 36.0321 31.4106 35.8499 31.222C33.7853 29.1621 30.9879 28.0052 28.0714 28.0052C25.1549 28.0052 22.3575 29.1621 20.2929 31.222Z"/>
	</symbol>
    <symbol id="home-tv" viewBox="0 0 64 64" fill="none">
        <path d="M54.9287 11.4363C55.481 11.4363 55.9287 10.9886 55.9287 10.4363C55.9287 9.88399 55.481 9.43628 54.9287 9.43628C54.3764 9.43628 53.9287 9.88399 53.9287 10.4363C53.9287 10.9886 54.3764 11.4363 54.9287 11.4363Z" fill="#434343"/>
        <path d="M50.9477 32.566V59H11.9287V32.9" stroke="#434343" stroke-width="2" stroke-linecap="round" stroke-linejoin="round"/>
        <path d="M31.9287 15.4363L12.8521 32.1114C12.422 32.4859 11.8932 32.7288 11.3288 32.811C10.7644 32.8932 10.1883 32.8112 9.66918 32.5749C9.1501 32.3386 8.70998 31.9579 8.40136 31.4783C8.09275 30.9987 7.92867 30.4403 7.92871 29.87L31.9287 9.4361L55.9287 29.87V30.0555C55.9287 30.6203 55.7678 31.1733 55.4648 31.65C55.1617 32.1266 54.7292 32.5069 54.2178 32.7466C53.7063 32.9862 53.1372 33.0751 52.5771 33.0029C52.017 32.9307 51.489 32.7004 51.055 32.339L31.9287 15.4363Z" stroke="#434343" stroke-width="2" stroke-linecap="round" stroke-linejoin="round"/>
        <path d="M11.9287 7.43628V10.4363" stroke="#434343" stroke-width="2" stroke-linecap="round" stroke-linejoin="round"/>
        <path d="M11.9287 14.4363V17.4363" stroke="#434343" stroke-width="2" stroke-linecap="round" stroke-linejoin="round"/>
        <path d="M9.92871 12.4363H6.92871" stroke="#434343" stroke-width="2" stroke-linecap="round" stroke-linejoin="round"/>
        <path d="M16.9287 12.4363H13.9287" stroke="#434343" stroke-width="2" stroke-linecap="round" stroke-linejoin="round"/>
        <path d="M47 59H58" stroke="#434343" stroke-width="2" stroke-linecap="round" stroke-linejoin="round"/>
        <path d="M45 35H18V49H45V35Z" stroke="#434343" stroke-width="2" stroke-linecap="round" stroke-linejoin="round"/>
        <path d="M33.952 53.7631L33.0518 49.262" stroke="#434343" stroke-width="2" stroke-linecap="round" stroke-linejoin="round"/>
        <path d="M29.9358 49.3191L29.0498 53.7489" stroke="#434343" stroke-width="2" stroke-linecap="round" stroke-linejoin="round"/>
        <path d="M26 40H30" stroke="#434343" stroke-width="2" stroke-linecap="round" stroke-linejoin="round"/>
        <path d="M28 45V40" stroke="#434343" stroke-width="2" stroke-linecap="round" stroke-linejoin="round"/>
        <path d="M33 40L34.84 45L37 40" stroke="#434343" stroke-width="2" stroke-linecap="round" stroke-linejoin="round"/>
        <path d="M27 54H36" stroke="#434343" stroke-width="2" stroke-linecap="round" stroke-linejoin="round"/>
	</symbol>
    <symbol id="tv-play" viewBox="0 0 256 256" fill="none">
        <path d="M137.501 110.5C134.001 108.4 130.401 106.3 126.801 104.3L114.501 97.1999C106.901 92.7999 98.3008 87.7999 89.9008 83.1999C86.1008 81.0999 82.5008 80.7999 79.8008 82.2999C77.1008 83.7999 75.6008 86.9999 75.4008 91.1999C75.2008 97.6999 75.2008 104.4 75.3008 111.2C75.3008 114.1 75.3008 117.1 75.3008 120L75.2008 129C75.2008 135.3 75.1008 141.9 75.3008 148.4C75.4008 152.9 76.9008 156.2 79.5008 157.8C80.7008 158.5 82.0008 158.9 83.5008 158.9C85.5008 158.9 87.6008 158.3 89.9008 157.2C90.4008 157 90.9008 156.7 91.3008 156.4L100.101 151.3C112.701 144 125.301 136.8 137.901 129.4C139.501 128.5 140.801 127.5 141.901 126.4C145.701 122.5 145.701 117.9 141.801 114C140.501 112.4 138.801 111.3 137.501 110.5ZM133.101 120.6C120.501 127.9 107.901 135.2 95.4008 142.4L86.6008 147.5C86.3008 147.7 86.0008 147.8 85.7008 148C85.6008 148.1 85.5008 148.1 85.4008 148.1C85.4008 148 85.4008 148 85.4008 147.9C85.3008 141.6 85.3008 135.1 85.3008 128.6L85.4008 119.9C85.4008 116.9 85.4008 114 85.3008 110.6C85.2008 104.4 85.2008 98.0999 85.4008 91.8999C93.6008 96.3999 102.101 101.3 109.601 105.7L121.901 112.8C125.401 114.8 129.001 116.8 132.401 118.9C132.701 119.1 133.401 119.5 134.001 119.9C133.701 120.3 133.401 120.4 133.101 120.6Z" fill="#434343"/>
        <path d="M210.7 27.2H45.4004C23.0004 27.2 4.90039 45.3999 4.90039 67.6999V172.3C4.90039 194.6 23.1004 212.8 45.4004 212.8H64.6004V223.8C64.6004 226.5 66.8004 228.8 69.6004 228.8C72.3004 228.8 74.6004 226.6 74.6004 223.8V212.8H181.6V223.8C181.6 226.5 183.8 228.8 186.6 228.8C189.3 228.8 191.6 226.6 191.6 223.8V212.8H210.8C233.1 212.8 251.3 194.6 251.3 172.3V67.6999C251.1 45.3999 233 27.2 210.7 27.2ZM241.2 172.3C241.2 189.1 227.5 202.9 210.6 202.9H45.4004C28.6004 202.9 14.8004 189.2 14.8004 172.3V67.6999C14.8004 50.8999 28.5004 37.0999 45.4004 37.0999H210.7C227.5 37.0999 241.3 50.7999 241.3 67.6999V172.3H241.2Z" fill="#434343"/>
        <path d="M174.8 54.2999H45.4C38 54.2999 32 60.2999 32 67.6999V172.3C32 179.7 38 185.7 45.4 185.7H174.8C182.2 185.7 188.2 179.7 188.2 172.3V67.6999C188.2 60.2999 182.2 54.2999 174.8 54.2999ZM178.2 172.3C178.2 174.2 176.6 175.8 174.7 175.8H45.4C43.5 175.8 41.9 174.2 41.9 172.3V67.6999C41.9 65.7999 43.5 64.1999 45.4 64.1999H174.8C176.7 64.1999 178.3 65.7999 178.3 67.6999V172.3H178.2Z" fill="#434343"/>
        <path d="M214.601 101.7C218.08 101.7 220.901 98.8794 220.901 95.4C220.901 91.9206 218.08 89.1 214.601 89.1C211.121 89.1 208.301 91.9206 208.301 95.4C208.301 98.8794 211.121 101.7 214.601 101.7Z" fill="#434343"/>
        <path d="M214.601 73.6C218.08 73.6 220.901 70.7794 220.901 67.3C220.901 63.8206 218.08 61 214.601 61C211.121 61 208.301 63.8206 208.301 67.3C208.301 70.7794 211.121 73.6 214.601 73.6Z" fill="#434343"/>
	</symbol>
    <symbol id="" viewBox="0 0 32 32">
		
	</symbol>
    <symbol id="" viewBox="0 0 32 32">
		
	</symbol>
</svg>
