<svg xmlns="http://www.w3.org/2000/svg">
    <symbol id="location" viewBox="0 0 24 24">
        <path d="M12 0C10.0109 0 8.10322 0.790176 6.6967 2.1967C5.29018 3.60322 4.5 5.51088 4.5 7.5C4.5 15 12 24 12 24C12 24 19.5 15 19.5 7.5C19.5 5.51088 18.7098 3.60322 17.3033 2.1967C15.8968 0.790176 13.9891 0 12 0ZM12 12C10.8065 12 9.66193 11.5259 8.81802 10.682C7.97411 9.83807 7.5 8.69347 7.5 7.5C7.5 6.30653 7.97411 5.16193 8.81802 4.31802C9.66193 3.47411 10.8065 3 12 3C13.1935 3 14.3381 3.47411 15.182 4.31802C16.0259 5.16193 16.5 6.30653 16.5 7.5C16.5 8.69347 16.0259 9.83807 15.182 10.682C14.3381 11.5259 13.1935 12 12 12Z"/>
	</symbol>
    <symbol id="phone" viewBox="0 0 25 24">
        <path fill-rule="evenodd" clip-rule="evenodd" d="M16.792 22.133C15.352 22.08 11.271 21.516 6.99699 17.243C2.72399 12.969 2.16099 8.889 2.10699 7.448C2.02699 5.252 3.70899 3.119 5.65199 2.286C5.88597 2.18497 6.14219 2.1465 6.39552 2.17438C6.64885 2.20225 6.89058 2.29551 7.09699 2.445C8.69699 3.611 9.80099 5.375 10.749 6.762C10.9576 7.06673 11.0468 7.43755 10.9995 7.8038C10.9523 8.17005 10.772 8.50613 10.493 8.748L8.54199 10.197C8.44773 10.2651 8.38138 10.365 8.35527 10.4783C8.32915 10.5916 8.34504 10.7105 8.39999 10.813C8.84199 11.616 9.62799 12.812 10.528 13.712C11.428 14.612 12.681 15.45 13.54 15.942C13.6477 16.0025 13.7745 16.0194 13.8942 15.9892C14.014 15.9591 14.1177 15.8842 14.184 15.78L15.454 13.847C15.6875 13.5368 16.0319 13.3291 16.4152 13.2672C16.7984 13.2053 17.1907 13.2941 17.51 13.515C18.917 14.489 20.559 15.574 21.761 17.113C21.9226 17.3209 22.0254 17.5684 22.0587 17.8296C22.0919 18.0909 22.0544 18.3562 21.95 18.598C21.113 20.551 18.995 22.214 16.792 22.133Z"/>
	</symbol>
    <symbol id="find" viewBox="0 0 24 24" fill="none">
        <path d="M21 21L16.657 16.657M16.657 16.657C17.3998 15.9141 17.9891 15.0322 18.3912 14.0615C18.7932 13.0909 19.0002 12.0506 19.0002 11C19.0002 9.94939 18.7932 8.90908 18.3912 7.93845C17.9891 6.96782 17.3998 6.08588 16.657 5.34299C15.9141 4.6001 15.0321 4.01081 14.0615 3.60877C13.0909 3.20672 12.0506 2.99979 11 2.99979C9.94936 2.99979 8.90905 3.20672 7.93842 3.60877C6.96779 4.01081 6.08585 4.6001 5.34296 5.34299C3.84263 6.84332 2.99976 8.87821 2.99976 11C2.99976 13.1218 3.84263 15.1567 5.34296 16.657C6.84329 18.1573 8.87818 19.0002 11 19.0002C13.1217 19.0002 15.1566 18.1573 16.657 16.657Z" stroke-width="1.5" stroke-linecap="round" stroke-linejoin="round"/>
	</symbol>
    <symbol id="house-wifi" viewBox="0 0 64 64">
        <path d="M51.76 33.68L28.57 17.41C28.4026 17.2939 28.2037 17.2317 28 17.2317C27.7963 17.2317 27.5974 17.2939 27.43 17.41L16.11 25.35V23C16.1341 22.5748 16.0711 22.1491 15.9249 21.749C15.7787 21.349 15.5525 20.983 15.2599 20.6734C14.9674 20.3638 14.6147 20.1172 14.2235 19.9487C13.8324 19.7801 13.4109 19.6932 12.985 19.6932C12.5591 19.6932 12.1376 19.7801 11.7464 19.9487C11.3553 20.1172 11.0026 20.3638 10.7101 20.6734C10.4175 20.983 10.1913 21.349 10.0451 21.749C9.89888 22.1491 9.8359 22.5748 9.85997 23V29.79L4.23997 33.68C3.92742 33.8987 3.661 34.1768 3.45592 34.4984C3.25084 34.82 3.11111 35.1789 3.04472 35.5545C2.91063 36.313 3.08338 37.0938 3.52497 37.725C3.96655 38.3563 4.6408 38.7862 5.39938 38.9203C6.15797 39.0544 6.93875 38.8816 7.56997 38.44L9.85997 36.83V60C9.85997 60.2653 9.96532 60.5196 10.1529 60.7072C10.3404 60.8947 10.5948 61 10.86 61H45.14C45.4052 61 45.6596 60.8947 45.8471 60.7072C46.0346 60.5196 46.14 60.2653 46.14 60V36.83L48.43 38.44C49.0612 38.8816 49.842 39.0544 50.6006 38.9203C51.3592 38.7862 52.0334 38.3563 52.475 37.725C52.9166 37.0938 53.0893 36.313 52.9552 35.5545C52.8212 34.7959 52.3912 34.1216 51.76 33.68ZM11.86 23C11.8452 22.8434 11.8633 22.6854 11.9131 22.5361C11.9629 22.3869 12.0434 22.2497 12.1493 22.1333C12.2552 22.0169 12.3842 21.924 12.5281 21.8603C12.672 21.7967 12.8276 21.7639 12.985 21.7639C13.1423 21.7639 13.298 21.7967 13.4419 21.8603C13.5858 21.924 13.7148 22.0169 13.8207 22.1333C13.9266 22.2497 14.0071 22.3869 14.0569 22.5361C14.1067 22.6854 14.1248 22.8434 14.11 23V26.8L11.86 28.38V23ZM22.63 59V43.62H33.37V59H22.63ZM44.14 59H35.37V42.62C35.37 42.3548 35.2646 42.1005 35.0771 41.9129C34.8896 41.7254 34.6352 41.62 34.37 41.62H21.63C21.3648 41.62 21.1104 41.7254 20.9229 41.9129C20.7354 42.1005 20.63 42.3548 20.63 42.62V59H11.86V35.43L28 24.1L44.14 35.43V59ZM50.84 36.58C50.6993 36.7758 50.4875 36.9085 50.25 36.9496C50.0125 36.9908 49.7683 36.937 49.57 36.8L28.57 22.06C28.4026 21.9439 28.2037 21.8817 28 21.8817C27.7963 21.8817 27.5974 21.9439 27.43 22.06L6.42997 36.8C6.23436 36.8994 6.00919 36.924 5.79677 36.869C5.58436 36.814 5.39934 36.6834 5.2765 36.5016C5.15367 36.3198 5.10147 36.0994 5.12973 35.8818C5.15799 35.6642 5.26476 35.4644 5.42997 35.32L28 19.45L50.62 35.32C50.8129 35.4605 50.9437 35.6705 50.9848 35.9056C51.0258 36.1407 50.9739 36.3825 50.84 36.58Z"/>
        <path d="M42.78 3C42.5148 3 42.2604 3.10536 42.0729 3.29289C41.8854 3.48043 41.78 3.73478 41.78 4C41.78 4.26522 41.8854 4.51957 42.0729 4.70711C42.2604 4.89464 42.5148 5 42.78 5C47.09 5.01852 51.2169 6.74433 54.2571 9.79945C57.2972 12.8546 59.0027 16.99 59 21.3C59 21.5652 59.1054 21.8196 59.2929 22.0071C59.4804 22.1946 59.7348 22.3 60 22.3C60.2652 22.3 60.5196 22.1946 60.7071 22.0071C60.8946 21.8196 61 21.5652 61 21.3C61.0053 16.4588 59.09 11.8131 55.6742 8.38234C52.2584 4.95157 47.6212 3.01589 42.78 3Z"/>
        <path d="M42.78 7.83997C42.5148 7.83997 42.2604 7.94532 42.0729 8.13286C41.8854 8.3204 41.78 8.57475 41.78 8.83997C41.78 9.10518 41.8854 9.35954 42.0729 9.54707C42.2604 9.73461 42.5148 9.83997 42.78 9.83997C45.8071 9.85584 48.7046 11.0709 50.8376 13.2189C52.9706 15.3669 54.1653 18.2728 54.16 21.3C54.16 21.5652 54.2654 21.8195 54.4529 22.0071C54.6404 22.1946 54.8948 22.3 55.16 22.3C55.4252 22.3 55.6796 22.1946 55.8671 22.0071C56.0546 21.8195 56.16 21.5652 56.16 21.3C56.1653 17.7424 54.7599 14.3278 52.2518 11.8047C49.7437 9.28159 46.3376 7.85584 42.78 7.83997Z"/>
        <path d="M49.33 21.3C49.33 21.5652 49.4354 21.8195 49.6229 22.0071C49.8104 22.1946 50.0648 22.3 50.33 22.3C50.5952 22.3 50.8496 22.1946 51.0371 22.0071C51.2246 21.8195 51.33 21.5652 51.33 21.3C51.3248 19.032 50.425 16.8577 48.826 15.2493C47.2269 13.6409 45.0579 12.7284 42.79 12.71C42.5248 12.71 42.2704 12.8153 42.0829 13.0029C41.8953 13.1904 41.79 13.4447 41.79 13.71C41.79 13.9752 41.8953 14.2295 42.0829 14.4171C42.2704 14.6046 42.5248 14.71 42.79 14.71C44.5275 14.7284 46.1878 15.4301 47.4118 16.6634C48.6357 17.8968 49.3248 19.5624 49.33 21.3Z"/>
        <path d="M42.75 25C43.4921 25 44.2175 24.7798 44.8344 24.3673C45.4513 23.9548 45.932 23.3685 46.2155 22.6827C46.499 21.9969 46.5727 21.2424 46.4272 20.5147C46.2817 19.787 45.9235 19.1189 45.3981 18.5948C44.8726 18.0708 44.2035 17.7144 43.4754 17.5708C42.7474 17.4273 41.993 17.503 41.308 17.7883C40.6229 18.0737 40.038 18.5559 39.6271 19.1739C39.2163 19.7919 38.998 20.5179 39 21.26C39.0026 22.2528 39.3989 23.2041 40.1019 23.9052C40.8049 24.6063 41.7572 25 42.75 25ZM42.75 19.51C43.0961 19.51 43.4345 19.6126 43.7222 19.8049C44.01 19.9972 44.2343 20.2705 44.3668 20.5903C44.4992 20.9101 44.5339 21.2619 44.4664 21.6014C44.3988 21.9409 44.2322 22.2527 43.9874 22.4974C43.7427 22.7422 43.4309 22.9089 43.0914 22.9764C42.7519 23.0439 42.4001 23.0092 42.0803 22.8768C41.7605 22.7443 41.4872 22.52 41.2949 22.2322C41.1026 21.9445 41 21.6061 41 21.26C41 21.0307 41.0453 20.8036 41.1334 20.5918C41.2215 20.3801 41.3505 20.1878 41.5132 20.0261C41.6758 19.8644 41.8688 19.7364 42.0811 19.6496C42.2933 19.5627 42.5207 19.5187 42.75 19.52V19.51Z"/>
	</symbol>
    <symbol id="clock-24" viewBox="0 0 60 60">
        <path d="M19.9081 51.1594C20.1325 51.2666 20.3902 51.2803 20.6247 51.1975C20.8591 51.1147 21.0511 50.9421 21.1583 50.7178C21.2655 50.4935 21.2792 50.2357 21.1965 50.0013C21.1136 49.7668 20.9411 49.5749 20.7167 49.4677C20.3227 49.2793 19.929 49.0761 19.5464 48.8637C19.4387 48.803 19.3201 48.7642 19.1974 48.7497C19.0747 48.735 18.9502 48.7447 18.8313 48.7784C18.7124 48.812 18.6013 48.8687 18.5043 48.9455C18.4074 49.0222 18.3267 49.1174 18.2667 49.2254C18.2067 49.3335 18.1686 49.4523 18.1548 49.5751C18.1408 49.6979 18.1514 49.8223 18.1857 49.941C18.22 50.0597 18.2776 50.1706 18.3549 50.2669C18.4322 50.3633 18.5278 50.4436 18.6362 50.5029C19.0517 50.7339 19.4798 50.9547 19.9081 51.1594Z"/>
        <path d="M24.5533 52.801C24.7953 52.8586 25.0501 52.8177 25.2619 52.6874C25.4738 52.5569 25.6251 52.3479 25.6826 52.1059C25.7403 51.8639 25.6994 51.609 25.5689 51.3972C25.4386 51.1855 25.2294 51.0341 24.9874 50.9765C24.5539 50.8735 24.119 50.7553 23.6935 50.625C23.5751 50.5865 23.4502 50.572 23.3261 50.5823C23.202 50.5926 23.0812 50.6276 22.9707 50.685C22.8603 50.7425 22.7623 50.8215 22.6827 50.9172C22.6032 51.013 22.5434 51.1236 22.5071 51.2428C22.4706 51.3619 22.4584 51.487 22.471 51.6109C22.4835 51.7349 22.5205 51.855 22.5801 51.9644C22.6395 52.0738 22.7202 52.1702 22.8174 52.2481C22.9145 52.326 23.0262 52.3837 23.146 52.4179C23.6087 52.5604 24.0821 52.6889 24.5533 52.801Z"/>
        <path d="M30 53.4374C30.2487 53.4374 30.487 53.3387 30.6629 53.1629C30.8387 52.9871 30.9375 52.7486 30.9375 52.4999C30.9375 52.2513 30.8387 52.0128 30.6629 51.837C30.487 51.6612 30.2487 51.5624 30 51.5624C29.4704 51.5624 28.9352 51.543 28.4093 51.5047C28.1613 51.4866 27.9163 51.5678 27.7282 51.7304C27.54 51.893 27.4242 52.1237 27.4062 52.3716C27.3881 52.6196 27.4693 52.8646 27.6319 53.0527C27.7944 53.2408 28.0251 53.3567 28.2731 53.3748C28.8442 53.4164 29.4258 53.4374 30 53.4374Z"/>
        <path d="M38.9489 44.868L35.2607 47.1732C34.3349 47.7477 33.5716 48.5496 33.0435 49.5026C32.5153 50.4554 32.2398 51.5277 32.2433 52.6172C32.2433 52.8659 32.3421 53.1043 32.5179 53.2801C32.6937 53.4559 32.9321 53.5547 33.1808 53.5547H41.2835C41.5322 53.5547 41.7705 53.4559 41.9464 53.2801C42.1222 53.1043 42.221 52.8659 42.221 52.6172C42.221 52.3685 42.1222 52.13 41.9464 51.9543C41.7705 51.7785 41.5322 51.6797 41.2835 51.6797H34.2144C34.3391 51.0807 34.5843 50.5133 34.9349 50.012C35.2855 49.5107 35.7345 49.0859 36.2543 48.7632L39.9427 46.458C40.8352 45.9001 41.5219 45.0669 41.899 44.0843C42.2762 43.1016 42.3232 42.0229 42.033 41.0112C41.7429 39.9994 41.1313 39.1096 40.2907 38.4761C39.45 37.8427 38.4261 37.5 37.3736 37.5H37.0908C35.8056 37.5014 34.5735 38.0127 33.6647 38.9214C32.7559 39.8302 32.2447 41.0623 32.2433 42.3475V43.5016C32.2433 43.7503 32.3421 43.9888 32.5179 44.1646C32.6937 44.3404 32.9321 44.4391 33.1808 44.4391C33.4295 44.4391 33.6678 44.3404 33.8437 44.1646C34.0195 43.9888 34.1183 43.7503 34.1183 43.5016V42.3475C34.1191 41.5594 34.4326 40.8039 34.9898 40.2465C35.5472 39.6893 36.3027 39.3758 37.0908 39.375H37.3736C38.0189 39.375 38.6468 39.5851 39.1623 39.9736C39.6777 40.362 40.0527 40.9076 40.2307 41.528C40.4086 42.1485 40.3798 42.8099 40.1486 43.4125C39.9172 44.015 39.4962 44.526 38.9489 44.868Z"/>
        <path d="M51.4117 37.5H48.3733C48.1899 37.5 48.0105 37.5539 47.8573 37.6548C47.704 37.7558 47.5839 37.8996 47.5116 38.0682L44.473 45.1581C44.423 45.2748 44.3972 45.4004 44.3972 45.5273V47.553C44.3972 47.8017 44.496 48.0402 44.6719 48.216C44.8477 48.3918 45.0862 48.4905 45.3347 48.4905H50.4742V52.6172C50.4742 52.8659 50.573 53.1043 50.7489 53.2801C50.9247 53.4559 51.1632 53.5547 51.4117 53.5547C51.6604 53.5547 51.8989 53.4559 52.0746 53.2801C52.2505 53.1043 52.3492 52.8659 52.3492 52.6172V48.4905H53.4374C53.6861 48.4905 53.9246 48.3918 54.1003 48.216C54.2762 48.0402 54.3749 47.8017 54.3749 47.553C54.3749 47.3044 54.2762 47.0659 54.1003 46.8901C53.9246 46.7143 53.6861 46.6155 53.4374 46.6155H52.3492V38.4375C52.3492 38.1888 52.2505 37.9504 52.0746 37.7746C51.8989 37.5988 51.6604 37.5 51.4117 37.5ZM50.4742 46.6155H46.2722V45.7198L48.9914 39.375H50.4742V46.6155Z"/>
        <path d="M21.8371 36.8371C21.75 36.9241 21.681 37.0275 21.6339 37.1412C21.5868 37.255 21.5625 37.3768 21.5625 37.5C21.5625 37.6232 21.5868 37.745 21.6339 37.8588C21.681 37.9725 21.75 38.0759 21.8371 38.1629C21.9241 38.25 22.0275 38.319 22.1413 38.3661C22.255 38.4132 22.377 38.4375 22.5 38.4375C22.6232 38.4375 22.745 38.4132 22.8588 38.3661C22.9725 38.319 23.0759 38.25 23.1629 38.1629L28.7879 32.5379C29.1326 32.703 29.5072 32.7962 29.889 32.8117C30.2709 32.8272 30.6519 32.7647 31.0087 32.628C31.3656 32.4914 31.6909 32.2835 31.9648 32.017C32.2386 31.7504 32.4553 31.4309 32.6016 31.0779C32.7478 30.7248 32.8206 30.3457 32.8154 29.9636C32.8103 29.5814 32.7273 29.2044 32.5716 28.8554C32.4158 28.5064 32.1906 28.1929 31.9097 27.9339C31.6288 27.6748 31.298 27.4757 30.9375 27.3488V13.125C30.9375 12.8763 30.8387 12.6379 30.6629 12.4621C30.4872 12.2863 30.2487 12.1875 30 12.1875C29.7513 12.1875 29.513 12.2863 29.3371 12.4621C29.1613 12.6379 29.0625 12.8763 29.0625 13.125V27.3488C28.6907 27.4801 28.3506 27.6881 28.0644 27.9595C27.7782 28.2308 27.5524 28.5593 27.4015 28.9236C27.2505 29.288 27.178 29.6801 27.1886 30.0743C27.199 30.4684 27.2924 30.8561 27.4624 31.2118L21.8371 36.8371ZM30 29.0625C30.1854 29.0625 30.3667 29.1175 30.5209 29.2205C30.675 29.3235 30.7952 29.47 30.8661 29.6413C30.9371 29.8125 30.9557 30.0011 30.9195 30.1829C30.8834 30.3648 30.7941 30.5318 30.6629 30.6629C30.5318 30.7941 30.3648 30.8834 30.1829 30.9195C30.0011 30.9557 29.8126 30.9371 29.6413 30.8661C29.47 30.7952 29.3236 30.675 29.2205 30.5209C29.1175 30.3667 29.0625 30.1854 29.0625 30C29.0629 29.7514 29.1616 29.5132 29.3374 29.3374C29.5132 29.1616 29.7514 29.0627 30 29.0625Z"/>
        <path d="M55.2723 31.4464C55.1852 31.3594 55.0819 31.2904 54.9681 31.2432C54.8544 31.1961 54.7324 31.1719 54.6094 31.1719C54.4862 31.1719 54.3643 31.1961 54.2505 31.2432C54.1369 31.2904 54.0335 31.3594 53.9464 31.4464L53.3473 32.0456C53.4058 31.3659 53.4375 30.6834 53.4375 30C53.4375 17.0766 42.9234 6.5625 30 6.5625C17.0766 6.5625 6.56247 17.0766 6.56247 30C6.55265 33.5643 7.36035 37.0832 8.92348 40.2864C10.4866 43.4896 12.7635 46.2916 15.5791 48.4771C15.676 48.5537 15.7871 48.6103 15.9061 48.6438C16.0249 48.6773 16.1492 48.6871 16.2719 48.6723C16.3946 48.6577 16.5131 48.6189 16.6207 48.5582C16.7284 48.4975 16.823 48.4161 16.899 48.3189C16.9751 48.2215 17.0311 48.11 17.064 47.991C17.0969 47.8719 17.106 47.7476 17.0906 47.625C17.0753 47.5024 17.0358 47.3841 16.9746 47.2767C16.9133 47.1695 16.8315 47.0754 16.7338 46.9998C14.1432 44.9891 12.0483 42.4111 10.6101 39.4641C9.17181 36.5169 8.42857 33.2793 8.43747 30C8.43747 18.1104 18.1104 8.4375 30 8.4375C41.8896 8.4375 51.5625 18.1104 51.5625 30C51.5625 30.7575 51.523 31.5145 51.4444 32.2679L50.6826 31.2101C50.5362 31.0113 50.3173 30.8783 50.0734 30.84C49.8295 30.8017 49.5804 30.8611 49.3801 31.0054C49.1797 31.1495 49.0444 31.367 49.0033 31.6104C48.9623 31.8539 49.0191 32.1036 49.1611 32.3055L51.165 35.0882C51.2412 35.2504 51.3624 35.3872 51.5143 35.4824C51.6663 35.5775 51.8423 35.6269 52.0216 35.6246C52.025 35.6246 52.0284 35.6246 52.0317 35.6246C52.1548 35.6246 52.2767 35.6004 52.3904 35.5533C52.5042 35.5062 52.6076 35.4371 52.6946 35.3501L55.2728 32.772C55.4484 32.5961 55.547 32.3577 55.547 32.1091C55.5469 31.8606 55.4481 31.6222 55.2723 31.4464Z"/>
        <path d="M49.5902 28.0323C49.1692 23.8527 47.4232 19.917 44.6069 16.8001C41.7908 13.683 38.0519 11.5479 33.9363 10.7062C33.6927 10.6568 33.4393 10.7062 33.232 10.8435C33.0248 10.9809 32.8806 11.1949 32.8311 11.4386C32.7817 11.6823 32.831 11.9356 32.9683 12.1429C33.1057 12.3501 33.3198 12.4944 33.5634 12.5438C37.2864 13.3057 40.6684 15.2374 43.2159 18.057C45.7635 20.8767 47.343 24.4369 47.7244 28.2177C47.7473 28.4489 47.8554 28.6635 48.0276 28.8195C48.1998 28.9756 48.4237 29.0622 48.6561 29.0625C48.6874 29.0625 48.7187 29.061 48.7499 29.0579C48.8724 29.0457 48.9914 29.0096 49.0999 28.9515C49.2084 28.8934 49.3045 28.8144 49.3826 28.7191C49.4606 28.624 49.5191 28.5143 49.5547 28.3964C49.5903 28.2785 49.6024 28.1549 49.5902 28.0323Z"/>
	</symbol>
    <symbol id="router" viewBox="0 0 70 70">
        <path d="M15.2396 31.3542C15.1864 31.3611 15.1325 31.3611 15.0792 31.3542C14.9509 31.3247 14.833 31.2609 14.738 31.1698C14.643 31.0786 14.5745 30.9635 14.5396 30.8365L10.4198 15.6844C10.2265 14.9892 10.3172 14.2456 10.672 13.6173C11.0269 12.9889 11.6168 12.5273 12.312 12.3339C13.0073 12.1405 13.7508 12.2312 14.3792 12.5861C15.0075 12.9409 15.4692 13.5309 15.6626 14.2261L19.7824 29.3709C19.8183 29.4995 19.8183 29.6355 19.7823 29.764C19.7463 29.8926 19.6757 30.0089 19.5782 30.1C19.4824 30.19 19.364 30.2524 19.2357 30.2807C19.1073 30.3089 18.9737 30.3019 18.849 30.2605C18.317 30.0786 17.7421 30.0633 17.2011 30.2167C16.658 30.3631 16.1707 30.6677 15.8011 31.0917C15.7325 31.174 15.6467 31.2402 15.5496 31.2856C15.4526 31.331 15.3468 31.3544 15.2396 31.3542ZM13.0521 13.7011C12.9414 13.7022 12.8312 13.7169 12.724 13.7448C12.5611 13.787 12.4082 13.8614 12.2744 13.9635C12.1407 14.0657 12.0287 14.1936 11.9451 14.3397C11.8616 14.4857 11.8081 14.6471 11.7878 14.8142C11.7675 14.9813 11.7809 15.1507 11.8271 15.3126L15.648 29.3563C16.3738 28.8996 17.2189 28.6687 18.0761 28.6928L14.2553 14.6417C14.2108 14.4878 14.1364 14.3441 14.0363 14.219C13.9362 14.0939 13.8124 13.9897 13.6719 13.9126C13.4814 13.7924 13.2626 13.7245 13.0376 13.7157L13.0521 13.7011Z"/>
        <path d="M16.4573 41.9344C16.2927 41.9401 16.131 41.8898 15.9986 41.7918C15.8662 41.6938 15.7709 41.5539 15.7282 41.3948L13.7594 34.1032C13.5728 33.4181 13.5583 32.6975 13.7174 32.0054C13.8764 31.3134 14.2039 30.6714 14.6709 30.1365C15.2298 29.4942 15.9667 29.0321 16.7883 28.8089C17.61 28.5856 18.4794 28.6112 19.2865 28.8823C19.5557 28.9716 19.8147 29.0889 20.0594 29.2323C20.5542 29.5077 20.9881 29.8802 21.3352 30.3276C21.6823 30.7749 21.9354 31.2878 22.0792 31.8355L24.5657 40.9792C24.591 41.0716 24.598 41.1681 24.5861 41.2632C24.5741 41.3583 24.5436 41.4501 24.4962 41.5334C24.4488 41.6166 24.3855 41.6898 24.3098 41.7486C24.2342 41.8074 24.1477 41.8507 24.0553 41.8761C23.9629 41.9015 23.8664 41.9084 23.7713 41.8965C23.6762 41.8846 23.5844 41.854 23.5011 41.8066C23.4178 41.7592 23.3447 41.6959 23.2859 41.6202C23.2271 41.5446 23.1838 41.4581 23.1584 41.3657L20.6938 32.2511C20.5996 31.8878 20.4328 31.5474 20.2035 31.2504C19.9742 30.9534 19.687 30.706 19.3594 30.523C19.1896 30.4288 19.0114 30.3507 18.8271 30.2896C18.2995 30.1112 17.7303 30.0959 17.1938 30.2459C16.8322 30.3439 16.4935 30.5122 16.197 30.7412C15.9006 30.9701 15.6521 31.2553 15.4659 31.5803C15.2797 31.9054 15.1593 32.2639 15.1117 32.6355C15.0642 33.0071 15.0903 33.3844 15.1886 33.7459L17.1573 41.0375C17.1828 41.1299 17.1898 41.2265 17.1779 41.3216C17.166 41.4167 17.1355 41.5085 17.0881 41.5918C17.0407 41.6751 16.9773 41.7482 16.9016 41.807C16.8259 41.8658 16.7394 41.9091 16.6469 41.9344C16.5842 41.945 16.5201 41.945 16.4573 41.9344Z"/>
        <path d="M54.7604 31.3542C54.6556 31.3551 54.5519 31.3335 54.4563 31.2907C54.3607 31.2479 54.2754 31.185 54.2062 31.1063C53.8367 30.6823 53.3493 30.3777 52.8062 30.2313C52.2653 30.0779 51.6904 30.0932 51.1583 30.2751C51.0336 30.3165 50.9 30.3235 50.7717 30.2952C50.6433 30.267 50.525 30.2046 50.4292 30.1146C50.3316 30.0234 50.261 29.9072 50.225 29.7786C50.189 29.6501 50.189 29.5141 50.225 29.3855L54.3448 14.2407C54.5359 13.5471 54.9934 12.9571 55.6175 12.5993C56.2417 12.2414 56.982 12.1447 57.6771 12.3303C58.0221 12.4223 58.3454 12.5818 58.6285 12.7995C58.9116 13.0172 59.1487 13.2887 59.3263 13.5985C59.5039 13.9083 59.6185 14.2502 59.6633 14.6044C59.7081 14.9587 59.6823 15.3183 59.5875 15.6626L55.4604 30.8365C55.4256 30.9635 55.357 31.0786 55.262 31.1698C55.167 31.2609 55.0491 31.3247 54.9208 31.3542C54.8676 31.3611 54.8137 31.3611 54.7604 31.3542ZM52.0625 28.6709C52.4444 28.6711 52.8245 28.7226 53.1927 28.824C53.6031 28.9335 53.9942 29.1056 54.3521 29.3344L58.1729 15.3126C58.2503 15.07 58.2521 14.8096 58.1779 14.566C58.1038 14.3224 57.9573 14.1071 57.7578 13.9488C57.5583 13.7905 57.3154 13.6967 57.0613 13.6798C56.8073 13.6629 56.5541 13.7237 56.3354 13.8542C56.0501 14.0099 55.8378 14.272 55.7448 14.5834L51.9239 28.6855L52.0625 28.6709Z"/>
        <path d="M53.5427 41.9344C53.48 41.945 53.4159 41.945 53.3531 41.9344C53.2607 41.9091 53.1741 41.8658 53.0984 41.807C53.0227 41.7482 52.9594 41.6751 52.912 41.5918C52.8646 41.5085 52.834 41.4167 52.8222 41.3215C52.8103 41.2264 52.8173 41.1299 52.8427 41.0375L54.8115 33.7459C54.9098 33.3844 54.9359 33.0071 54.8883 32.6355C54.8407 32.2639 54.7204 31.9054 54.5342 31.5803C54.3479 31.2553 54.0995 30.9701 53.803 30.7411C53.5065 30.5122 53.1678 30.3439 52.8062 30.2459C52.2653 30.0924 51.6904 30.1077 51.1583 30.2896C50.9797 30.3532 50.8066 30.4313 50.6406 30.5229C50.313 30.7059 50.0259 30.9534 49.7966 31.2504C49.5672 31.5474 49.4004 31.8878 49.3063 32.2511L46.8635 41.3875C46.8052 41.5638 46.6818 41.7111 46.5186 41.7996C46.3553 41.888 46.1645 41.9108 45.985 41.8634C45.8055 41.816 45.6509 41.7018 45.5526 41.5443C45.4544 41.3868 45.4199 41.1977 45.4563 41.0156L47.899 31.8719C48.0426 31.3223 48.2954 30.8072 48.6424 30.3575C48.9895 29.9077 49.4235 29.5325 49.9188 29.2542C50.151 29.1203 50.3951 29.008 50.6479 28.9188C51.4562 28.6426 52.3285 28.6137 53.1532 28.8358C53.978 29.058 54.7178 29.5209 55.2781 30.1656C55.7451 30.7006 56.0726 31.3426 56.2316 32.0346C56.3907 32.7266 56.3762 33.4472 56.1896 34.1323L54.2208 41.424C54.1752 41.5692 54.0853 41.6965 53.9637 41.788C53.8421 41.8796 53.6949 41.9307 53.5427 41.9344Z"/>
        <path d="M2.18754 51.9239C1.99415 51.9239 1.80869 51.8471 1.67194 51.7103C1.5352 51.5736 1.45837 51.3881 1.45837 51.1947V51.0416C1.45837 50.8482 1.5352 50.6628 1.67194 50.526C1.80869 50.3893 1.99415 50.3124 2.18754 50.3124C2.29395 50.3111 2.39938 50.333 2.49641 50.3767C2.59344 50.4204 2.67973 50.4848 2.74922 50.5654C2.81871 50.646 2.86971 50.7409 2.89864 50.8433C2.92758 50.9457 2.93374 51.0532 2.91671 51.1583C2.92165 51.2571 2.90645 51.3558 2.87203 51.4485C2.8376 51.5412 2.78468 51.626 2.71647 51.6976C2.64826 51.7692 2.5662 51.8262 2.47527 51.8651C2.38434 51.904 2.28644 51.924 2.18754 51.9239Z"/>
        <path d="M67.8125 51.924C67.6191 51.924 67.4336 51.8472 67.2969 51.7105C67.1601 51.5737 67.0833 51.3882 67.0833 51.1949C67.0602 51.0872 67.0617 50.9756 67.0878 50.8686C67.1139 50.7616 67.164 50.6619 67.2341 50.577C67.3043 50.4921 67.3928 50.4242 67.4929 50.3784C67.5931 50.3326 67.7024 50.3101 67.8125 50.3126C68.0059 50.3126 68.1913 50.3894 68.3281 50.5261C68.4648 50.6629 68.5416 50.8483 68.5416 51.0417V51.1876C68.5426 51.2839 68.5245 51.3795 68.4882 51.4688C68.452 51.5581 68.3985 51.6394 68.3307 51.7079C68.2629 51.7764 68.1822 51.8307 68.0932 51.8678C68.0043 51.9049 67.9089 51.924 67.8125 51.924Z"/>
        <path d="M64.6844 57.7428H5.31566C4.29391 57.7428 3.31389 57.3374 2.59072 56.6156C1.86755 55.8938 1.46031 54.9145 1.45837 53.8928V51.1949C1.45837 51.0015 1.5352 50.816 1.67194 50.6793C1.80869 50.5425 1.99415 50.4657 2.18754 50.4657C2.38093 50.4657 2.56639 50.5425 2.70314 50.6793C2.83988 50.816 2.91671 51.0015 2.91671 51.1949C2.91671 51.3883 2.99353 51.5737 3.13027 51.7105C3.26702 51.8472 3.45249 51.924 3.64587 51.924H66.3541C66.5475 51.924 66.733 51.8472 66.8697 51.7105C67.0065 51.5737 67.0833 51.3883 67.0833 51.1949C67.0833 51.0015 67.1601 50.816 67.2969 50.6793C67.4336 50.5425 67.6191 50.4657 67.8125 50.4657C68.0059 50.4657 68.1913 50.5425 68.3281 50.6793C68.4648 50.816 68.5416 51.0015 68.5416 51.1949V53.8928C68.5397 54.9145 68.1325 55.8938 67.4093 56.6156C66.6861 57.3374 65.7061 57.7428 64.6844 57.7428ZM2.91671 53.273V53.8928C2.9167 54.2075 2.97881 54.5191 3.09946 54.8097C3.2201 55.1004 3.39692 55.3644 3.61978 55.5865C3.84264 55.8087 4.10716 55.9847 4.39817 56.1045C4.68918 56.2243 5.00097 56.2854 5.31566 56.2845H64.6844C64.999 56.2854 65.3108 56.2243 65.6018 56.1045C65.8929 55.9847 66.1574 55.8087 66.3802 55.5865C66.6031 55.3644 66.7799 55.1004 66.9006 54.8097C67.0212 54.5191 67.0833 54.2075 67.0833 53.8928V53.273C66.848 53.3502 66.6018 53.3896 66.3541 53.3897H3.64587C3.39817 53.3896 3.15206 53.3502 2.91671 53.273Z"/>
        <path d="M66.3541 53.3895H3.64582C3.06566 53.3895 2.50926 53.1591 2.09903 52.7488C1.68879 52.3386 1.45832 51.7822 1.45832 51.202C1.45107 51.1195 1.45107 51.0366 1.45832 50.9541C1.5217 50.3981 1.80212 49.8897 2.23853 49.5395L11.5281 41.9416C12.6964 40.9975 14.1531 40.4828 15.6552 40.4833H54.3447C55.8468 40.4828 57.3036 40.9975 58.4718 41.9416L67.7395 49.5249C67.9616 49.703 68.1457 49.9239 68.281 50.1743C68.4163 50.4248 68.4999 50.6999 68.527 50.9833C68.5343 51.0658 68.5343 51.1487 68.527 51.2312C68.5194 51.8038 68.2876 52.3505 67.8813 52.7541C67.475 53.1576 66.9267 53.3858 66.3541 53.3895ZM15.6552 41.9343C14.4889 41.9327 13.3579 42.3346 12.4541 43.0718L3.17915 50.6551C3.10715 50.7105 3.04686 50.7796 3.00179 50.8585C2.95673 50.9373 2.92779 51.0244 2.91665 51.1145C2.91665 51.1145 2.91665 51.1656 2.91665 51.1874C2.91665 51.3808 2.99348 51.5663 3.13022 51.703C3.26697 51.8398 3.45243 51.9166 3.64582 51.9166H66.3541C66.5475 51.9166 66.733 51.8398 66.8697 51.703C67.0064 51.5663 67.0833 51.3808 67.0833 51.1874C67.0754 51.0885 67.0474 50.9922 67.001 50.9044C66.9547 50.8166 66.8908 50.7393 66.8135 50.677L57.5458 43.0718C56.642 42.3346 55.511 41.9327 54.3447 41.9343H15.6552Z"/>
        <path d="M46.9074 21.0656C46.7161 21.0648 46.5327 20.9889 46.3969 20.8542C43.3737 17.8326 39.2744 16.1352 35.0001 16.1352C30.7257 16.1352 26.6264 17.8326 23.6032 20.8542C23.4666 20.99 23.2818 21.0662 23.0891 21.0662C22.8965 21.0662 22.7117 20.99 22.5751 20.8542C22.5067 20.7864 22.4525 20.7057 22.4155 20.6169C22.3784 20.528 22.3594 20.4327 22.3594 20.3364C22.3594 20.2402 22.3784 20.1449 22.4155 20.056C22.4525 19.9672 22.5067 19.8865 22.5751 19.8187C25.8724 16.5273 30.3411 14.6787 35.0001 14.6787C39.659 14.6787 44.1277 16.5273 47.4251 19.8187C47.5279 19.9207 47.598 20.051 47.6265 20.193C47.655 20.335 47.6406 20.4823 47.585 20.6161C47.5295 20.7498 47.4354 20.864 47.3147 20.9441C47.194 21.0241 47.0522 21.0665 46.9074 21.0656Z"/>
        <path d="M43.6625 24.3104C43.5666 24.3109 43.4714 24.2925 43.3826 24.2562C43.2937 24.2199 43.2129 24.1665 43.1448 24.0989C40.9834 21.9411 38.0541 20.7292 35 20.7292C31.9459 20.7292 29.0166 21.9411 26.8552 24.0989C26.7875 24.1672 26.7068 24.2215 26.618 24.2585C26.5291 24.2955 26.4338 24.3146 26.3375 24.3146C26.2413 24.3146 26.146 24.2955 26.0571 24.2585C25.9683 24.2215 25.8876 24.1672 25.8198 24.0989C25.684 23.9623 25.6078 23.7775 25.6078 23.5848C25.6078 23.3922 25.684 23.2074 25.8198 23.0708C28.2569 20.6405 31.5583 19.2758 35 19.2758C38.4418 19.2758 41.7431 20.6405 44.1802 23.0708C44.316 23.2074 44.3923 23.3922 44.3923 23.5848C44.3923 23.7775 44.316 23.9623 44.1802 24.0989C44.1121 24.1665 44.0313 24.2199 43.9425 24.2562C43.8536 24.2925 43.7585 24.3109 43.6625 24.3104Z"/>
        <path d="M40.4104 27.5624C40.2191 27.5616 40.0358 27.4857 39.9 27.351C38.5998 26.0526 36.8375 25.3233 35 25.3233C33.1625 25.3233 31.4002 26.0526 30.1 27.351C29.9634 27.4868 29.7786 27.563 29.5859 27.563C29.3933 27.563 29.2085 27.4868 29.0719 27.351C29.0035 27.2832 28.9493 27.2026 28.9123 27.1137C28.8753 27.0248 28.8562 26.9295 28.8562 26.8333C28.8562 26.737 28.8753 26.6417 28.9123 26.5529C28.9493 26.464 29.0035 26.3834 29.0719 26.3156C30.6462 24.7473 32.7779 23.8668 35 23.8668C37.2222 23.8668 39.3538 24.7473 40.9281 26.3156C41.031 26.4176 41.1011 26.5479 41.1296 26.6899C41.1581 26.8319 41.1436 26.9791 41.0881 27.1129C41.0326 27.2467 40.9384 27.3609 40.8177 27.4409C40.6971 27.521 40.5553 27.5633 40.4104 27.5624Z"/>
        <path d="M17.8645 45.1646H16.4937C16.3003 45.1646 16.1148 45.0878 15.9781 44.9511C15.8413 44.8143 15.7645 44.6289 15.7645 44.4355C15.7645 44.2421 15.8413 44.0566 15.9781 43.9199C16.1148 43.7831 16.3003 43.7063 16.4937 43.7063H17.8645C18.0579 43.7063 18.2434 43.7831 18.3801 43.9199C18.5169 44.0566 18.5937 44.2421 18.5937 44.4355C18.5937 44.6289 18.5169 44.8143 18.3801 44.9511C18.2434 45.0878 18.0579 45.1646 17.8645 45.1646Z"/>
        <path d="M22.7864 45.1646H21.4156C21.2222 45.1646 21.0367 45.0878 20.9 44.9511C20.7632 44.8143 20.6864 44.6289 20.6864 44.4355C20.6864 44.2421 20.7632 44.0566 20.9 43.9199C21.0367 43.7831 21.2222 43.7063 21.4156 43.7063H22.7864C22.9798 43.7063 23.1653 43.7831 23.302 43.9199C23.4387 44.0566 23.5156 44.2421 23.5156 44.4355C23.5156 44.6289 23.4387 44.8143 23.302 44.9511C23.1653 45.0878 22.9798 45.1646 22.7864 45.1646Z"/>
        <path d="M27.7083 45.1646H26.3374C26.1441 45.1646 25.9586 45.0878 25.8218 44.9511C25.6851 44.8143 25.6083 44.6289 25.6083 44.4355C25.6083 44.2421 25.6851 44.0566 25.8218 43.9199C25.9586 43.7831 26.1441 43.7063 26.3374 43.7063H27.7083C27.9017 43.7063 28.0871 43.7831 28.2239 43.9199C28.3606 44.0566 28.4374 44.2421 28.4374 44.4355C28.4374 44.6289 28.3606 44.8143 28.2239 44.9511C28.0871 45.0878 27.9017 45.1646 27.7083 45.1646Z"/>
	</symbol>
    <symbol id="hand-wifi" viewBox="0 0 64 64">
        <path d="M60.46 44.81C59.9147 43.7567 59.0073 42.9358 57.9048 42.4985C56.8024 42.0612 55.579 42.0368 54.46 42.43L44.91 45.8C44.9734 45.4906 45.0069 45.1758 45.01 44.86C45.01 43.6576 44.5331 42.5044 43.6838 41.6532C42.8346 40.8021 41.6823 40.3226 40.48 40.32H36.93C33.755 40.3168 30.6284 39.5411 27.82 38.06C24.7366 36.4358 21.305 35.5847 17.82 35.58H12.15C11.8491 34.4964 11.1665 33.5582 10.2281 32.9384C9.28965 32.3186 8.15877 32.0591 7.04404 32.2078C5.92931 32.3564 4.90593 32.9031 4.16269 33.7471C3.41945 34.5911 3.0065 35.6754 3 36.8V54.4C3.00549 55.5315 3.42254 56.6225 4.17331 57.4691C4.92409 58.3158 5.95729 58.8603 7.08008 59.0011C8.20288 59.1419 9.33855 58.8694 10.2751 58.2343C11.2117 57.5993 11.8853 56.6451 12.17 55.55C14.1957 55.6248 16.1983 56.0058 18.11 56.68L23.64 58.62C29.9114 60.8307 36.7838 60.6094 42.9 58L58 51.54C58.6173 51.2764 59.1737 50.8885 59.6346 50.4005C60.0955 49.9125 60.451 49.3349 60.6789 48.7035C60.9069 48.0722 61.0024 47.4007 60.9596 46.7309C60.9168 46.061 60.7365 45.4071 60.43 44.81H60.46ZM10.33 54.4C10.2884 55.0785 9.98953 55.7157 9.49432 56.1815C8.9991 56.6473 8.34485 56.9066 7.665 56.9066C6.98514 56.9066 6.3309 56.6473 5.83568 56.1815C5.34046 55.7157 5.04159 55.0785 5 54.4V36.8C5.04159 36.1214 5.34046 35.4842 5.83568 35.0184C6.3309 34.5526 6.98514 34.2933 7.665 34.2933C8.34485 34.2933 8.9991 34.5526 9.49432 35.0184C9.98953 35.4842 10.2884 36.1214 10.33 36.8V54.4ZM58.83 48C58.6966 48.3753 58.4862 48.7186 58.2124 49.0079C57.9386 49.2972 57.6074 49.5261 57.24 49.68L42.11 56.16C36.4567 58.5668 30.108 58.7736 24.31 56.74L18.77 54.74C16.6979 54.0068 14.5265 53.592 12.33 53.51V37.51H17.79C20.9611 37.5097 24.0845 38.2819 26.89 39.76C29.9728 41.3869 33.4043 42.2413 36.89 42.25H40.44C40.9539 42.2531 41.4548 42.4121 41.8765 42.706C42.2982 42.9998 42.6208 43.4147 42.8017 43.8957C42.9827 44.3768 43.0134 44.9014 42.8899 45.4003C42.7664 45.8992 42.4945 46.3489 42.11 46.69C40.8199 47.1199 39.4698 47.3427 38.11 47.35H28.53C28.2648 47.35 28.0104 47.4553 27.8229 47.6429C27.6354 47.8304 27.53 48.0847 27.53 48.35C27.53 48.6152 27.6354 48.8695 27.8229 49.0571C28.0104 49.2446 28.2648 49.35 28.53 49.35H38.1C39.7685 49.3524 41.4254 49.0718 43 48.52L55.15 44.25C55.6705 44.0623 56.2339 44.028 56.7733 44.1511C57.3127 44.2742 57.8055 44.5495 58.193 44.9444C58.5805 45.3393 58.8465 45.8372 58.9595 46.3788C59.0724 46.9204 59.0274 47.4831 58.83 48Z"/>
        <path d="M25.7099 12.77C30.1793 8.33871 36.2226 5.85906 42.5164 5.87406C48.8102 5.88905 54.8416 8.39746 59.2899 12.85C59.4728 13.0263 59.7159 13.1264 59.9699 13.13C60.1719 13.1334 60.3702 13.0755 60.5386 12.964C60.7071 12.8524 60.8378 12.6925 60.9136 12.5052C60.9894 12.318 61.0066 12.1121 60.9631 11.9148C60.9196 11.7175 60.8174 11.5381 60.6699 11.4C55.8371 6.59169 49.2972 3.89246 42.4799 3.89246C35.6626 3.89246 29.1227 6.59169 24.2899 11.4C24.1036 11.5874 23.9991 11.8408 23.9991 12.105C23.9991 12.3692 24.1036 12.6226 24.2899 12.81C24.3855 12.9012 24.4982 12.9725 24.6215 13.0199C24.7448 13.0672 24.8762 13.0897 25.0082 13.086C25.1403 13.0823 25.2702 13.0524 25.3907 12.9982C25.5111 12.944 25.6196 12.8664 25.7099 12.77Z"/>
        <path d="M50.16 22.94C50.362 22.9434 50.5603 22.8855 50.7287 22.774C50.8972 22.6624 51.0279 22.5025 51.1037 22.3152C51.1795 22.128 51.1967 21.9221 51.1532 21.7248C51.1097 21.5275 51.0075 21.3481 50.86 21.21C48.6382 18.9958 45.632 17.7483 42.4953 17.7389C39.3585 17.7296 36.345 18.9591 34.11 21.16C34.0047 21.2489 33.919 21.3586 33.8581 21.4823C33.7973 21.6059 33.7626 21.7408 33.7563 21.8784C33.7501 22.0161 33.7723 22.1535 33.8217 22.2822C33.871 22.4108 33.9465 22.5279 34.0432 22.626C34.1399 22.7241 34.2559 22.8012 34.3839 22.8524C34.5118 22.9036 34.6489 22.9278 34.7866 22.9234C34.9244 22.9191 35.0597 22.8864 35.1842 22.8273C35.3087 22.7682 35.4196 22.684 35.51 22.58C37.3784 20.7366 39.9019 19.7098 42.5265 19.7248C45.1512 19.7398 47.6627 20.7954 49.51 22.66C49.6853 22.8295 49.9164 22.929 50.16 22.94Z"/>
        <path d="M39.0001 26.1101C38.3112 26.8018 37.8426 27.6819 37.6536 28.6397C37.4646 29.5974 37.5635 30.5897 37.938 31.4912C38.3125 32.3927 38.9457 33.1632 39.7576 33.7052C40.5696 34.2471 41.5239 34.5363 42.5001 34.5363C43.4763 34.5363 44.4306 34.2471 45.2426 33.7052C46.0545 33.1632 46.6877 32.3927 47.0622 31.4912C47.4367 30.5897 47.5356 29.5974 47.3466 28.6397C47.1576 27.6819 46.689 26.8018 46.0001 26.1101C45.5411 25.6494 44.9957 25.2837 44.3951 25.0343C43.7944 24.7848 43.1505 24.6562 42.5001 24.6562C41.8497 24.6562 41.2058 24.7848 40.6051 25.0343C40.0045 25.2837 39.4591 25.6494 39.0001 26.1101ZM44.5701 27.5301C45.1049 28.0886 45.4034 28.8318 45.4034 29.605C45.4034 30.3783 45.1049 31.1216 44.5701 31.68C44.0112 32.2178 43.2657 32.5182 42.4901 32.5182C41.7145 32.5182 40.969 32.2178 40.4101 31.68C39.8926 31.122 39.6118 30.3848 39.6266 29.6239C39.6415 28.8629 39.9509 28.1374 40.4897 27.5998C41.0285 27.0623 41.7548 26.7547 42.5158 26.7416C43.2768 26.7286 44.0132 27.0113 44.5701 27.5301Z"/>
        <path d="M55.1 18.05C54.9677 18.0494 54.8368 18.0226 54.7149 17.9711C54.5931 17.9196 54.4826 17.8445 54.39 17.75C52.836 16.1797 50.9856 14.9335 48.9463 14.0838C46.907 13.2341 44.7193 12.7977 42.51 12.8C40.3105 12.7914 38.1311 13.2182 36.0973 14.0557C34.0635 14.8933 32.2156 16.125 30.66 17.68C30.4717 17.867 30.2168 17.9715 29.9515 17.9705C29.6861 17.9696 29.432 17.8633 29.245 17.675C29.058 17.4867 28.9535 17.2318 28.9544 16.9664C28.9554 16.7011 29.0617 16.447 29.25 16.26C32.7553 12.7606 37.5069 10.7967 42.46 10.8C44.9403 10.7894 47.3978 11.274 49.6884 12.2253C51.9791 13.1766 54.0569 14.5754 55.8 16.34C55.8937 16.4329 55.9681 16.5435 56.0189 16.6654C56.0697 16.7873 56.0958 16.918 56.0958 17.05C56.0958 17.182 56.0697 17.3127 56.0189 17.4345C55.9681 17.5564 55.8937 17.667 55.8 17.76C55.6137 17.9447 55.3623 18.0489 55.1 18.05Z"/>
	</symbol>
    <symbol id="arrow" viewBox="0 0 60 60">
        <path d="M50.9099 31.7674C51.3786 31.2986 51.6418 30.6628 51.6418 29.9999C51.6418 29.337 51.3786 28.7012 50.9099 28.2324L36.7674 14.0899C36.5368 13.8511 36.2609 13.6606 35.9559 13.5296C35.6509 13.3986 35.3228 13.3296 34.9909 13.3268C34.6589 13.3239 34.3297 13.3871 34.0225 13.5128C33.7153 13.6385 33.4361 13.8242 33.2014 14.0589C32.9667 14.2936 32.781 14.5728 32.6553 14.88C32.5296 15.1872 32.4664 15.5164 32.4693 15.8484C32.4721 16.1803 32.5411 16.5084 32.6721 16.8134C32.8031 17.1184 32.9936 17.3943 33.2324 17.6249L43.1074 27.4999H9.99988C9.33684 27.4999 8.70095 27.7633 8.23211 28.2321C7.76327 28.701 7.49988 29.3368 7.49988 29.9999C7.49988 30.6629 7.76327 31.2988 8.23211 31.7676C8.70095 32.2365 9.33684 32.4999 9.99988 32.4999H43.1074L33.2324 42.3749C32.777 42.8464 32.525 43.4779 32.5307 44.1334C32.5364 44.7889 32.7993 45.4159 33.2628 45.8794C33.7264 46.3429 34.3534 46.6059 35.0089 46.6116C35.6644 46.6173 36.2959 46.3653 36.7674 45.9099L50.9099 31.7674Z"/>
	</symbol>
    <symbol id="" viewBox="0 0 32 32">
		
	</symbol>
    <symbol id="" viewBox="0 0 32 32">
		
	</symbol>
    <symbol id="" viewBox="0 0 32 32">
		
	</symbol>
    <symbol id="" viewBox="0 0 32 32">
		
	</symbol>
</svg>
