<svg width="61" height="71" viewBox="0 0 61 71" fill="none" xmlns="http://www.w3.org/2000/svg">
<path d="M31.8683 46.2438C31.7723 46.2462 31.6771 46.2262 31.5903 46.1852C31.4567 46.1303 31.3423 46.0371 31.2615 45.9173C31.1808 45.7975 31.1373 45.6565 31.1366 45.5121V40.6096H29.9659C29.1896 40.6096 28.4452 40.3013 27.8963 39.7524C27.3474 39.2035 27.0391 38.459 27.0391 37.6828V23.2901C27.0391 22.5139 27.3474 21.7694 27.8963 21.2205C28.4452 20.6716 29.1896 20.3633 29.9659 20.3633H54.1122C54.8885 20.3633 55.6329 20.6716 56.1818 21.2205C56.7307 21.7694 57.0391 22.5139 57.0391 23.2901V37.6974C57.0391 38.4737 56.7307 39.2181 56.1818 39.767C55.6329 40.3159 54.8885 40.6243 54.1122 40.6243H37.8171L32.3952 46.0462C32.3247 46.1123 32.2419 46.1637 32.1515 46.1977C32.0611 46.2316 31.9648 46.2472 31.8683 46.2438ZM29.9659 21.8413C29.5778 21.8413 29.2055 21.9955 28.9311 22.27C28.6567 22.5444 28.5025 22.9166 28.5025 23.3047V37.6974C28.5025 38.0856 28.6567 38.4578 28.9311 38.7322C29.2055 39.0067 29.5778 39.1608 29.9659 39.1608H31.8683C32.0624 39.1608 32.2485 39.2379 32.3857 39.3752C32.5229 39.5124 32.6 39.6985 32.6 39.8925V43.7633L36.9903 39.373C37.1266 39.2379 37.3105 39.1617 37.5025 39.1608H54.1195C54.5077 39.1608 54.8799 39.0067 55.1543 38.7322C55.4288 38.4578 55.583 38.0856 55.583 37.6974V23.2901C55.583 22.902 55.4288 22.5298 55.1543 22.2553C54.8799 21.9809 54.5077 21.8267 54.1195 21.8267L29.9659 21.8413Z" fill="#222222"/>
<path d="M43.0707 68.2805H12.7854C11.9477 68.2805 11.1443 67.9477 10.5519 67.3553C9.9596 66.763 9.62683 65.9596 9.62683 65.1219V5.12192C9.62683 4.28422 9.9596 3.48083 10.5519 2.88849C11.1443 2.29615 11.9477 1.96338 12.7854 1.96338H43.0707C43.9084 1.96338 44.7118 2.29615 45.3042 2.88849C45.8965 3.48083 46.2293 4.28422 46.2293 5.12192V21.1097C46.2293 21.1712 46.2049 21.2301 46.1614 21.2736C46.118 21.317 46.059 21.3414 45.9976 21.3414C45.9361 21.3414 45.8772 21.317 45.8337 21.2736C45.7903 21.2301 45.7659 21.1712 45.7659 21.1097V5.12192C45.7659 4.40712 45.4819 3.72161 44.9765 3.21618C44.471 2.71074 43.7855 2.42679 43.0707 2.42679H12.7854C12.0706 2.42679 11.3851 2.71074 10.8796 3.21618C10.3742 3.72161 10.0902 4.40712 10.0902 5.12192V65.1219C10.0902 65.8367 10.3742 66.5222 10.8796 67.0277C11.3851 67.5331 12.0706 67.817 12.7854 67.817H43.0707C43.7855 67.817 44.471 67.5331 44.9765 67.0277C45.4819 66.5222 45.7659 65.8367 45.7659 65.1219V39.878C45.7659 39.8166 45.7903 39.7576 45.8337 39.7142C45.8772 39.6707 45.9361 39.6463 45.9976 39.6463C46.059 39.6463 46.118 39.6707 46.1614 39.7142C46.2049 39.7576 46.2293 39.8166 46.2293 39.878V65.1219C46.2293 65.9596 45.8965 66.763 45.3042 67.3553C44.7118 67.9477 43.9084 68.2805 43.0707 68.2805Z" fill="#222222" stroke="#222222"/>
<path d="M45.9756 61.1783H9.88051C9.68645 61.1783 9.50034 61.1012 9.36312 60.9639C9.22589 60.8267 9.1488 60.6406 9.1488 60.4466C9.1488 60.2525 9.22589 60.0664 9.36312 59.9292C9.50034 59.7919 9.68645 59.7148 9.88051 59.7148H45.9756C46.1697 59.7148 46.3558 59.7919 46.493 59.9292C46.6302 60.0664 46.7073 60.2525 46.7073 60.4466C46.7073 60.6406 46.6302 60.8267 46.493 60.9639C46.3558 61.1012 46.1697 61.1783 45.9756 61.1783Z" fill="#222222"/>
<path d="M30.778 64.9829H25.078C24.884 64.9829 24.6978 64.9059 24.5606 64.7686C24.4234 64.6314 24.3463 64.4453 24.3463 64.2512C24.3463 64.0572 24.4234 63.8711 24.5606 63.7338C24.6978 63.5966 24.884 63.5195 25.078 63.5195H30.778C30.9721 63.5195 31.1582 63.5966 31.2954 63.7338C31.4326 63.8711 31.5097 64.0572 31.5097 64.2512C31.5097 64.4453 31.4326 64.6314 31.2954 64.7686C31.1582 64.9059 30.9721 64.9829 30.778 64.9829Z" fill="#F2921C"/>
<path d="M48.2366 29.0562H35.8488C35.6547 29.0562 35.4686 28.9791 35.3314 28.8419C35.1942 28.7047 35.1171 28.5185 35.1171 28.3245C35.1171 28.1304 35.1942 27.9443 35.3314 27.8071C35.4686 27.6699 35.6547 27.5928 35.8488 27.5928H48.2366C48.4306 27.5928 48.6167 27.6699 48.754 27.8071C48.8912 27.9443 48.9683 28.1304 48.9683 28.3245C48.9683 28.5185 48.8912 28.7047 48.754 28.8419C48.6167 28.9791 48.4306 29.0562 48.2366 29.0562Z" fill="#F2B91C"/>
<path d="M48.2366 34.0464H35.8488C35.6547 34.0464 35.4686 33.9693 35.3314 33.8321C35.1942 33.6949 35.1171 33.5088 35.1171 33.3147C35.1171 33.1207 35.1942 32.9345 35.3314 32.7973C35.4686 32.6601 35.6547 32.583 35.8488 32.583H48.2366C48.4306 32.583 48.6167 32.6601 48.754 32.7973C48.8912 32.9345 48.9683 33.1207 48.9683 33.3147C48.9683 33.5088 48.8912 33.6949 48.754 33.8321C48.6167 33.9693 48.4306 34.0464 48.2366 34.0464Z" fill="#F2B91C"/>
</svg>
