<svg width="105" height="71" viewBox="0 0 105 71" fill="none" xmlns="http://www.w3.org/2000/svg">
<path d="M74.6216 56.995H40.9408C40.6535 56.995 40.3779 56.8808 40.1748 56.6777C39.9716 56.4745 39.8575 56.199 39.8575 55.9116C39.8575 55.6243 39.9716 55.3488 40.1748 55.1456C40.3779 54.9424 40.6535 54.8283 40.9408 54.8283H73.5383V14.0841C73.5383 13.6072 73.3489 13.1498 73.0116 12.8125C72.6743 12.4753 72.2169 12.2858 71.74 12.2858H22.4916C22.0166 12.2887 21.5619 12.4794 21.227 12.8163C20.8921 13.1533 20.7041 13.6091 20.7041 14.0841V53.4958C20.7041 53.8473 20.843 54.1846 21.0906 54.4342C21.3381 54.6838 21.6743 54.8255 22.0258 54.8283H27.2258C27.5131 54.8283 27.7887 54.9424 27.9918 55.1456C28.195 55.3488 28.3091 55.6243 28.3091 55.9116C28.3091 56.199 28.195 56.4745 27.9918 56.6777C27.7887 56.8808 27.5131 56.995 27.2258 56.995H22.0258C21.0997 56.9921 20.2124 56.6222 19.5585 55.9663C18.9046 55.3104 18.5375 54.422 18.5375 53.4958V14.0841C18.5375 13.0344 18.9537 12.0276 19.695 11.2843C20.4362 10.541 21.4419 10.122 22.4916 10.1191H71.74C72.7916 10.1191 73.8001 10.5369 74.5437 11.2805C75.2872 12.024 75.705 13.0326 75.705 14.0841V55.9116C75.705 56.199 75.5908 56.4745 75.3877 56.6777C75.1845 56.8808 74.909 56.995 74.6216 56.995Z" fill="#222222"/>
<path d="M99.6358 56.9947H94.75C94.4627 56.9947 94.1871 56.8805 93.984 56.6774C93.7808 56.4742 93.6667 56.1987 93.6667 55.9113C93.6667 55.624 93.7808 55.3485 93.984 55.1453C94.1871 54.9421 94.4627 54.828 94.75 54.828H99.5925C99.664 54.8339 99.7359 54.8253 99.804 54.8026C99.872 54.7799 99.9347 54.7437 99.9884 54.6961C100.042 54.6486 100.086 54.5906 100.116 54.5257C100.147 54.4609 100.164 54.3905 100.167 54.3188V42.3155C100.168 42.1896 100.134 42.0659 100.069 41.958L89.3333 24.1155C89.2465 23.9715 89.1242 23.8521 88.9782 23.7687C88.8322 23.6852 88.6673 23.6405 88.4992 23.6388H75.705V54.828H81.1217C81.409 54.828 81.6845 54.9421 81.8877 55.1453C82.0909 55.3485 82.205 55.624 82.205 55.9113C82.205 56.1987 82.0909 56.4742 81.8877 56.6774C81.6845 56.8805 81.409 56.9947 81.1217 56.9947H74.6217C74.3343 56.9947 74.0588 56.8805 73.8556 56.6774C73.6525 56.4742 73.5383 56.1987 73.5383 55.9113V22.5555C73.5383 22.2682 73.6525 21.9926 73.8556 21.7895C74.0588 21.5863 74.3343 21.4722 74.6217 21.4722H88.5425C89.0856 21.4728 89.6194 21.6138 90.092 21.8814C90.5646 22.1491 90.96 22.5343 91.24 22.9997L101.922 40.8422C102.192 41.2861 102.334 41.7959 102.333 42.3155V54.3188C102.325 55.0296 102.037 55.7086 101.533 56.2092C101.028 56.7098 100.347 56.9919 99.6358 56.9947Z" fill="#222222"/>
<path d="M94.0676 43.3451H81.0134C80.7261 43.3451 80.4505 43.231 80.2474 43.0278C80.0442 42.8246 79.9301 42.5491 79.9301 42.2618V28.9476C79.9301 28.6603 80.0442 28.3847 80.2474 28.1816C80.4505 27.9784 80.7261 27.8643 81.0134 27.8643H86.0834C86.2685 27.865 86.4504 27.9132 86.6116 28.0043C86.7728 28.0953 86.908 28.2261 87.0042 28.3843L94.9776 41.6984C95.0726 41.8631 95.1227 42.0499 95.1227 42.2401C95.1227 42.4303 95.0726 42.6171 94.9776 42.7818C94.8876 42.9464 94.7565 43.0849 94.597 43.1836C94.4375 43.2824 94.255 43.338 94.0676 43.3451ZM82.0967 41.1784H92.1501L85.4767 30.0309H82.0967V41.1784Z" fill="#222222"/>
<path d="M87.9359 63.8529C86.3605 63.8636 84.8174 63.4061 83.5024 62.5384C82.1874 61.6708 81.1598 60.432 80.55 58.9794C79.9401 57.5268 79.7755 55.9257 80.0771 54.3794C80.3786 52.8331 81.1327 51.4112 82.2437 50.2941C83.3546 49.177 84.7724 48.4152 86.317 48.1052C87.8617 47.7952 89.4636 47.951 90.9196 48.5529C92.3755 49.1548 93.6199 50.1756 94.4947 51.4858C95.3696 52.796 95.8355 54.3366 95.8334 55.912C95.8306 58.0097 94.999 60.0213 93.5198 61.5087C92.0405 62.996 90.0335 63.8386 87.9359 63.8529ZM87.9359 50.127C86.7895 50.1163 85.6657 50.4464 84.7073 51.0755C83.7488 51.7046 82.9989 52.6043 82.5528 53.6604C82.1066 54.7165 81.9843 55.8813 82.2013 57.0071C82.4184 58.1328 82.9651 59.1686 83.7719 59.9831C84.5788 60.7976 85.6094 61.3539 86.733 61.5816C87.8567 61.8092 89.0226 61.6979 90.0828 61.2617C91.1431 60.8254 92.0498 60.084 92.6879 59.1316C93.326 58.1791 93.6667 57.0585 93.6667 55.912C93.6668 54.3871 93.0647 52.9238 91.9915 51.8404C90.9183 50.7571 89.4608 50.1413 87.9359 50.127Z" fill="#222222"/>
<circle cx="87.8756" cy="55.7967" r="5.95833" fill="#F2B91C"/>
<path d="M34.0832 63.853C32.5096 63.8552 30.9707 63.3904 29.6614 62.5175C28.3521 61.6445 27.3313 60.4028 26.7281 58.9494C26.1249 57.4959 25.9665 55.8962 26.273 54.3527C26.5795 52.8093 27.337 51.3914 28.4497 50.2787C29.5624 49.166 30.9803 48.4084 32.5238 48.102C34.0672 47.7955 35.667 47.9539 37.1204 48.5571C38.5738 49.1603 39.8156 50.1811 40.6885 51.4904C41.5614 52.7997 42.0262 54.3386 42.0241 55.9122C42.0212 58.0174 41.1837 60.0355 39.6951 61.5241C38.2065 63.0126 36.1884 63.8502 34.0832 63.853ZM34.0832 50.1272C32.9386 50.1251 31.8191 50.4625 30.8663 51.0969C29.9135 51.7312 29.1704 52.634 28.7309 53.6909C28.2913 54.7477 28.1752 55.9113 28.3972 57.0341C28.6192 58.157 29.1693 59.1888 29.9779 59.999C30.7866 60.8091 31.8173 61.3611 32.9398 61.5852C34.0623 61.8093 35.226 61.6954 36.2837 61.2579C37.3414 60.8203 38.2455 60.0789 38.8817 59.1273C39.5178 58.1757 39.8574 57.0568 39.8574 55.9122C39.8574 54.3798 39.2494 52.91 38.1668 51.8254C37.0843 50.7408 35.6156 50.1301 34.0832 50.1272Z" fill="#222222"/>
<path d="M12.8934 30.0309H3.75008C3.46276 30.0309 3.18721 29.9168 2.98405 29.7136C2.78088 29.5105 2.66675 29.2349 2.66675 28.9476C2.66675 28.6603 2.78088 28.3847 2.98405 28.1816C3.18721 27.9784 3.46276 27.8643 3.75008 27.8643H12.8934C13.1807 27.8643 13.4563 27.9784 13.6594 28.1816C13.8626 28.3847 13.9767 28.6603 13.9767 28.9476C13.9767 29.2349 13.8626 29.5105 13.6594 29.7136C13.4563 29.9168 13.1807 30.0309 12.8934 30.0309Z" fill="#222222"/>
<path d="M12.8934 43.3449H3.75008C3.46276 43.3449 3.18721 43.2308 2.98405 43.0276C2.78088 42.8244 2.66675 42.5489 2.66675 42.2616C2.66675 41.9742 2.78088 41.6987 2.98405 41.4955C3.18721 41.2924 3.46276 41.1782 3.75008 41.1782H12.8934C13.1807 41.1782 13.4563 41.2924 13.6594 41.4955C13.8626 41.6987 13.9767 41.9742 13.9767 42.2616C13.9767 42.5489 13.8626 42.8244 13.6594 43.0276C13.4563 43.2308 13.1807 43.3449 12.8934 43.3449Z" fill="#222222"/>
<path d="M12.8932 36.6823H6.07906C5.79174 36.6823 5.51619 36.5682 5.31303 36.365C5.10986 36.1618 4.99573 35.8863 4.99573 35.599C4.99573 35.3116 5.10986 35.0361 5.31303 34.8329C5.51619 34.6298 5.79174 34.5156 6.07906 34.5156H12.8932C13.1805 34.5156 13.4561 34.6298 13.6593 34.8329C13.8624 35.0361 13.9766 35.3116 13.9766 35.599C13.9766 35.8863 13.8624 36.1618 13.6593 36.365C13.4561 36.5682 13.1805 36.6823 12.8932 36.6823Z" fill="#222222"/>
<path d="M50.3334 40.4096C50.1908 40.4104 50.0495 40.3831 49.9175 40.3292C49.7855 40.2753 49.6654 40.1958 49.5642 40.0954C48.9091 39.4696 48.0381 39.1204 47.1321 39.1204C46.2262 39.1204 45.3551 39.4696 44.7 40.0954C44.5993 40.197 44.4795 40.2775 44.3475 40.3325C44.2155 40.3875 44.0739 40.4159 43.9309 40.4159C43.7879 40.4159 43.6463 40.3875 43.5142 40.3325C43.3822 40.2775 43.2624 40.197 43.1617 40.0954C42.9599 39.8924 42.8467 39.6179 42.8467 39.3317C42.8467 39.0455 42.9599 38.7709 43.1617 38.5679C43.682 38.0464 44.3 37.6327 44.9803 37.3504C45.6607 37.0682 46.3901 36.9229 47.1267 36.9229C47.8633 36.9229 48.5927 37.0682 49.2731 37.3504C49.9534 37.6327 50.5715 38.0464 51.0917 38.5679C51.2935 38.7709 51.4067 39.0455 51.4067 39.3317C51.4067 39.6179 51.2935 39.8924 51.0917 40.0954C50.8899 40.2956 50.6176 40.4084 50.3334 40.4096Z" fill="#222222"/>
<path d="M40.2692 36.7586C40.1266 36.7594 39.9853 36.7321 39.8533 36.6782C39.7213 36.6243 39.6012 36.5448 39.5 36.4444C39.3985 36.3437 39.3179 36.2239 39.2629 36.0919C39.2079 35.9599 39.1796 35.8183 39.1796 35.6753C39.1796 35.5323 39.2079 35.3907 39.2629 35.2587C39.3179 35.1266 39.3985 35.0068 39.5 34.9061C41.5284 32.8983 44.2672 31.772 47.1213 31.772C49.9753 31.772 52.7141 32.8983 54.7425 34.9061C54.8435 35.0071 54.9236 35.127 54.9783 35.259C55.033 35.391 55.0611 35.5324 55.0611 35.6753C55.0611 35.8181 55.033 35.9596 54.9783 36.0915C54.9236 36.2235 54.8435 36.3434 54.7425 36.4444C54.6415 36.5455 54.5216 36.6256 54.3896 36.6802C54.2576 36.7349 54.1162 36.763 53.9733 36.763C53.8305 36.763 53.6891 36.7349 53.5571 36.6802C53.4251 36.6256 53.3052 36.5455 53.2042 36.4444C51.5822 34.8434 49.3949 33.9457 47.1158 33.9457C44.8368 33.9457 42.6495 34.8434 41.0275 36.4444C40.8257 36.6446 40.5534 36.7574 40.2692 36.7586Z" fill="#222222"/>
<path d="M36.6942 33.1839C36.5516 33.1848 36.4103 33.1574 36.2783 33.1035C36.1463 33.0496 36.0262 32.9702 35.925 32.8698C35.7232 32.6668 35.61 32.3922 35.61 32.106C35.61 31.8198 35.7232 31.5452 35.925 31.3423C38.8964 28.3766 42.9231 26.7109 47.1213 26.7109C51.3194 26.7109 55.3461 28.3766 58.3175 31.3423C58.5193 31.5452 58.6325 31.8198 58.6325 32.106C58.6325 32.3922 58.5193 32.6668 58.3175 32.8698C58.2168 32.9713 58.097 33.0519 57.965 33.1069C57.833 33.1619 57.6914 33.1902 57.5483 33.1902C57.4053 33.1902 57.2637 33.1619 57.1317 33.1069C56.9997 33.0519 56.8799 32.9713 56.7792 32.8698C54.2174 30.3089 50.7435 28.8703 47.1213 28.8703C43.499 28.8703 40.0251 30.3089 37.4633 32.8698C37.3621 32.9702 37.2421 33.0496 37.1101 33.1035C36.9781 33.1574 36.8368 33.1848 36.6942 33.1839Z" fill="#222222"/>
<circle cx="34.0833" cy="55.7967" r="5.95833" fill="#F2B91C"/>
</svg>
