<svg width="71" height="71" viewBox="0 0 71 71" fill="none" xmlns="http://www.w3.org/2000/svg">
<path d="M65.6365 59.2919H5.36358C4.46106 59.29 3.59605 58.9306 2.95786 58.2924C2.31968 57.6543 1.9603 56.7892 1.95837 55.8867V48.3544C1.9603 47.4519 2.31968 46.5869 2.95786 45.9487C3.59605 45.3105 4.46106 44.9511 5.36358 44.9492H65.6365C66.539 44.9511 67.404 45.3105 68.0422 45.9487C68.6804 46.5869 69.0398 47.4519 69.0417 48.3544V55.8867C69.0398 56.7892 68.6804 57.6543 68.0422 58.2924C67.404 58.9306 66.539 59.29 65.6365 59.2919ZM5.36358 46.4003C4.84657 46.4022 4.35139 46.6089 3.98649 46.9752C3.62159 47.3415 3.4167 47.8374 3.41671 48.3544V55.8867C3.41863 56.4025 3.62436 56.8965 3.98906 57.2612C4.35375 57.6259 4.84783 57.8317 5.36358 57.8336H65.6365C66.1523 57.8317 66.6463 57.6259 67.011 57.2612C67.3757 56.8965 67.5815 56.4025 67.5834 55.8867V48.3544C67.5815 47.8387 67.3757 47.3446 67.011 46.9799C66.6463 46.6152 66.1523 46.4095 65.6365 46.4076L5.36358 46.4003Z" fill="black"/>
<path d="M11.299 54.6541C10.7971 54.6541 10.3065 54.5053 9.88922 54.2265C9.47193 53.9476 9.14669 53.5513 8.95463 53.0877C8.76257 52.624 8.71232 52.1138 8.81023 51.6216C8.90814 51.1293 9.14982 50.6772 9.50469 50.3223C9.85957 49.9674 10.3117 49.7258 10.8039 49.6279C11.2962 49.5299 11.8064 49.5802 12.27 49.7723C12.7337 49.9643 13.13 50.2896 13.4088 50.7068C13.6877 51.1241 13.8365 51.6147 13.8365 52.1166C13.8365 52.7896 13.5691 53.435 13.0933 53.9109C12.6174 54.3868 11.972 54.6541 11.299 54.6541ZM11.299 51.0083C11.0855 51.0083 10.8769 51.0716 10.6994 51.1901C10.522 51.3087 10.3836 51.4773 10.302 51.6745C10.2203 51.8716 10.1989 52.0886 10.2405 52.298C10.2822 52.5073 10.385 52.6996 10.5359 52.8505C10.6868 53.0014 10.8791 53.1042 11.0884 53.1459C11.2978 53.1875 11.5148 53.1661 11.712 53.0845C11.9091 53.0028 12.0777 52.8645 12.1963 52.687C12.3149 52.5095 12.3781 52.3009 12.3781 52.0874C12.3705 51.8063 12.2535 51.5393 12.0519 51.3431C11.8504 51.147 11.5802 51.0373 11.299 51.0374V51.0083Z" fill="black"/>
<path d="M18.6563 54.6541C18.1544 54.6541 17.6638 54.5053 17.2465 54.2265C16.8292 53.9476 16.504 53.5513 16.3119 53.0877C16.1199 52.624 16.0696 52.1138 16.1675 51.6216C16.2654 51.1293 16.5071 50.6772 16.862 50.3223C17.2169 49.9674 17.669 49.7258 18.1612 49.6279C18.6535 49.5299 19.1637 49.5802 19.6273 49.7723C20.091 49.9643 20.4873 50.2896 20.7661 50.7068C21.045 51.1241 21.1938 51.6147 21.1938 52.1166C21.1938 52.4498 21.1281 52.7798 21.0006 53.0877C20.8731 53.3955 20.6862 53.6753 20.4506 53.9109C20.2149 54.1465 19.9352 54.3334 19.6273 54.4609C19.3195 54.5885 18.9895 54.6541 18.6563 54.6541ZM18.6563 51.0083C18.4428 51.0083 18.2342 51.0716 18.0567 51.1901C17.8793 51.3087 17.7409 51.4773 17.6593 51.6745C17.5776 51.8716 17.5562 52.0886 17.5978 52.298C17.6395 52.5073 17.7423 52.6996 17.8932 52.8505C18.0441 53.0014 18.2364 53.1042 18.4457 53.1459C18.6551 53.1875 18.8721 53.1661 19.0693 53.0845C19.2664 53.0028 19.435 52.8645 19.5536 52.687C19.6721 52.5095 19.7354 52.3009 19.7354 52.0874C19.7278 51.8063 19.6108 51.5393 19.4092 51.3431C19.2077 51.147 18.9375 51.0373 18.6563 51.0374V51.0083Z" fill="black"/>
<path d="M61.5093 52.846H42.2228C42.0294 52.846 41.844 52.7692 41.7072 52.6325C41.5705 52.4957 41.4937 52.3102 41.4937 52.1169C41.4937 51.9235 41.5705 51.738 41.7072 51.6013C41.844 51.4645 42.0294 51.3877 42.2228 51.3877H61.5093C61.7027 51.3877 61.8881 51.4645 62.0249 51.6013C62.1616 51.738 62.2384 51.9235 62.2384 52.1169C62.2384 52.3102 62.1616 52.4957 62.0249 52.6325C61.8881 52.7692 61.7027 52.846 61.5093 52.846Z" fill="black"/>
<path d="M62.5668 63.0397H59.8105C59.6786 63.0394 59.5493 63.0033 59.4363 62.9352C59.3233 62.8672 59.2309 62.7697 59.1689 62.6533L57.1855 58.9054C57.1009 58.7348 57.0864 58.5378 57.1451 58.3567C57.2038 58.1755 57.3311 58.0245 57.4996 57.936C57.6682 57.8474 57.8647 57.8283 58.0472 57.8827C58.2297 57.9371 58.3836 58.0608 58.4761 58.2272L60.248 61.5814H61.8376V58.5627C61.8376 58.3693 61.9144 58.1838 62.0512 58.0471C62.1879 57.9103 62.3734 57.8335 62.5668 57.8335C62.7602 57.8335 62.9456 57.9103 63.0824 58.0471C63.2191 58.1838 63.2959 58.3693 63.2959 58.5627V62.3106C63.2959 62.504 63.2191 62.6894 63.0824 62.8262C62.9456 62.9629 62.7602 63.0397 62.5668 63.0397Z" fill="black"/>
<path d="M11.1896 63.0395H8.43339C8.24 63.0395 8.05454 62.9627 7.91779 62.826C7.78105 62.6892 7.70422 62.5037 7.70422 62.3104V58.5624C7.70422 58.369 7.78105 58.1836 7.91779 58.0468C8.05454 57.9101 8.24 57.8333 8.43339 57.8333C8.62678 57.8333 8.81224 57.9101 8.94899 58.0468C9.08573 58.1836 9.16256 58.369 9.16256 58.5624V61.5812H10.7521L12.524 58.227C12.5672 58.1399 12.6273 58.0624 12.7009 57.9989C12.7745 57.9354 12.8601 57.8872 12.9525 57.8573C13.045 57.8273 13.1425 57.8162 13.2393 57.8244C13.3362 57.8327 13.4304 57.8602 13.5164 57.9055C13.6025 57.9507 13.6786 58.0126 13.7404 58.0877C13.8021 58.1627 13.8482 58.2494 13.876 58.3425C13.9038 58.4356 13.9127 58.5334 13.9021 58.63C13.8916 58.7266 13.8619 58.8202 13.8146 58.9051L11.8313 62.6531C11.7693 62.7695 11.6769 62.8669 11.5639 62.935C11.4509 63.003 11.3215 63.0392 11.1896 63.0395Z" fill="black"/>
<path d="M46.4374 26.3482C46.341 26.3478 46.2455 26.3283 46.1567 26.2907C46.0678 26.2532 45.9873 26.1984 45.9197 26.1295C43.1453 23.3644 39.3879 21.8117 35.4708 21.8117C31.5537 21.8117 27.7963 23.3644 25.0218 26.1295C24.8823 26.2489 24.7029 26.3114 24.5194 26.3043C24.3359 26.2972 24.1618 26.2211 24.0319 26.0913C23.9021 25.9614 23.826 25.7873 23.8189 25.6038C23.8118 25.4203 23.8742 25.2409 23.9937 25.1014C27.0395 22.0611 31.1672 20.3535 35.4708 20.3535C39.7743 20.3535 43.902 22.0611 46.9479 25.1014C47.0837 25.238 47.1599 25.4228 47.1599 25.6154C47.1599 25.8081 47.0837 25.9929 46.9479 26.1295C46.8132 26.2669 46.6298 26.3455 46.4374 26.3482Z" fill="black"/>
<path d="M42.2302 30.5773C42.0389 30.5764 41.8556 30.5005 41.7198 30.3658C40.0695 28.7174 37.8325 27.7915 35.5 27.7915C33.1675 27.7915 30.9304 28.7174 29.2802 30.3658C29.1436 30.5016 28.9588 30.5778 28.7661 30.5778C28.5735 30.5778 28.3887 30.5016 28.2521 30.3658C28.1837 30.298 28.1295 30.2174 28.0925 30.1285C28.0554 30.0397 28.0364 29.9443 28.0364 29.8481C28.0364 29.7518 28.0554 29.6565 28.0925 29.5677C28.1295 29.4788 28.1837 29.3982 28.2521 29.3304C30.1755 27.4104 32.7822 26.332 35.5 26.332C38.2177 26.332 40.8244 27.4104 42.7479 29.3304C42.8507 29.4324 42.9209 29.5627 42.9493 29.7047C42.9778 29.8467 42.9634 29.994 42.9079 30.1277C42.8523 30.2615 42.7582 30.3757 42.6375 30.4557C42.5168 30.5358 42.375 30.5781 42.2302 30.5773Z" fill="black"/>
<path d="M38.0011 34.8062C37.9051 34.8068 37.81 34.7884 37.7211 34.7521C37.6323 34.7158 37.5515 34.6623 37.4834 34.5947C36.9498 34.0831 36.2392 33.7975 35.5 33.7975C34.7608 33.7975 34.0502 34.0831 33.5167 34.5947C33.3794 34.732 33.1932 34.8092 32.999 34.8092C32.8048 34.8092 32.6186 34.732 32.4813 34.5947C32.344 34.4574 32.2668 34.2712 32.2668 34.077C32.2668 33.8829 32.344 33.6966 32.4813 33.5593C33.2833 32.7614 34.3687 32.3135 35.5 32.3135C36.6314 32.3135 37.7167 32.7614 38.5188 33.5593C38.5871 33.6271 38.6414 33.7078 38.6784 33.7966C38.7154 33.8855 38.7345 33.9808 38.7345 34.077C38.7345 34.1733 38.7154 34.2686 38.6784 34.3575C38.6414 34.4463 38.5871 34.527 38.5188 34.5947C38.4507 34.6623 38.3699 34.7158 38.281 34.7521C38.1922 34.7884 38.097 34.8068 38.0011 34.8062Z" fill="black"/>
<path d="M62.1292 46.3999H56.0917C55.8983 46.3999 55.7129 46.3231 55.5761 46.1864C55.4394 46.0496 55.3625 45.8642 55.3625 45.6708L56.6459 11.2176C56.6459 10.5717 56.9025 9.95227 57.3592 9.49554C57.8159 9.03881 58.4354 8.78223 59.0813 8.78223C59.7272 8.78223 60.3467 9.03881 60.8034 9.49554C61.2601 9.95227 61.5167 10.5717 61.5167 11.2176L62.8292 45.6416C62.8292 45.835 62.7524 46.0205 62.6156 46.1572C62.4789 46.2939 62.2934 46.3708 62.1001 46.3708L62.1292 46.3999ZM56.85 44.9416H61.3709L60.0876 11.276C60.0876 11.0168 59.9846 10.7683 59.8014 10.5851C59.6181 10.4018 59.3696 10.2989 59.1105 10.2989C58.8513 10.2989 58.6028 10.4018 58.4196 10.5851C58.2363 10.7683 58.1334 11.0168 58.1334 11.276L56.85 44.9416Z" fill="black"/>
<path d="M14.9084 46.4001H8.87089C8.6775 46.4001 8.49204 46.3232 8.35529 46.1865C8.21855 46.0498 8.14172 45.8643 8.14172 45.6709L9.45422 11.2469C9.45422 10.601 9.71081 9.98157 10.1675 9.52484C10.6243 9.06811 11.2437 8.81152 11.8896 8.81152C12.5356 8.81152 13.155 9.06811 13.6117 9.52484C14.0685 9.98157 14.3251 10.601 14.3251 11.2469L15.6376 45.6709C15.6376 45.8643 15.5607 46.0498 15.424 46.1865C15.2872 46.3232 15.1018 46.4001 14.9084 46.4001ZM9.62922 44.9417H14.1501L12.8959 11.2761C12.8959 11.017 12.7929 10.7684 12.6097 10.5852C12.4265 10.402 12.1779 10.299 11.9188 10.299C11.6597 10.299 11.4111 10.402 11.2279 10.5852C11.0447 10.7684 10.9417 11.017 10.9417 11.2761L9.62922 44.9417Z" fill="black"/>
<circle cx="18.6562" cy="52.0732" r="1.09375" fill="#F2B91C"/>
<circle cx="11.2916" cy="52.0732" r="1.09375" fill="#F2B91C"/>
</svg>
