<svg width="35" height="34" viewBox="0 0 35 34" fill="none" xmlns="http://www.w3.org/2000/svg">
<g clip-path="url(#clip0_239_926)">
<path d="M17.24 0C12.7323 0 8.4053 1.79217 5.22046 4.97914C2.03235 8.16739 0.240903 12.4912 0.23999 17C0.23999 21.5069 2.03296 25.8339 5.22046 29.0209C8.4053 32.2078 12.7323 34 17.24 34C21.7476 34 26.0747 32.2078 29.2595 29.0209C32.447 25.8339 34.24 21.5069 34.24 17C34.24 12.4931 32.447 8.16611 29.2595 4.97914C26.0747 1.79217 21.7476 0 17.24 0Z" fill="url(#paint0_linear_239_926)"/>
<path d="M7.93518 16.8204C12.8917 14.6614 16.1961 13.238 17.8483 12.5502C22.5711 10.5865 23.5513 10.2454 24.1914 10.2339C24.3322 10.2316 24.6456 10.2664 24.8502 10.4318C25.0202 10.5712 25.068 10.7598 25.0919 10.8922C25.1131 11.0245 25.1424 11.326 25.1185 11.5613C24.8635 14.2495 23.7558 20.7727 23.1927 23.7835C22.9563 25.0575 22.4861 25.4846 22.0319 25.5263C21.0438 25.6171 20.2947 24.8739 19.3385 24.2473C17.843 23.2664 16.9983 22.656 15.5453 21.6989C13.8666 20.5928 14.9557 19.9848 15.9119 18.9914C16.1616 18.7313 20.5125 14.7749 20.5949 14.416C20.6055 14.3711 20.6161 14.2038 20.5152 14.1156C20.4169 14.0271 20.2708 14.0574 20.1646 14.0813C20.0132 14.1153 17.6252 15.6952 12.9927 18.8209C12.3153 19.2868 11.7017 19.5139 11.1492 19.5019C10.5436 19.4889 9.37487 19.1587 8.50628 18.8766C7.44378 18.5305 6.59643 18.3475 6.67081 17.7597C6.708 17.4537 7.13034 17.1405 7.93518 16.8204Z" fill="white"/>
</g>
<defs>
<linearGradient id="paint0_linear_239_926" x1="1700.24" y1="0" x2="1700.24" y2="3400" gradientUnits="userSpaceOnUse">
<stop stop-color="#2AABEE"/>
<stop offset="1" stop-color="#229ED9"/>
</linearGradient>
<clipPath id="clip0_239_926">
<rect width="34" height="34" fill="white" transform="translate(0.23999)"/>
</clipPath>
</defs>
</svg>
