<svg width="32" height="32" viewBox="0 0 32 32" fill="none" xmlns="http://www.w3.org/2000/svg">
<g clip-path="url(#clip0_239_929)">
<path d="M0.921575 15.8085C0.920831 18.4971 1.62334 21.1224 2.95916 23.4363L0.793823 31.3423L8.88461 29.2208C11.1224 30.4391 13.6297 31.0774 16.1776 31.0776H16.1843C24.5955 31.0776 31.4424 24.2332 31.446 15.8205C31.4476 11.744 29.8615 7.9107 26.9797 5.02673C24.0985 2.14301 20.2666 0.554046 16.1837 0.552185C7.77156 0.552185 0.925172 7.39622 0.921699 15.8085" fill="url(#paint0_linear_239_929)"/>
<path d="M0.376732 15.8035C0.375864 18.5889 1.10355 21.308 2.487 23.7048L0.244019 31.8942L8.62492 29.6967C10.9341 30.9558 13.5341 31.6196 16.1796 31.6206H16.1865C24.8994 31.6206 31.9922 24.53 31.996 15.8162C31.9974 11.5932 30.3543 7.62208 27.3696 4.63479C24.3845 1.64788 20.4156 0.00173643 16.1865 0C7.47205 0 0.380205 7.08961 0.376732 15.8035ZM5.36786 23.292L5.05493 22.7953C3.73946 20.7036 3.04513 18.2865 3.04613 15.8045C3.04886 8.56174 8.94331 2.66915 16.1914 2.66915C19.7015 2.67064 23.0002 4.03895 25.4814 6.52155C27.9623 9.0044 29.3276 12.3049 29.3267 15.8152C29.3235 23.058 23.4289 28.9513 16.1865 28.9513H16.1813C13.8231 28.9501 11.5103 28.3168 9.49326 27.12L9.01326 26.8353L4.03986 28.1393L5.36786 23.292Z" fill="url(#paint1_linear_239_929)"/>
<path d="M12.2351 9.19665C11.9391 8.53891 11.6277 8.52564 11.3463 8.5141C11.1158 8.50418 10.8524 8.50493 10.5892 8.50493C10.3257 8.50493 9.89769 8.60403 9.5359 8.99907C9.17373 9.39448 8.1532 10.35 8.1532 12.2935C8.1532 14.2369 9.56876 16.1152 9.7661 16.379C9.96368 16.6424 12.4989 20.7582 16.514 22.3416C19.8509 23.6574 20.53 23.3957 21.2542 23.3297C21.9786 23.264 23.5915 22.3744 23.9205 21.452C24.2498 20.5297 24.2498 19.7392 24.1511 19.5739C24.0524 19.4094 23.7889 19.3105 23.3939 19.113C22.9988 18.9156 21.0566 17.9598 20.6946 17.828C20.3324 17.6962 20.0691 17.6305 19.8057 18.026C19.5422 18.421 18.7858 19.3105 18.5552 19.5739C18.3249 19.838 18.0943 19.8709 17.6994 19.6733C17.3041 19.4751 16.0319 19.0585 14.5226 17.7129C13.3482 16.6658 12.5554 15.3728 12.325 14.9772C12.0945 14.5823 12.3003 14.3682 12.4984 14.1714C12.6759 13.9944 12.8935 13.7101 13.0912 13.4796C13.2882 13.2489 13.3539 13.0843 13.4857 12.8208C13.6175 12.5571 13.5515 12.3264 13.4529 12.1289C13.3539 11.9313 12.5863 9.97767 12.2351 9.19665Z" fill="white"/>
</g>
<defs>
<linearGradient id="paint0_linear_239_929" x1="1533.4" y1="3079.56" x2="1533.4" y2="0.552185" gradientUnits="userSpaceOnUse">
<stop stop-color="#1FAF38"/>
<stop offset="1" stop-color="#60D669"/>
</linearGradient>
<linearGradient id="paint1_linear_239_929" x1="1587.84" y1="3189.42" x2="1587.84" y2="0" gradientUnits="userSpaceOnUse">
<stop stop-color="#F9F9F9"/>
<stop offset="1" stop-color="white"/>
</linearGradient>
<clipPath id="clip0_239_929">
<rect width="31.76" height="32" fill="white" transform="translate(0.23999)"/>
</clipPath>
</defs>
</svg>
